<svg width="111" height="21" viewBox="0 0 111 21" fill="none" xmlns="http://www.w3.org/2000/svg">
<g clip-path="url(#clip0_1_1644)">
<path d="M45.3042 7.35213L42.6753 7.81776C42.5653 7.48147 42.3907 7.16135 42.1514 6.85739C41.9186 6.55344 41.6017 6.30445 41.2008 6.11044C40.7998 5.91642 40.2986 5.81942 39.6971 5.81942C38.8759 5.81942 38.1903 6.00373 37.6407 6.37235C37.0909 6.73452 36.8161 7.20338 36.8161 7.77896C36.8161 8.27692 37.0004 8.67789 37.3691 8.98184C37.7376 9.28579 38.3326 9.53477 39.1539 9.72879L41.5209 10.2721C42.8919 10.5889 43.9137 11.0771 44.5863 11.7368C45.2589 12.3965 45.5952 13.2533 45.5952 14.3075C45.5952 15.2 45.3365 15.9954 44.8191 16.6938C44.3082 17.3858 43.5936 17.929 42.6753 18.3236C41.7634 18.7181 40.706 18.9153 39.5032 18.9153C37.8346 18.9153 36.4733 18.5597 35.4192 17.8483C34.3651 17.1304 33.7183 16.1119 33.479 14.7926L36.2825 14.3657C36.4571 15.0965 36.8161 15.6494 37.3593 16.0245C37.9025 16.3931 38.6107 16.5774 39.4838 16.5774C40.4344 16.5774 41.1943 16.3803 41.7634 15.9857C42.3326 15.5847 42.6171 15.0965 42.6171 14.5209C42.6171 14.0553 42.4424 13.6641 42.0932 13.3472C41.7505 13.0302 41.2234 12.791 40.512 12.6293L37.9898 12.0764C36.5994 11.7595 35.5712 11.255 34.9051 10.5631C34.2454 9.87109 33.9156 8.99477 33.9156 7.93417C33.9156 7.05464 34.1613 6.28506 34.6529 5.62541C35.1444 4.96576 35.8234 4.45162 36.6899 4.083C37.5566 3.70791 38.5492 3.52036 39.6681 3.52036C41.2784 3.52036 42.5459 3.86958 43.4707 4.56803C44.3955 5.26001 45.0067 6.18804 45.3042 7.35213ZM54.5142 18.9153C53.0721 18.9153 51.8304 18.5887 50.7892 17.9356C49.7544 17.2759 48.959 16.3673 48.4028 15.2096C47.8467 14.0521 47.5686 12.7263 47.5686 11.2324C47.5686 9.71909 47.8531 8.38363 48.4222 7.22601C48.9914 6.06193 49.7932 5.15331 50.828 4.50013C51.8627 3.84695 53.0818 3.52036 54.4851 3.52036C55.6169 3.52036 56.6257 3.73054 57.5118 4.15091C58.3977 4.5648 59.1124 5.14684 59.6556 5.89703C60.2053 6.64721 60.5319 7.5235 60.6354 8.5259H57.8125C57.6572 7.82746 57.3015 7.22601 56.7454 6.72158C56.1957 6.21714 55.4584 5.96493 54.5336 5.96493C53.7252 5.96493 53.0171 6.17834 52.4092 6.60517C51.8078 7.02553 51.3389 7.62698 51.0026 8.4095C50.6663 9.18555 50.4982 10.1039 50.4982 11.1645C50.4982 12.251 50.6631 13.1886 50.993 13.9777C51.3227 14.7667 51.7884 15.3778 52.3898 15.8111C52.9977 16.2444 53.7124 16.461 54.5336 16.461C55.0834 16.461 55.5813 16.3608 56.0276 16.1604C56.4803 15.9534 56.8586 15.6591 57.1625 15.2775C57.473 14.896 57.6896 14.4368 57.8125 13.9001H60.6354C60.5319 14.8637 60.2182 15.7238 59.6944 16.4805C59.1706 17.2371 58.4689 17.8321 57.5893 18.2653C56.7163 18.6987 55.6913 18.9153 54.5142 18.9153ZM69.4672 18.9153C68.0702 18.9153 66.8512 18.5952 65.81 17.955C64.7688 17.3147 63.9604 16.419 63.3849 15.2679C62.8092 14.1167 62.5214 12.7716 62.5214 11.2324C62.5214 9.68675 62.8092 8.33512 63.3849 7.17751C63.9604 6.0199 64.7688 5.12097 65.81 4.48072C66.8512 3.84048 68.0702 3.52036 69.4672 3.52036C70.8641 3.52036 72.0831 3.84048 73.1243 4.48072C74.1655 5.12097 74.9739 6.0199 75.5494 7.17751C76.125 8.33512 76.4129 9.68675 76.4129 11.2324C76.4129 12.7716 76.125 14.1167 75.5494 15.2679C74.9739 16.419 74.1655 17.3147 73.1243 17.955C72.0831 18.5952 70.8641 18.9153 69.4672 18.9153ZM69.4769 16.4805C70.3822 16.4805 71.1325 16.2411 71.7274 15.7626C72.3224 15.2841 72.7621 14.647 73.0467 13.8516C73.3377 13.0562 73.4832 12.1799 73.4832 11.2227C73.4832 10.2721 73.3377 9.39897 73.0467 8.60351C72.7621 7.80159 72.3224 7.15811 71.7274 6.67308C71.1325 6.18804 70.3822 5.94552 69.4769 5.94552C68.565 5.94552 67.8084 6.18804 67.2069 6.67308C66.6119 7.15811 66.1689 7.80159 65.8779 8.60351C65.5933 9.39897 65.4511 10.2721 65.4511 11.2227C65.4511 12.1799 65.5933 13.0562 65.8779 13.8516C66.1689 14.647 66.6119 15.2841 67.2069 15.7626C67.8084 16.2411 68.565 16.4805 69.4769 16.4805ZM88.5428 12.4353V3.71437H91.453V18.6146H88.601V16.0342H88.4458C88.1031 16.8297 87.5533 17.4925 86.7968 18.0229C86.0465 18.5467 85.1121 18.8086 83.9932 18.8086C83.0361 18.8086 82.1889 18.5984 81.4517 18.1781C80.7209 17.7513 80.1452 17.1207 79.7249 16.2864C79.311 15.4522 79.1041 14.4206 79.1041 13.192V3.71437H82.0046V12.8427C82.0046 13.858 82.2859 14.6664 82.8486 15.2679C83.4112 15.8693 84.1419 16.17 85.0408 16.17C85.5842 16.17 86.1242 16.0342 86.6609 15.7626C87.2042 15.491 87.6536 15.0804 88.0093 14.5306C88.3715 13.9809 88.5493 13.2825 88.5428 12.4353ZM101.759 3.71437V6.04254H93.6205V3.71437H101.759ZM95.8031 0.144531H98.7036V14.2396C98.7036 14.8022 98.7877 15.2258 98.9558 15.5104C99.124 15.7885 99.3406 15.9793 99.6057 16.0827C99.8773 16.1798 100.172 16.2283 100.489 16.2283C100.721 16.2283 100.925 16.2121 101.1 16.1798C101.274 16.1474 101.41 16.1215 101.507 16.1021L102.031 18.4982C101.863 18.5629 101.623 18.6276 101.313 18.6922C101.003 18.7634 100.615 18.8021 100.149 18.8086C99.3858 18.8215 98.6745 18.6857 98.0148 18.4011C97.3552 18.1166 96.8216 17.6768 96.4142 17.0819C96.0068 16.4869 95.8031 15.74 95.8031 14.841V0.144531Z" fill="white"/>
<path fill-rule="evenodd" clip-rule="evenodd" d="M17.0189 19.9867C16.2107 19.9831 15.5584 19.3249 15.562 18.5167L15.5876 12.7255L10.4316 15.7023C9.73171 16.1065 8.8367 15.8666 8.43259 15.1667C8.02847 14.4668 8.26829 13.5717 8.96823 13.1676L13.9304 10.3027L8.91945 7.40964C8.21951 7.00553 7.97969 6.11052 8.3838 5.41058C8.78792 4.71064 9.68293 4.47082 10.3829 4.87493L15.6091 7.89227L15.6355 1.93154C15.639 1.12333 16.2971 0.471043 17.1053 0.474624C17.9136 0.478205 18.5658 1.1363 18.5623 1.94451L18.537 7.64308L23.3316 4.87493C24.0316 4.47082 24.9265 4.71064 25.3307 5.41058C25.7348 6.11052 25.495 7.00553 24.795 7.40964L19.784 10.3027L24.7462 13.1676C25.4462 13.5717 25.686 14.4668 25.2819 15.1667C24.8777 15.8666 23.9828 16.1065 23.2828 15.7023L18.5135 12.9488L18.4887 18.5297C18.4852 19.3379 17.8271 19.9902 17.0189 19.9867Z" fill="white"/>
</g>
<defs>
<clipPath id="clip0_1_1644">
<rect width="110" height="20" fill="white" transform="translate(0.75 0.078125)"/>
</clipPath>
</defs>
</svg>
