<svg width="255" height="365" viewBox="0 0 255 365" fill="none" xmlns="http://www.w3.org/2000/svg">
<mask id="mask0_1_449" style="mask-type:luminance" maskUnits="userSpaceOnUse" x="0" y="0" width="255" height="365">
<path d="M239.923 0.0949707H15.1652C7.12435 0.0949707 0.605957 6.61336 0.605957 14.6542V349.516C0.605957 357.557 7.12435 364.076 15.1652 364.076H239.923C247.964 364.076 254.483 357.557 254.483 349.516V14.6542C254.483 6.61336 247.964 0.0949707 239.923 0.0949707Z" fill="white"/>
</mask>
<g mask="url(#mask0_1_449)">
<path d="M239.923 0.0949707H15.1652C7.12435 0.0949707 0.605957 6.61336 0.605957 14.6542V349.516C0.605957 357.557 7.12435 364.076 15.1652 364.076H239.923C247.964 364.076 254.483 357.557 254.483 349.516V14.6542C254.483 6.61336 247.964 0.0949707 239.923 0.0949707Z" fill="url(#paint0_radial_1_449)" fill-opacity="0.6"/>
<path d="M239.923 0.0949707H15.1652C7.12435 0.0949707 0.605957 6.61336 0.605957 14.6542V349.516C0.605957 357.557 7.12435 364.076 15.1652 364.076H239.923C247.964 364.076 254.483 357.557 254.483 349.516V14.6542C254.483 6.61336 247.964 0.0949707 239.923 0.0949707Z" fill="url(#paint1_radial_1_449)" fill-opacity="0.15"/>
<path d="M252.663 0.0949707H0.605957V364.076H252.663V0.0949707Z" fill="url(#paint2_radial_1_449)"/>
<g style="mix-blend-mode:luminosity">
<path d="M234.464 11.4695H18.8051C15.036 11.4695 11.9805 14.525 11.9805 18.2941V344.967C11.9805 348.736 15.036 351.791 18.8051 351.791H234.464C238.233 351.791 241.288 348.736 241.288 344.967V18.2941C241.288 14.525 238.233 11.4695 234.464 11.4695Z" stroke="#252527"/>
</g>
<path d="M123.904 338.597L123.904 12.8342" stroke="url(#paint3_radial_1_449)"/>
<path d="M24.7599 295.829H22.8521L27.1388 283.917H29.2153L33.502 295.829H31.5942L28.2265 286.081H28.1334L24.7599 295.829ZM25.0798 291.165H31.2685V292.677H25.0798V291.165ZM38.5382 296.009C37.6734 296.009 36.9289 295.814 36.3046 295.422C35.6842 295.027 35.2073 294.482 34.8738 293.787C34.5403 293.094 34.3736 292.299 34.3736 291.403C34.3736 290.495 34.5442 289.695 34.8854 289.001C35.2267 288.303 35.7075 287.758 36.3279 287.367C36.9483 286.974 37.6793 286.779 38.5207 286.779C39.1992 286.779 39.8042 286.904 40.3354 287.156C40.8666 287.405 41.2951 287.754 41.6209 288.204C41.9505 288.653 42.1463 289.179 42.2083 289.78H40.5158C40.4227 289.361 40.2094 289.001 39.8759 288.698C39.5463 288.396 39.1043 288.245 38.5498 288.245C38.0651 288.245 37.6405 288.372 37.276 288.629C36.9154 288.881 36.6342 289.241 36.4325 289.711C36.231 290.176 36.1302 290.726 36.1302 291.362C36.1302 292.014 36.229 292.576 36.4268 293.049C36.6245 293.522 36.9037 293.888 37.2643 294.149C37.6289 294.408 38.0574 294.538 38.5498 294.538C38.8794 294.538 39.178 294.478 39.4455 294.358C39.7169 294.233 39.9438 294.058 40.126 293.828C40.3121 293.6 40.4421 293.324 40.5158 293.002H42.2083C42.1463 293.58 41.9582 294.096 41.6441 294.55C41.33 295.003 40.9093 295.36 40.3819 295.62C39.8585 295.879 39.2438 296.009 38.5382 296.009ZM47.6676 296.009C46.8029 296.009 46.0584 295.814 45.4341 295.422C44.8137 295.027 44.3367 294.482 44.0033 293.787C43.6698 293.094 43.503 292.299 43.503 291.403C43.503 290.495 43.6737 289.695 44.0149 289.001C44.3561 288.303 44.8369 287.758 45.4574 287.367C46.0778 286.974 46.8087 286.779 47.6502 286.779C48.3287 286.779 48.9336 286.904 49.4649 287.156C49.9961 287.405 50.4246 287.754 50.7503 288.204C51.0799 288.653 51.2758 289.179 51.3377 289.78H49.6452C49.5521 289.361 49.3388 289.001 49.0054 288.698C48.6758 288.396 48.2337 288.245 47.6792 288.245C47.1945 288.245 46.77 288.372 46.4054 288.629C46.0448 288.881 45.7636 289.241 45.562 289.711C45.3604 290.176 45.2596 290.726 45.2596 291.362C45.2596 292.014 45.3584 292.576 45.5562 293.049C45.754 293.522 46.0332 293.888 46.3938 294.149C46.7583 294.408 47.1867 294.538 47.6792 294.538C48.0089 294.538 48.3074 294.478 48.5749 294.358C48.8464 294.233 49.0732 294.058 49.2555 293.828C49.4416 293.6 49.5715 293.324 49.6452 293.002H51.3377C51.2758 293.58 51.0877 294.096 50.7736 294.55C50.4595 295.003 50.0388 295.36 49.5114 295.62C48.988 295.879 48.3733 296.009 47.6676 296.009ZM56.8843 296.009C56.0041 296.009 55.246 295.821 54.61 295.445C53.978 295.066 53.4894 294.532 53.1443 293.845C52.803 293.156 52.6324 292.347 52.6324 291.42C52.6324 290.505 52.803 289.699 53.1443 289.001C53.4894 288.303 53.9702 287.758 54.5868 287.367C55.2072 286.974 55.9324 286.779 56.7621 286.779C57.2663 286.779 57.7548 286.862 58.2279 287.029C58.701 287.196 59.1256 287.458 59.5016 287.814C59.8778 288.171 60.1745 288.634 60.3916 289.204C60.6088 289.771 60.7173 290.459 60.7173 291.269V291.885H53.6154V290.582H59.0131C59.0131 290.126 58.92 289.72 58.7339 289.367C58.5478 289.01 58.286 288.729 57.9487 288.524C57.6152 288.318 57.2236 288.216 56.7738 288.216C56.2851 288.216 55.8587 288.336 55.4941 288.576C55.1335 288.813 54.8543 289.123 54.6566 289.507C54.4627 289.886 54.3658 290.299 54.3658 290.745V291.763C54.3658 292.36 54.4704 292.868 54.6798 293.288C54.8931 293.706 55.1898 294.026 55.5697 294.247C55.9497 294.464 56.3938 294.573 56.9017 294.573C57.2313 294.573 57.5319 294.526 57.8033 294.433C58.0747 294.336 58.3093 294.193 58.5071 294.003C58.7048 293.813 58.856 293.578 58.9608 293.299L60.6068 293.595C60.475 294.08 60.2384 294.505 59.8972 294.869C59.5599 295.23 59.1352 295.512 58.6234 295.713C58.1154 295.91 57.5357 296.009 56.8843 296.009ZM64.2223 283.917V295.829H62.4831V283.917H64.2223ZM70.2486 296.009C69.3684 296.009 68.6104 295.821 67.9744 295.445C67.3423 295.066 66.8538 294.532 66.5086 293.845C66.1674 293.156 65.9968 292.347 65.9968 291.42C65.9968 290.505 66.1674 289.699 66.5086 289.001C66.8538 288.303 67.3346 287.758 67.9511 287.367C68.5716 286.974 69.2966 286.779 70.1265 286.779C70.6305 286.779 71.1192 286.862 71.5923 287.029C72.0654 287.196 72.4899 287.458 72.866 287.814C73.2422 288.171 73.5388 288.634 73.756 289.204C73.9731 289.771 74.0817 290.459 74.0817 291.269V291.885H66.9798V290.582H72.3775C72.3775 290.126 72.2844 289.72 72.0983 289.367C71.9121 289.01 71.6504 288.729 71.313 288.524C70.9796 288.318 70.588 288.216 70.1382 288.216C69.6495 288.216 69.223 288.336 68.8585 288.576C68.4979 288.813 68.2187 289.123 68.0209 289.507C67.8271 289.886 67.7301 290.299 67.7301 290.745V291.763C67.7301 292.36 67.8348 292.868 68.0442 293.288C68.2575 293.706 68.5541 294.026 68.9341 294.247C69.3141 294.464 69.7581 294.573 70.2661 294.573C70.5957 294.573 70.8962 294.526 71.1676 294.433C71.439 294.336 71.6737 294.193 71.8714 294.003C72.0692 293.813 72.2204 293.578 72.3251 293.299L73.9712 293.595C73.8393 294.08 73.6028 294.505 73.2616 294.869C72.9242 295.23 72.4996 295.512 71.9877 295.713C71.4798 295.91 70.9001 296.009 70.2486 296.009ZM75.8475 295.829V286.895H77.5284V288.314H77.6215C77.7844 287.833 78.0713 287.456 78.4823 287.18C78.8973 286.901 79.3664 286.761 79.8899 286.761C79.9985 286.761 80.1264 286.765 80.2738 286.773C80.4251 286.781 80.5433 286.791 80.6286 286.802V288.466C80.5588 288.446 80.4347 288.425 80.2564 288.401C80.078 288.375 79.8996 288.361 79.7212 288.361C79.3102 288.361 78.9438 288.448 78.6219 288.622C78.304 288.793 78.0519 289.032 77.8658 289.338C77.6797 289.641 77.5866 289.985 77.5866 290.373V295.829H75.8475ZM84.49 296.027C83.924 296.027 83.4117 295.922 82.954 295.713C82.4967 295.5 82.1342 295.191 81.8666 294.788C81.6029 294.385 81.4711 293.89 81.4711 293.305C81.4711 292.801 81.568 292.386 81.7619 292.06C81.9558 291.734 82.2175 291.477 82.5473 291.287C82.8767 291.097 83.2452 290.953 83.652 290.856C84.0596 290.759 84.4746 290.685 84.8968 290.635C85.4318 290.573 85.8668 290.522 86.1998 290.484C86.5338 290.441 86.7758 290.373 86.9269 290.28C87.0779 290.187 87.1535 290.036 87.1535 289.826V289.786C87.1535 289.278 87.0106 288.884 86.723 288.605C86.4401 288.326 86.0178 288.187 85.4555 288.187C84.8695 288.187 84.4081 288.317 84.0714 288.576C83.7375 288.832 83.5073 289.117 83.379 289.431L81.7444 289.059C81.9383 288.516 82.2214 288.078 82.5937 287.744C82.9695 287.407 83.4017 287.163 83.8904 287.012C84.379 286.856 84.8931 286.779 85.4318 286.779C85.7885 286.779 86.1671 286.822 86.5665 286.907C86.9697 286.988 87.3455 287.139 87.6949 287.36C88.0479 287.581 88.3364 287.897 88.5611 288.308C88.7859 288.716 88.8987 289.245 88.8987 289.896V295.829H87.1999V294.608H87.1307C87.0179 294.833 86.8495 295.054 86.6248 295.27C86.3991 295.488 86.1106 295.668 85.7576 295.812C85.4045 295.955 84.9823 296.027 84.49 296.027ZM84.8677 294.631C85.349 294.631 85.7594 294.536 86.1006 294.346C86.4464 294.156 86.7076 293.907 86.8859 293.602C87.0688 293.291 87.1598 292.96 87.1598 292.607V291.455C87.0979 291.517 86.9769 291.575 86.7986 291.63C86.6248 291.68 86.4246 291.724 86.1998 291.763C85.9751 291.798 85.7558 291.832 85.5428 291.863C85.329 291.889 85.1506 291.913 85.0078 291.932C84.6702 291.975 84.3617 292.046 84.0824 292.147C83.8076 292.248 83.5864 292.393 83.4199 292.583C83.257 292.77 83.1751 293.018 83.1751 293.328C83.1751 293.758 83.3344 294.084 83.652 294.305C83.9704 294.522 84.3754 294.631 84.8677 294.631ZM95.222 286.895V288.291H90.3419V286.895H95.222ZM91.6504 284.755H93.3894V293.206C93.3894 293.543 93.4403 293.797 93.5404 293.968C93.6414 294.135 93.7715 294.249 93.9308 294.311C94.0937 294.37 94.2702 294.399 94.4595 294.399C94.5996 294.399 94.7215 294.389 94.8262 294.37C94.9308 294.35 95.0127 294.334 95.07 294.322L95.3849 295.759C95.2839 295.798 95.1401 295.837 94.9545 295.876C94.7679 295.918 94.535 295.942 94.2565 295.946C93.7988 295.953 93.3721 295.872 92.9762 295.701C92.5813 295.531 92.261 295.267 92.0171 294.91C91.7724 294.553 91.6504 294.106 91.6504 293.566V284.755ZM100.736 296.009C99.8564 296.009 99.0975 295.821 98.4623 295.445C97.8299 295.066 97.3413 294.532 96.9964 293.845C96.6552 293.156 96.4841 292.347 96.4841 291.42C96.4841 290.505 96.6552 289.699 96.9964 289.001C97.3413 288.303 97.8217 287.758 98.4387 287.367C99.0593 286.974 99.7845 286.779 100.614 286.779C101.118 286.779 101.607 286.862 102.079 287.029C102.553 287.196 102.978 287.458 103.353 287.814C103.73 288.171 104.027 288.634 104.243 289.204C104.461 289.771 104.569 290.459 104.569 291.269V291.885H97.4678V290.582H102.865C102.865 290.126 102.772 289.72 102.586 289.367C102.4 289.01 102.138 288.729 101.801 288.524C101.467 288.318 101.076 288.216 100.625 288.216C100.138 288.216 99.7108 288.336 99.3459 288.576C98.9856 288.813 98.7062 289.123 98.5087 289.507C98.3149 289.886 98.2176 290.299 98.2176 290.745V291.763C98.2176 292.36 98.3222 292.868 98.5315 293.288C98.7453 293.706 99.042 294.026 99.4214 294.247C99.8018 294.464 100.246 294.573 100.754 294.573C101.083 294.573 101.384 294.526 101.655 294.433C101.927 294.336 102.161 294.193 102.359 294.003C102.557 293.813 102.708 293.578 102.813 293.299L104.459 293.595C104.327 294.08 104.09 294.505 103.749 294.869C103.412 295.23 102.988 295.512 102.475 295.713C101.967 295.91 101.388 296.009 100.736 296.009ZM111.606 299.18C111.345 299.18 111.109 299.158 110.896 299.116C110.682 299.077 110.524 299.034 110.419 298.988L110.838 297.563C111.155 297.648 111.438 297.685 111.687 297.673C111.935 297.661 112.154 297.568 112.344 297.393C112.537 297.22 112.709 296.934 112.856 296.539L113.071 295.946L109.802 286.895H111.664L113.926 293.828H114.019L116.282 286.895H118.149L114.467 297.021C114.296 297.487 114.079 297.88 113.816 298.202C113.552 298.528 113.238 298.772 112.873 298.935C112.508 299.098 112.086 299.18 111.606 299.18ZM123.078 296.009C122.241 296.009 121.511 295.817 120.886 295.433C120.262 295.049 119.777 294.512 119.432 293.823C119.086 293.132 118.914 292.326 118.914 291.403C118.914 290.476 119.086 289.666 119.432 288.972C119.777 288.277 120.262 287.739 120.886 287.355C121.511 286.971 122.241 286.779 123.078 286.779C123.916 286.779 124.647 286.971 125.271 287.355C125.896 287.739 126.381 288.277 126.725 288.972C127.071 289.666 127.243 290.476 127.243 291.403C127.243 292.326 127.071 293.132 126.725 293.823C126.381 294.512 125.896 295.049 125.271 295.433C124.647 295.817 123.916 296.009 123.078 296.009ZM123.085 294.55C123.627 294.55 124.077 294.406 124.434 294.119C124.791 293.832 125.055 293.451 125.225 292.974C125.4 292.496 125.487 291.971 125.487 291.397C125.487 290.827 125.4 290.304 125.225 289.826C125.055 289.346 124.791 288.96 124.434 288.669C124.077 288.378 123.627 288.233 123.085 288.233C122.538 288.233 122.084 288.378 121.723 288.669C121.367 288.96 121.101 289.346 120.926 289.826C120.756 290.304 120.671 290.827 120.671 291.397C120.671 291.971 120.756 292.496 120.926 292.974C121.101 293.451 121.367 293.832 121.723 294.119C122.084 294.406 122.538 294.55 123.085 294.55ZM134.68 292.124V286.895H136.426V295.829H134.715V294.282H134.622C134.416 294.759 134.087 295.157 133.633 295.474C133.183 295.788 132.623 295.946 131.952 295.946C131.378 295.946 130.87 295.819 130.428 295.567C129.99 295.311 129.645 294.934 129.393 294.433C129.145 293.933 129.021 293.315 129.021 292.578V286.895H130.76V292.369C130.76 292.977 130.929 293.461 131.266 293.823C131.604 294.183 132.041 294.363 132.58 294.363C132.906 294.363 133.23 294.282 133.552 294.119C133.878 293.956 134.147 293.71 134.36 293.381C134.577 293.051 134.684 292.632 134.68 292.124ZM138.598 295.829V286.895H140.279V288.314H140.372C140.535 287.833 140.822 287.456 141.233 287.18C141.648 286.901 142.117 286.761 142.641 286.761C142.749 286.761 142.877 286.765 143.025 286.773C143.176 286.781 143.294 286.791 143.379 286.802V288.466C143.309 288.446 143.186 288.425 143.007 288.401C142.829 288.375 142.651 288.361 142.472 288.361C142.061 288.361 141.694 288.448 141.373 288.622C141.054 288.793 140.802 289.032 140.617 289.338C140.43 289.641 140.337 289.985 140.337 290.373V295.829H138.598ZM148.891 299.18V286.895H150.59V288.343H150.735C150.836 288.157 150.981 287.942 151.171 287.698C151.361 287.453 151.625 287.24 151.962 287.058C152.3 286.872 152.746 286.779 153.301 286.779C154.021 286.779 154.666 286.961 155.232 287.326C155.798 287.69 156.242 288.216 156.564 288.902C156.889 289.588 157.052 290.414 157.052 291.379C157.052 292.345 156.891 293.173 156.569 293.863C156.247 294.55 155.805 295.078 155.243 295.452C154.681 295.819 154.039 296.004 153.318 296.004C152.775 296.004 152.331 295.913 151.986 295.73C151.644 295.548 151.377 295.335 151.183 295.09C150.989 294.846 150.84 294.629 150.735 294.439H150.631V299.18H148.891ZM150.595 291.362C150.595 291.99 150.686 292.541 150.869 293.014C151.051 293.487 151.315 293.857 151.66 294.125C152.005 294.389 152.428 294.521 152.928 294.521C153.448 294.521 153.882 294.383 154.231 294.108C154.58 293.828 154.844 293.451 155.022 292.974C155.204 292.496 155.295 291.959 155.295 291.362C155.295 290.773 155.206 290.244 155.028 289.774C154.853 289.305 154.59 288.934 154.237 288.663C153.888 288.392 153.452 288.257 152.928 288.257C152.424 288.257 151.998 288.386 151.648 288.646C151.303 288.905 151.041 289.268 150.863 289.733C150.684 290.198 150.595 290.742 150.595 291.362ZM158.837 295.829V286.895H160.517V288.314H160.61C160.773 287.833 161.061 287.456 161.471 287.18C161.886 286.901 162.356 286.761 162.879 286.761C162.988 286.761 163.115 286.765 163.263 286.773C163.414 286.781 163.532 286.791 163.618 286.802V288.466C163.548 288.446 163.424 288.425 163.245 288.401C163.067 288.375 162.889 288.361 162.71 288.361C162.299 288.361 161.933 288.448 161.611 288.622C161.293 288.793 161.041 289.032 160.855 289.338C160.668 289.641 160.576 289.985 160.576 290.373V295.829H158.837ZM168.402 296.009C167.565 296.009 166.833 295.817 166.209 295.433C165.585 295.049 165.101 294.512 164.755 293.823C164.41 293.132 164.237 292.326 164.237 291.403C164.237 290.476 164.41 289.666 164.755 288.972C165.101 288.277 165.585 287.739 166.209 287.355C166.833 286.971 167.565 286.779 168.402 286.779C169.24 286.779 169.971 286.971 170.595 287.355C171.219 287.739 171.704 288.277 172.049 288.972C172.394 289.666 172.567 290.476 172.567 291.403C172.567 292.326 172.394 293.132 172.049 293.823C171.704 294.512 171.219 295.049 170.595 295.433C169.971 295.817 169.24 296.009 168.402 296.009ZM168.409 294.55C168.951 294.55 169.4 294.406 169.757 294.119C170.115 293.832 170.378 293.451 170.549 292.974C170.723 292.496 170.81 291.971 170.81 291.397C170.81 290.827 170.723 290.304 170.549 289.826C170.378 289.346 170.115 288.96 169.757 288.669C169.4 288.378 168.951 288.233 168.409 288.233C167.862 288.233 167.408 288.378 167.047 288.669C166.691 288.96 166.425 289.346 166.25 289.826C166.08 290.304 165.994 290.827 165.994 291.397C165.994 291.971 166.08 292.496 166.25 292.974C166.425 293.451 166.691 293.832 167.047 294.119C167.408 294.406 167.862 294.55 168.409 294.55ZM177.689 296.004C176.968 296.004 176.324 295.819 175.757 295.452C175.196 295.078 174.754 294.55 174.432 293.863C174.114 293.173 173.955 292.345 173.955 291.379C173.955 290.414 174.116 289.588 174.437 288.902C174.763 288.216 175.209 287.69 175.775 287.326C176.341 286.961 176.983 286.779 177.7 286.779C178.255 286.779 178.701 286.872 179.039 287.058C179.38 287.24 179.643 287.453 179.829 287.698C180.02 287.942 180.167 288.157 180.272 288.343H180.376V283.917H182.115V295.829H180.417V294.439H180.272C180.167 294.629 180.015 294.846 179.818 295.09C179.624 295.335 179.356 295.548 179.015 295.73C178.674 295.913 178.231 296.004 177.689 296.004ZM178.073 294.521C178.573 294.521 178.996 294.389 179.341 294.125C179.689 293.857 179.953 293.487 180.131 293.014C180.314 292.541 180.405 291.99 180.405 291.362C180.405 290.742 180.316 290.198 180.138 289.733C179.959 289.268 179.697 288.905 179.353 288.646C179.007 288.386 178.581 288.257 178.073 288.257C177.549 288.257 177.113 288.392 176.764 288.663C176.415 288.934 176.151 289.305 175.973 289.774C175.798 290.244 175.711 290.773 175.711 291.362C175.711 291.959 175.8 292.496 175.978 292.974C176.157 293.451 176.421 293.828 176.77 294.108C177.122 294.383 177.557 294.521 178.073 294.521ZM190.093 292.124V286.895H191.838V295.829H190.128V294.282H190.034C189.829 294.759 189.499 295.157 189.046 295.474C188.596 295.788 188.036 295.946 187.365 295.946C186.791 295.946 186.283 295.819 185.841 295.567C185.403 295.311 185.058 294.934 184.806 294.433C184.557 293.933 184.434 293.315 184.434 292.578V286.895H186.173V292.369C186.173 292.977 186.341 293.461 186.679 293.823C187.016 294.183 187.454 294.363 187.993 294.363C188.319 294.363 188.642 294.282 188.964 294.119C189.29 293.956 189.559 293.71 189.773 293.381C189.99 293.051 190.097 292.632 190.093 292.124ZM197.775 296.009C196.909 296.009 196.165 295.814 195.541 295.422C194.92 295.027 194.443 294.482 194.11 293.787C193.776 293.094 193.61 292.299 193.61 291.403C193.61 290.495 193.78 289.695 194.121 289.001C194.462 288.303 194.944 287.758 195.564 287.367C196.184 286.974 196.916 286.779 197.756 286.779C198.435 286.779 199.04 286.904 199.572 287.156C200.102 287.405 200.531 287.754 200.857 288.204C201.187 288.653 201.382 289.179 201.444 289.78H199.752C199.659 289.361 199.445 289.001 199.112 288.698C198.782 288.396 198.34 288.245 197.785 288.245C197.301 288.245 196.876 288.372 196.512 288.629C196.151 288.881 195.87 289.241 195.669 289.711C195.467 290.176 195.366 290.726 195.366 291.362C195.366 292.014 195.465 292.576 195.663 293.049C195.861 293.522 196.139 293.888 196.501 294.149C196.865 294.408 197.293 294.538 197.785 294.538C198.116 294.538 198.414 294.478 198.682 294.358C198.953 294.233 199.179 294.058 199.362 293.828C199.548 293.6 199.678 293.324 199.752 293.002H201.444C201.382 293.58 201.194 294.096 200.88 294.55C200.566 295.003 200.145 295.36 199.618 295.62C199.095 295.879 198.48 296.009 197.775 296.009ZM207.311 286.895V288.291H202.431V286.895H207.311ZM203.739 284.755H205.478V293.206C205.478 293.543 205.529 293.797 205.63 293.968C205.73 294.135 205.86 294.249 206.02 294.311C206.182 294.37 206.359 294.399 206.548 294.399C206.688 294.399 206.81 294.389 206.915 294.37C207.02 294.35 207.102 294.334 207.16 294.322L207.474 295.759C207.373 295.798 207.229 295.837 207.043 295.876C206.857 295.918 206.625 295.942 206.345 295.946C205.888 295.953 205.461 295.872 205.066 295.701C204.67 295.531 204.35 295.267 204.106 294.91C203.861 294.553 203.739 294.106 203.739 293.566V284.755Z" fill="white"/>
<path d="M24.7599 295.829H22.8521L27.1388 283.917H29.2153L33.502 295.829H31.5942L28.2265 286.081H28.1334L24.7599 295.829ZM25.0798 291.165H31.2685V292.677H25.0798V291.165ZM38.5382 296.009C37.6734 296.009 36.9289 295.814 36.3046 295.422C35.6842 295.027 35.2073 294.482 34.8738 293.787C34.5403 293.094 34.3736 292.299 34.3736 291.403C34.3736 290.495 34.5442 289.695 34.8854 289.001C35.2267 288.303 35.7075 287.758 36.3279 287.367C36.9483 286.974 37.6793 286.779 38.5207 286.779C39.1992 286.779 39.8042 286.904 40.3354 287.156C40.8666 287.405 41.2951 287.754 41.6209 288.204C41.9505 288.653 42.1463 289.179 42.2083 289.78H40.5158C40.4227 289.361 40.2094 289.001 39.8759 288.698C39.5463 288.396 39.1043 288.245 38.5498 288.245C38.0651 288.245 37.6405 288.372 37.276 288.629C36.9154 288.881 36.6342 289.241 36.4325 289.711C36.231 290.176 36.1302 290.726 36.1302 291.362C36.1302 292.014 36.229 292.576 36.4268 293.049C36.6245 293.522 36.9037 293.888 37.2643 294.149C37.6289 294.408 38.0574 294.538 38.5498 294.538C38.8794 294.538 39.178 294.478 39.4455 294.358C39.7169 294.233 39.9438 294.058 40.126 293.828C40.3121 293.6 40.4421 293.324 40.5158 293.002H42.2083C42.1463 293.58 41.9582 294.096 41.6441 294.55C41.33 295.003 40.9093 295.36 40.3819 295.62C39.8585 295.879 39.2438 296.009 38.5382 296.009ZM47.6676 296.009C46.8029 296.009 46.0584 295.814 45.4341 295.422C44.8137 295.027 44.3367 294.482 44.0033 293.787C43.6698 293.094 43.503 292.299 43.503 291.403C43.503 290.495 43.6737 289.695 44.0149 289.001C44.3561 288.303 44.8369 287.758 45.4574 287.367C46.0778 286.974 46.8087 286.779 47.6502 286.779C48.3287 286.779 48.9336 286.904 49.4649 287.156C49.9961 287.405 50.4246 287.754 50.7503 288.204C51.0799 288.653 51.2758 289.179 51.3377 289.78H49.6452C49.5521 289.361 49.3388 289.001 49.0054 288.698C48.6758 288.396 48.2337 288.245 47.6792 288.245C47.1945 288.245 46.77 288.372 46.4054 288.629C46.0448 288.881 45.7636 289.241 45.562 289.711C45.3604 290.176 45.2596 290.726 45.2596 291.362C45.2596 292.014 45.3584 292.576 45.5562 293.049C45.754 293.522 46.0332 293.888 46.3938 294.149C46.7583 294.408 47.1867 294.538 47.6792 294.538C48.0089 294.538 48.3074 294.478 48.5749 294.358C48.8464 294.233 49.0732 294.058 49.2555 293.828C49.4416 293.6 49.5715 293.324 49.6452 293.002H51.3377C51.2758 293.58 51.0877 294.096 50.7736 294.55C50.4595 295.003 50.0388 295.36 49.5114 295.62C48.988 295.879 48.3733 296.009 47.6676 296.009ZM56.8843 296.009C56.0041 296.009 55.246 295.821 54.61 295.445C53.978 295.066 53.4894 294.532 53.1443 293.845C52.803 293.156 52.6324 292.347 52.6324 291.42C52.6324 290.505 52.803 289.699 53.1443 289.001C53.4894 288.303 53.9702 287.758 54.5868 287.367C55.2072 286.974 55.9324 286.779 56.7621 286.779C57.2663 286.779 57.7548 286.862 58.2279 287.029C58.701 287.196 59.1256 287.458 59.5016 287.814C59.8778 288.171 60.1745 288.634 60.3916 289.204C60.6088 289.771 60.7173 290.459 60.7173 291.269V291.885H53.6154V290.582H59.0131C59.0131 290.126 58.92 289.72 58.7339 289.367C58.5478 289.01 58.286 288.729 57.9487 288.524C57.6152 288.318 57.2236 288.216 56.7738 288.216C56.2851 288.216 55.8587 288.336 55.4941 288.576C55.1335 288.813 54.8543 289.123 54.6566 289.507C54.4627 289.886 54.3658 290.299 54.3658 290.745V291.763C54.3658 292.36 54.4704 292.868 54.6798 293.288C54.8931 293.706 55.1898 294.026 55.5697 294.247C55.9497 294.464 56.3938 294.573 56.9017 294.573C57.2313 294.573 57.5319 294.526 57.8033 294.433C58.0747 294.336 58.3093 294.193 58.5071 294.003C58.7048 293.813 58.856 293.578 58.9608 293.299L60.6068 293.595C60.475 294.08 60.2384 294.505 59.8972 294.869C59.5599 295.23 59.1352 295.512 58.6234 295.713C58.1154 295.91 57.5357 296.009 56.8843 296.009ZM64.2223 283.917V295.829H62.4831V283.917H64.2223ZM70.2486 296.009C69.3684 296.009 68.6104 295.821 67.9744 295.445C67.3423 295.066 66.8538 294.532 66.5086 293.845C66.1674 293.156 65.9968 292.347 65.9968 291.42C65.9968 290.505 66.1674 289.699 66.5086 289.001C66.8538 288.303 67.3346 287.758 67.9511 287.367C68.5716 286.974 69.2966 286.779 70.1265 286.779C70.6305 286.779 71.1192 286.862 71.5923 287.029C72.0654 287.196 72.4899 287.458 72.866 287.814C73.2422 288.171 73.5388 288.634 73.756 289.204C73.9731 289.771 74.0817 290.459 74.0817 291.269V291.885H66.9798V290.582H72.3775C72.3775 290.126 72.2844 289.72 72.0983 289.367C71.9121 289.01 71.6504 288.729 71.313 288.524C70.9796 288.318 70.588 288.216 70.1382 288.216C69.6495 288.216 69.223 288.336 68.8585 288.576C68.4979 288.813 68.2187 289.123 68.0209 289.507C67.8271 289.886 67.7301 290.299 67.7301 290.745V291.763C67.7301 292.36 67.8348 292.868 68.0442 293.288C68.2575 293.706 68.5541 294.026 68.9341 294.247C69.3141 294.464 69.7581 294.573 70.2661 294.573C70.5957 294.573 70.8962 294.526 71.1676 294.433C71.439 294.336 71.6737 294.193 71.8714 294.003C72.0692 293.813 72.2204 293.578 72.3251 293.299L73.9712 293.595C73.8393 294.08 73.6028 294.505 73.2616 294.869C72.9242 295.23 72.4996 295.512 71.9877 295.713C71.4798 295.91 70.9001 296.009 70.2486 296.009ZM75.8475 295.829V286.895H77.5284V288.314H77.6215C77.7844 287.833 78.0713 287.456 78.4823 287.18C78.8973 286.901 79.3664 286.761 79.8899 286.761C79.9985 286.761 80.1264 286.765 80.2738 286.773C80.4251 286.781 80.5433 286.791 80.6286 286.802V288.466C80.5588 288.446 80.4347 288.425 80.2564 288.401C80.078 288.375 79.8996 288.361 79.7212 288.361C79.3102 288.361 78.9438 288.448 78.6219 288.622C78.304 288.793 78.0519 289.032 77.8658 289.338C77.6797 289.641 77.5866 289.985 77.5866 290.373V295.829H75.8475ZM84.49 296.027C83.924 296.027 83.4117 295.922 82.954 295.713C82.4967 295.5 82.1342 295.191 81.8666 294.788C81.6029 294.385 81.4711 293.89 81.4711 293.305C81.4711 292.801 81.568 292.386 81.7619 292.06C81.9558 291.734 82.2175 291.477 82.5473 291.287C82.8767 291.097 83.2452 290.953 83.652 290.856C84.0596 290.759 84.4746 290.685 84.8968 290.635C85.4318 290.573 85.8668 290.522 86.1998 290.484C86.5338 290.441 86.7758 290.373 86.9269 290.28C87.0779 290.187 87.1535 290.036 87.1535 289.826V289.786C87.1535 289.278 87.0106 288.884 86.723 288.605C86.4401 288.326 86.0178 288.187 85.4555 288.187C84.8695 288.187 84.4081 288.317 84.0714 288.576C83.7375 288.832 83.5073 289.117 83.379 289.431L81.7444 289.059C81.9383 288.516 82.2214 288.078 82.5937 287.744C82.9695 287.407 83.4017 287.163 83.8904 287.012C84.379 286.856 84.8931 286.779 85.4318 286.779C85.7885 286.779 86.1671 286.822 86.5665 286.907C86.9697 286.988 87.3455 287.139 87.6949 287.36C88.0479 287.581 88.3364 287.897 88.5611 288.308C88.7859 288.716 88.8987 289.245 88.8987 289.896V295.829H87.1999V294.608H87.1307C87.0179 294.833 86.8495 295.054 86.6248 295.27C86.3991 295.488 86.1106 295.668 85.7576 295.812C85.4045 295.955 84.9823 296.027 84.49 296.027ZM84.8677 294.631C85.349 294.631 85.7594 294.536 86.1006 294.346C86.4464 294.156 86.7076 293.907 86.8859 293.602C87.0688 293.291 87.1598 292.96 87.1598 292.607V291.455C87.0979 291.517 86.9769 291.575 86.7986 291.63C86.6248 291.68 86.4246 291.724 86.1998 291.763C85.9751 291.798 85.7558 291.832 85.5428 291.863C85.329 291.889 85.1506 291.913 85.0078 291.932C84.6702 291.975 84.3617 292.046 84.0824 292.147C83.8076 292.248 83.5864 292.393 83.4199 292.583C83.257 292.77 83.1751 293.018 83.1751 293.328C83.1751 293.758 83.3344 294.084 83.652 294.305C83.9704 294.522 84.3754 294.631 84.8677 294.631ZM95.222 286.895V288.291H90.3419V286.895H95.222ZM91.6504 284.755H93.3894V293.206C93.3894 293.543 93.4403 293.797 93.5404 293.968C93.6414 294.135 93.7715 294.249 93.9308 294.311C94.0937 294.37 94.2702 294.399 94.4595 294.399C94.5996 294.399 94.7215 294.389 94.8262 294.37C94.9308 294.35 95.0127 294.334 95.07 294.322L95.3849 295.759C95.2839 295.798 95.1401 295.837 94.9545 295.876C94.7679 295.918 94.535 295.942 94.2565 295.946C93.7988 295.953 93.3721 295.872 92.9762 295.701C92.5813 295.531 92.261 295.267 92.0171 294.91C91.7724 294.553 91.6504 294.106 91.6504 293.566V284.755ZM100.736 296.009C99.8564 296.009 99.0975 295.821 98.4623 295.445C97.8299 295.066 97.3413 294.532 96.9964 293.845C96.6552 293.156 96.4841 292.347 96.4841 291.42C96.4841 290.505 96.6552 289.699 96.9964 289.001C97.3413 288.303 97.8217 287.758 98.4387 287.367C99.0593 286.974 99.7845 286.779 100.614 286.779C101.118 286.779 101.607 286.862 102.079 287.029C102.553 287.196 102.978 287.458 103.353 287.814C103.73 288.171 104.027 288.634 104.243 289.204C104.461 289.771 104.569 290.459 104.569 291.269V291.885H97.4678V290.582H102.865C102.865 290.126 102.772 289.72 102.586 289.367C102.4 289.01 102.138 288.729 101.801 288.524C101.467 288.318 101.076 288.216 100.625 288.216C100.138 288.216 99.7108 288.336 99.3459 288.576C98.9856 288.813 98.7062 289.123 98.5087 289.507C98.3149 289.886 98.2176 290.299 98.2176 290.745V291.763C98.2176 292.36 98.3222 292.868 98.5315 293.288C98.7453 293.706 99.042 294.026 99.4214 294.247C99.8018 294.464 100.246 294.573 100.754 294.573C101.083 294.573 101.384 294.526 101.655 294.433C101.927 294.336 102.161 294.193 102.359 294.003C102.557 293.813 102.708 293.578 102.813 293.299L104.459 293.595C104.327 294.08 104.09 294.505 103.749 294.869C103.412 295.23 102.988 295.512 102.475 295.713C101.967 295.91 101.388 296.009 100.736 296.009ZM111.606 299.18C111.345 299.18 111.109 299.158 110.896 299.116C110.682 299.077 110.524 299.034 110.419 298.988L110.838 297.563C111.155 297.648 111.438 297.685 111.687 297.673C111.935 297.661 112.154 297.568 112.344 297.393C112.537 297.22 112.709 296.934 112.856 296.539L113.071 295.946L109.802 286.895H111.664L113.926 293.828H114.019L116.282 286.895H118.149L114.467 297.021C114.296 297.487 114.079 297.88 113.816 298.202C113.552 298.528 113.238 298.772 112.873 298.935C112.508 299.098 112.086 299.18 111.606 299.18ZM123.078 296.009C122.241 296.009 121.511 295.817 120.886 295.433C120.262 295.049 119.777 294.512 119.432 293.823C119.086 293.132 118.914 292.326 118.914 291.403C118.914 290.476 119.086 289.666 119.432 288.972C119.777 288.277 120.262 287.739 120.886 287.355C121.511 286.971 122.241 286.779 123.078 286.779C123.916 286.779 124.647 286.971 125.271 287.355C125.896 287.739 126.381 288.277 126.725 288.972C127.071 289.666 127.243 290.476 127.243 291.403C127.243 292.326 127.071 293.132 126.725 293.823C126.381 294.512 125.896 295.049 125.271 295.433C124.647 295.817 123.916 296.009 123.078 296.009ZM123.085 294.55C123.627 294.55 124.077 294.406 124.434 294.119C124.791 293.832 125.055 293.451 125.225 292.974C125.4 292.496 125.487 291.971 125.487 291.397C125.487 290.827 125.4 290.304 125.225 289.826C125.055 289.346 124.791 288.96 124.434 288.669C124.077 288.378 123.627 288.233 123.085 288.233C122.538 288.233 122.084 288.378 121.723 288.669C121.367 288.96 121.101 289.346 120.926 289.826C120.756 290.304 120.671 290.827 120.671 291.397C120.671 291.971 120.756 292.496 120.926 292.974C121.101 293.451 121.367 293.832 121.723 294.119C122.084 294.406 122.538 294.55 123.085 294.55ZM134.68 292.124V286.895H136.426V295.829H134.715V294.282H134.622C134.416 294.759 134.087 295.157 133.633 295.474C133.183 295.788 132.623 295.946 131.952 295.946C131.378 295.946 130.87 295.819 130.428 295.567C129.99 295.311 129.645 294.934 129.393 294.433C129.145 293.933 129.021 293.315 129.021 292.578V286.895H130.76V292.369C130.76 292.977 130.929 293.461 131.266 293.823C131.604 294.183 132.041 294.363 132.58 294.363C132.906 294.363 133.23 294.282 133.552 294.119C133.878 293.956 134.147 293.71 134.36 293.381C134.577 293.051 134.684 292.632 134.68 292.124ZM138.598 295.829V286.895H140.279V288.314H140.372C140.535 287.833 140.822 287.456 141.233 287.18C141.648 286.901 142.117 286.761 142.641 286.761C142.749 286.761 142.877 286.765 143.025 286.773C143.176 286.781 143.294 286.791 143.379 286.802V288.466C143.309 288.446 143.186 288.425 143.007 288.401C142.829 288.375 142.651 288.361 142.472 288.361C142.061 288.361 141.694 288.448 141.373 288.622C141.054 288.793 140.802 289.032 140.617 289.338C140.43 289.641 140.337 289.985 140.337 290.373V295.829H138.598ZM148.891 299.18V286.895H150.59V288.343H150.735C150.836 288.157 150.981 287.942 151.171 287.698C151.361 287.453 151.625 287.24 151.962 287.058C152.3 286.872 152.746 286.779 153.301 286.779C154.021 286.779 154.666 286.961 155.232 287.326C155.798 287.69 156.242 288.216 156.564 288.902C156.889 289.588 157.052 290.414 157.052 291.379C157.052 292.345 156.891 293.173 156.569 293.863C156.247 294.55 155.805 295.078 155.243 295.452C154.681 295.819 154.039 296.004 153.318 296.004C152.775 296.004 152.331 295.913 151.986 295.73C151.644 295.548 151.377 295.335 151.183 295.09C150.989 294.846 150.84 294.629 150.735 294.439H150.631V299.18H148.891ZM150.595 291.362C150.595 291.99 150.686 292.541 150.869 293.014C151.051 293.487 151.315 293.857 151.66 294.125C152.005 294.389 152.428 294.521 152.928 294.521C153.448 294.521 153.882 294.383 154.231 294.108C154.58 293.828 154.844 293.451 155.022 292.974C155.204 292.496 155.295 291.959 155.295 291.362C155.295 290.773 155.206 290.244 155.028 289.774C154.853 289.305 154.59 288.934 154.237 288.663C153.888 288.392 153.452 288.257 152.928 288.257C152.424 288.257 151.998 288.386 151.648 288.646C151.303 288.905 151.041 289.268 150.863 289.733C150.684 290.198 150.595 290.742 150.595 291.362ZM158.837 295.829V286.895H160.517V288.314H160.61C160.773 287.833 161.061 287.456 161.471 287.18C161.886 286.901 162.356 286.761 162.879 286.761C162.988 286.761 163.115 286.765 163.263 286.773C163.414 286.781 163.532 286.791 163.618 286.802V288.466C163.548 288.446 163.424 288.425 163.245 288.401C163.067 288.375 162.889 288.361 162.71 288.361C162.299 288.361 161.933 288.448 161.611 288.622C161.293 288.793 161.041 289.032 160.855 289.338C160.668 289.641 160.576 289.985 160.576 290.373V295.829H158.837ZM168.402 296.009C167.565 296.009 166.833 295.817 166.209 295.433C165.585 295.049 165.101 294.512 164.755 293.823C164.41 293.132 164.237 292.326 164.237 291.403C164.237 290.476 164.41 289.666 164.755 288.972C165.101 288.277 165.585 287.739 166.209 287.355C166.833 286.971 167.565 286.779 168.402 286.779C169.24 286.779 169.971 286.971 170.595 287.355C171.219 287.739 171.704 288.277 172.049 288.972C172.394 289.666 172.567 290.476 172.567 291.403C172.567 292.326 172.394 293.132 172.049 293.823C171.704 294.512 171.219 295.049 170.595 295.433C169.971 295.817 169.24 296.009 168.402 296.009ZM168.409 294.55C168.951 294.55 169.4 294.406 169.757 294.119C170.115 293.832 170.378 293.451 170.549 292.974C170.723 292.496 170.81 291.971 170.81 291.397C170.81 290.827 170.723 290.304 170.549 289.826C170.378 289.346 170.115 288.96 169.757 288.669C169.4 288.378 168.951 288.233 168.409 288.233C167.862 288.233 167.408 288.378 167.047 288.669C166.691 288.96 166.425 289.346 166.25 289.826C166.08 290.304 165.994 290.827 165.994 291.397C165.994 291.971 166.08 292.496 166.25 292.974C166.425 293.451 166.691 293.832 167.047 294.119C167.408 294.406 167.862 294.55 168.409 294.55ZM177.689 296.004C176.968 296.004 176.324 295.819 175.757 295.452C175.196 295.078 174.754 294.55 174.432 293.863C174.114 293.173 173.955 292.345 173.955 291.379C173.955 290.414 174.116 289.588 174.437 288.902C174.763 288.216 175.209 287.69 175.775 287.326C176.341 286.961 176.983 286.779 177.7 286.779C178.255 286.779 178.701 286.872 179.039 287.058C179.38 287.24 179.643 287.453 179.829 287.698C180.02 287.942 180.167 288.157 180.272 288.343H180.376V283.917H182.115V295.829H180.417V294.439H180.272C180.167 294.629 180.015 294.846 179.818 295.09C179.624 295.335 179.356 295.548 179.015 295.73C178.674 295.913 178.231 296.004 177.689 296.004ZM178.073 294.521C178.573 294.521 178.996 294.389 179.341 294.125C179.689 293.857 179.953 293.487 180.131 293.014C180.314 292.541 180.405 291.99 180.405 291.362C180.405 290.742 180.316 290.198 180.138 289.733C179.959 289.268 179.697 288.905 179.353 288.646C179.007 288.386 178.581 288.257 178.073 288.257C177.549 288.257 177.113 288.392 176.764 288.663C176.415 288.934 176.151 289.305 175.973 289.774C175.798 290.244 175.711 290.773 175.711 291.362C175.711 291.959 175.8 292.496 175.978 292.974C176.157 293.451 176.421 293.828 176.77 294.108C177.122 294.383 177.557 294.521 178.073 294.521ZM190.093 292.124V286.895H191.838V295.829H190.128V294.282H190.034C189.829 294.759 189.499 295.157 189.046 295.474C188.596 295.788 188.036 295.946 187.365 295.946C186.791 295.946 186.283 295.819 185.841 295.567C185.403 295.311 185.058 294.934 184.806 294.433C184.557 293.933 184.434 293.315 184.434 292.578V286.895H186.173V292.369C186.173 292.977 186.341 293.461 186.679 293.823C187.016 294.183 187.454 294.363 187.993 294.363C188.319 294.363 188.642 294.282 188.964 294.119C189.29 293.956 189.559 293.71 189.773 293.381C189.99 293.051 190.097 292.632 190.093 292.124ZM197.775 296.009C196.909 296.009 196.165 295.814 195.541 295.422C194.92 295.027 194.443 294.482 194.11 293.787C193.776 293.094 193.61 292.299 193.61 291.403C193.61 290.495 193.78 289.695 194.121 289.001C194.462 288.303 194.944 287.758 195.564 287.367C196.184 286.974 196.916 286.779 197.756 286.779C198.435 286.779 199.04 286.904 199.572 287.156C200.102 287.405 200.531 287.754 200.857 288.204C201.187 288.653 201.382 289.179 201.444 289.78H199.752C199.659 289.361 199.445 289.001 199.112 288.698C198.782 288.396 198.34 288.245 197.785 288.245C197.301 288.245 196.876 288.372 196.512 288.629C196.151 288.881 195.87 289.241 195.669 289.711C195.467 290.176 195.366 290.726 195.366 291.362C195.366 292.014 195.465 292.576 195.663 293.049C195.861 293.522 196.139 293.888 196.501 294.149C196.865 294.408 197.293 294.538 197.785 294.538C198.116 294.538 198.414 294.478 198.682 294.358C198.953 294.233 199.179 294.058 199.362 293.828C199.548 293.6 199.678 293.324 199.752 293.002H201.444C201.382 293.58 201.194 294.096 200.88 294.55C200.566 295.003 200.145 295.36 199.618 295.62C199.095 295.879 198.48 296.009 197.775 296.009ZM207.311 286.895V288.291H202.431V286.895H207.311ZM203.739 284.755H205.478V293.206C205.478 293.543 205.529 293.797 205.63 293.968C205.73 294.135 205.86 294.249 206.02 294.311C206.182 294.37 206.359 294.399 206.548 294.399C206.688 294.399 206.81 294.389 206.915 294.37C207.02 294.35 207.102 294.334 207.16 294.322L207.474 295.759C207.373 295.798 207.229 295.837 207.043 295.876C206.857 295.918 206.625 295.942 206.345 295.946C205.888 295.953 205.461 295.872 205.066 295.701C204.67 295.531 204.35 295.267 204.106 294.91C203.861 294.553 203.739 294.106 203.739 293.566V284.755Z" fill="url(#paint4_linear_1_449)"/>
<path d="M30.417 307.99H32.0197V314.954C32.0197 315.694 31.8456 316.351 31.4976 316.924C31.1494 317.493 30.6599 317.94 30.0292 318.268C29.3984 318.592 28.659 318.754 27.8112 318.754C26.9667 318.754 26.2291 318.592 25.5983 318.268C24.9676 317.94 24.4781 317.493 24.13 316.924C23.7819 316.351 23.6078 315.694 23.6078 314.954V307.99H25.2054V314.825C25.2054 315.304 25.3105 315.729 25.5208 316.101C25.7345 316.474 26.0361 316.766 26.4256 316.98C26.815 317.19 27.2769 317.296 27.8112 317.296C28.3488 317.296 28.8125 317.19 29.2019 316.98C29.5949 316.766 29.8948 316.474 30.1016 316.101C30.3118 315.729 30.417 315.304 30.417 314.825V307.99ZM40.0236 312.575L38.6225 312.824C38.5639 312.644 38.4709 312.474 38.3433 312.312C38.2192 312.15 38.0503 312.017 37.8366 311.914C37.6229 311.81 37.3558 311.759 37.0352 311.759C36.5975 311.759 36.2321 311.857 35.9392 312.054C35.6462 312.247 35.4997 312.496 35.4997 312.803C35.4997 313.068 35.598 313.282 35.7944 313.444C35.9909 313.606 36.308 313.739 36.7457 313.842L38.0073 314.132C38.7379 314.3 39.2826 314.561 39.641 314.913C39.9995 315.264 40.1787 315.721 40.1787 316.282C40.1787 316.758 40.0408 317.182 39.7651 317.554C39.4928 317.923 39.1119 318.212 38.6225 318.423C38.1365 318.634 37.5729 318.738 36.9319 318.738C36.0426 318.738 35.317 318.549 34.7552 318.17C34.1934 317.787 33.8487 317.244 33.7212 316.541L35.2153 316.313C35.3084 316.703 35.4997 316.997 35.7892 317.198C36.0788 317.394 36.4562 317.493 36.9215 317.493C37.4282 317.493 37.8332 317.387 38.1365 317.177C38.4399 316.963 38.5914 316.703 38.5914 316.396C38.5914 316.148 38.4985 315.939 38.3123 315.771C38.1296 315.602 37.8487 315.474 37.4696 315.388L36.1253 315.093C35.3842 314.925 34.8362 314.655 34.4812 314.287C34.1296 313.918 33.9538 313.451 33.9538 312.885C33.9538 312.417 34.0848 312.006 34.3468 311.655C34.6087 311.304 34.9707 311.03 35.4325 310.833C35.8944 310.633 36.4235 310.533 37.0198 310.533C37.878 310.533 38.5536 310.72 39.0464 311.092C39.5393 311.46 39.8651 311.955 40.0236 312.575ZM45.1555 318.738C44.3731 318.738 43.6992 318.571 43.1339 318.237C42.5721 317.899 42.1378 317.425 41.8311 316.815C41.5278 316.201 41.3761 315.482 41.3761 314.659C41.3761 313.845 41.5278 313.128 41.8311 312.509C42.1378 311.888 42.5652 311.404 43.1133 311.055C43.6648 310.707 44.3093 310.533 45.0469 310.533C45.495 310.533 45.9293 310.608 46.3498 310.755C46.7703 310.904 47.1477 311.136 47.482 311.453C47.8165 311.771 48.0801 312.183 48.2731 312.689C48.4662 313.192 48.5626 313.804 48.5626 314.524V315.073H42.2498V313.915H47.0478C47.0478 313.508 46.965 313.147 46.7996 312.834C46.6342 312.517 46.4015 312.267 46.1016 312.085C45.8052 311.902 45.457 311.81 45.0573 311.81C44.623 311.81 44.2438 311.917 43.9199 312.131C43.5993 312.341 43.3511 312.617 43.1753 312.958C43.003 313.296 42.9168 313.663 42.9168 314.059V314.964C42.9168 315.495 43.0099 315.947 43.196 316.319C43.3855 316.691 43.6492 316.976 43.987 317.172C44.3248 317.365 44.7194 317.462 45.171 317.462C45.464 317.462 45.7311 317.42 45.9723 317.337C46.2137 317.251 46.4222 317.124 46.5979 316.955C46.7737 316.785 46.9081 316.577 47.0012 316.329L48.4644 316.593C48.3472 317.024 48.1369 317.401 47.8337 317.725C47.5337 318.046 47.1564 318.295 46.7014 318.474C46.2499 318.651 45.7346 318.738 45.1555 318.738ZM59.7389 310.771C59.6838 310.282 59.4563 309.903 59.0565 309.633C58.6566 309.361 58.1534 309.226 57.5467 309.226C57.1124 309.226 56.7368 309.294 56.4197 309.432C56.1026 309.567 55.8562 309.752 55.6804 309.99C55.508 310.225 55.4218 310.492 55.4218 310.792C55.4218 311.044 55.4804 311.26 55.5976 311.443C55.7182 311.626 55.8751 311.779 56.0681 311.904C56.2645 312.024 56.4748 312.126 56.6989 312.208C56.9229 312.288 57.1383 312.353 57.3451 312.405L58.3792 312.673C58.7169 312.756 59.0634 312.868 59.4183 313.01C59.7734 313.151 60.1025 313.338 60.4059 313.568C60.7092 313.799 60.9539 314.085 61.1401 314.427C61.3296 314.767 61.4244 315.176 61.4244 315.652C61.4244 316.251 61.2693 316.784 60.9591 317.25C60.6523 317.715 60.206 318.082 59.62 318.351C59.0375 318.619 58.3326 318.754 57.5054 318.754C56.7126 318.754 56.0268 318.628 55.4477 318.376C54.8686 318.125 54.4153 317.768 54.0879 317.306C53.7604 316.841 53.5795 316.29 53.5451 315.652H55.1478C55.1788 316.035 55.3029 316.353 55.52 316.608C55.7407 316.86 56.0216 317.048 56.3628 317.172C56.7075 317.292 57.0849 317.352 57.4951 317.352C57.9466 317.352 58.3481 317.282 58.6998 317.14C59.0547 316.996 59.3339 316.796 59.5373 316.541C59.7406 316.282 59.8423 315.981 59.8423 315.636C59.8423 315.322 59.7528 315.066 59.5735 314.865C59.3977 314.666 59.1581 314.501 58.8548 314.37C58.555 314.239 58.2155 314.123 57.8363 314.023L56.5851 313.682C55.7372 313.451 55.065 313.111 54.5688 312.663C54.0758 312.216 53.8294 311.622 53.8294 310.884C53.8294 310.275 53.9948 309.742 54.3257 309.287C54.6567 308.832 55.1047 308.479 55.67 308.227C56.2352 307.973 56.8729 307.845 57.583 307.845C58.2999 307.845 58.9323 307.971 59.4804 308.222C60.0319 308.474 60.4661 308.821 60.7833 309.261C61.1004 309.699 61.2658 310.202 61.2796 310.771H59.7389ZM66.409 318.738C65.6403 318.738 64.9785 318.564 64.4235 318.216C63.8721 317.865 63.4482 317.381 63.1517 316.764C62.8553 316.147 62.7071 315.44 62.7071 314.643C62.7071 313.837 62.8587 313.126 63.1621 312.509C63.4654 311.888 63.8928 311.404 64.4443 311.055C64.9957 310.707 65.6454 310.533 66.3934 310.533C66.9966 310.533 67.5343 310.645 68.0065 310.869C68.4787 311.09 68.8596 311.4 69.1491 311.8C69.4421 312.2 69.6162 312.667 69.6713 313.201H68.1668C68.0841 312.829 67.8945 312.509 67.5981 312.239C67.3051 311.971 66.9122 311.836 66.4192 311.836C65.9884 311.836 65.611 311.95 65.287 312.177C64.9664 312.401 64.7165 312.722 64.5373 313.139C64.3581 313.552 64.2685 314.042 64.2685 314.607C64.2685 315.187 64.3564 315.686 64.5322 316.107C64.7079 316.527 64.9561 316.853 65.2766 317.084C65.6006 317.315 65.9816 317.431 66.4192 317.431C66.7122 317.431 66.9777 317.377 67.2155 317.27C67.4568 317.159 67.6584 317.003 67.8204 316.799C67.9858 316.596 68.1013 316.351 68.1668 316.066H69.6713C69.6162 316.579 69.449 317.038 69.1698 317.441C68.8906 317.844 68.5166 318.161 68.0479 318.392C67.5825 318.623 67.0363 318.738 66.409 318.738ZM74.524 318.738C73.7795 318.738 73.1298 318.568 72.5748 318.227C72.0199 317.886 71.589 317.408 71.2823 316.795C70.9756 316.181 70.8221 315.464 70.8221 314.643C70.8221 313.82 70.9756 313.099 71.2823 312.482C71.589 311.865 72.0199 311.387 72.5748 311.045C73.1298 310.704 73.7795 310.533 74.524 310.533C75.2685 310.533 75.9182 310.704 76.4731 311.045C77.0281 311.387 77.459 311.865 77.7657 312.482C78.0724 313.099 78.2259 313.82 78.2259 314.643C78.2259 315.464 78.0724 316.181 77.7657 316.795C77.459 317.408 77.0281 317.886 76.4731 318.227C75.9182 318.568 75.2685 318.738 74.524 318.738ZM74.5292 317.441C75.0117 317.441 75.4116 317.313 75.7286 317.058C76.0457 316.803 76.2801 316.463 76.4318 316.039C76.5869 315.615 76.6645 315.148 76.6645 314.638C76.6645 314.132 76.5869 313.666 76.4318 313.242C76.2801 312.815 76.0457 312.472 75.7286 312.214C75.4116 311.955 75.0117 311.826 74.5292 311.826C74.0432 311.826 73.6399 311.955 73.3193 312.214C73.0022 312.472 72.7662 312.815 72.611 313.242C72.4593 313.666 72.3835 314.132 72.3835 314.638C72.3835 315.148 72.4593 315.615 72.611 316.039C72.7662 316.463 73.0022 316.803 73.3193 317.058C73.6399 317.313 74.0432 317.441 74.5292 317.441ZM84.8363 315.285V310.637H86.3878V318.578H84.8672V317.203H84.7844C84.6025 317.627 84.3094 317.98 83.9054 318.262C83.506 318.542 83.0082 318.682 82.4116 318.682C81.9014 318.682 81.4499 318.57 81.057 318.345C80.6674 318.118 80.3607 317.782 80.1367 317.337C79.9161 316.893 79.8058 316.343 79.8058 315.688V310.637H81.3516V315.502C81.3516 316.043 81.5016 316.473 81.8015 316.795C82.1014 317.115 82.4908 317.275 82.97 317.275C83.2594 317.275 83.5469 317.203 83.8335 317.058C84.1229 316.913 84.3622 316.694 84.5524 316.401C84.7453 316.108 84.8399 315.736 84.8363 315.285ZM92.0258 310.637V311.877H87.6881V310.637H92.0258ZM88.8519 308.734H90.397V316.247C90.397 316.546 90.4425 316.772 90.5317 316.924C90.6218 317.072 90.7364 317.173 90.8784 317.229C91.0231 317.281 91.1796 317.306 91.3488 317.306C91.4726 317.306 91.5818 317.298 91.6746 317.28C91.7674 317.263 91.8402 317.25 91.8912 317.239L92.1705 318.516C92.0813 318.551 91.954 318.585 91.7883 318.619C91.6227 318.657 91.4162 318.678 91.1678 318.682C90.761 318.688 90.3816 318.616 90.0303 318.464C89.6791 318.312 89.3943 318.079 89.1768 317.761C88.9602 317.444 88.8519 317.046 88.8519 316.567V308.734ZM98.3163 318.578H96.6202L100.431 307.99H102.276L106.087 318.578H104.391L101.397 309.913H101.316L98.3163 318.578ZM98.6012 314.431H104.102V315.775H98.6012V314.431ZM107.47 318.578V307.99H111.245C112.068 307.99 112.751 308.139 113.292 308.439C113.834 308.739 114.239 309.149 114.507 309.67C114.776 310.187 114.91 310.77 114.91 311.418C114.91 312.069 114.775 312.655 114.503 313.175C114.233 313.693 113.826 314.102 113.282 314.406C112.741 314.705 112.06 314.855 111.239 314.855H108.644V313.501H111.095C111.615 313.501 112.038 313.411 112.361 313.232C112.685 313.049 112.924 312.802 113.075 312.488C113.227 312.174 113.302 311.817 113.302 311.418C113.302 311.017 113.227 310.662 113.075 310.352C112.924 310.042 112.684 309.799 112.357 309.623C112.033 309.448 111.605 309.359 111.075 309.359H109.068V318.578H107.47ZM118.235 307.99V318.578H116.638V307.99H118.235ZM127.707 310.637V311.877H123.369V310.637H127.707ZM124.532 308.734H126.078V316.247C126.078 316.546 126.124 316.772 126.213 316.924C126.302 317.072 126.417 317.173 126.559 317.229C126.704 317.281 126.861 317.306 127.03 317.306C127.154 317.306 127.262 317.298 127.356 317.28C127.448 317.263 127.52 317.25 127.572 317.239L127.852 318.516C127.762 318.551 127.634 318.585 127.469 318.619C127.304 318.657 127.097 318.678 126.849 318.682C126.442 318.688 126.063 318.616 125.711 318.464C125.359 318.312 125.075 318.079 124.858 317.761C124.641 317.444 124.532 317.046 124.532 316.567V308.734ZM132.531 318.738C131.786 318.738 131.136 318.568 130.582 318.227C130.027 317.886 129.596 317.408 129.289 316.795C128.983 316.181 128.829 315.464 128.829 314.643C128.829 313.82 128.983 313.099 129.289 312.482C129.596 311.865 130.027 311.387 130.582 311.045C131.136 310.704 131.786 310.533 132.531 310.533C133.276 310.533 133.925 310.704 134.481 311.045C135.036 311.387 135.466 311.865 135.773 312.482C136.079 313.099 136.233 313.82 136.233 314.643C136.233 315.464 136.079 316.181 135.773 316.795C135.466 317.408 135.036 317.886 134.481 318.227C133.925 318.568 133.276 318.738 132.531 318.738ZM132.536 317.441C133.019 317.441 133.419 317.313 133.736 317.058C134.053 316.803 134.288 316.463 134.439 316.039C134.594 315.615 134.672 315.148 134.672 314.638C134.672 314.132 134.594 313.666 134.439 313.242C134.288 312.815 134.053 312.472 133.736 312.214C133.419 311.955 133.019 311.826 132.536 311.826C132.05 311.826 131.647 311.955 131.327 312.214C131.009 312.472 130.773 312.815 130.618 313.242C130.467 313.666 130.39 314.132 130.39 314.638C130.39 315.148 130.467 315.615 130.618 316.039C130.773 316.463 131.009 316.803 131.327 317.058C131.647 317.313 132.05 317.441 132.536 317.441ZM144.943 318.738C144.161 318.738 143.487 318.571 142.921 318.237C142.36 317.899 141.926 317.425 141.618 316.815C141.315 316.201 141.163 315.482 141.163 314.659C141.163 313.845 141.315 313.128 141.618 312.509C141.926 311.888 142.353 311.404 142.901 311.055C143.453 310.707 144.097 310.533 144.835 310.533C145.283 310.533 145.717 310.608 146.137 310.755C146.558 310.904 146.935 311.136 147.27 311.453C147.604 311.771 147.868 312.183 148.061 312.689C148.254 313.192 148.35 313.804 148.35 314.524V315.073H142.038V313.915H146.835C146.835 313.508 146.753 313.147 146.587 312.834C146.422 312.517 146.189 312.267 145.89 312.085C145.593 311.902 145.244 311.81 144.845 311.81C144.411 311.81 144.031 311.917 143.707 312.131C143.387 312.341 143.139 312.617 142.963 312.958C142.79 313.296 142.705 313.663 142.705 314.059V314.964C142.705 315.495 142.798 315.947 142.983 316.319C143.173 316.691 143.437 316.976 143.775 317.172C144.112 317.365 144.507 317.462 144.959 317.462C145.252 317.462 145.518 317.42 145.76 317.337C146.001 317.251 146.21 317.124 146.385 316.955C146.561 316.785 146.696 316.577 146.789 316.329L148.252 316.593C148.134 317.024 147.924 317.401 147.621 317.725C147.322 318.046 146.944 318.295 146.489 318.474C146.038 318.651 145.522 318.738 144.943 318.738ZM151.466 313.863V318.578H149.92V310.637H151.404V311.929H151.502C151.685 311.509 151.971 311.171 152.36 310.916C152.753 310.661 153.247 310.533 153.844 310.533C154.385 310.533 154.859 310.647 155.266 310.874C155.672 311.098 155.988 311.433 156.212 311.877C156.436 312.322 156.548 312.872 156.548 313.527V318.578H155.002V313.713C155.002 313.137 154.853 312.688 154.552 312.363C154.253 312.036 153.841 311.873 153.317 311.873C152.958 311.873 152.64 311.95 152.36 312.105C152.085 312.26 151.865 312.488 151.703 312.787C151.545 313.084 151.466 313.442 151.466 313.863ZM160.786 318.754C160.283 318.754 159.828 318.661 159.421 318.474C159.015 318.285 158.693 318.011 158.455 317.653C158.22 317.294 158.104 316.855 158.104 316.334C158.104 315.886 158.189 315.517 158.362 315.228C158.534 314.938 158.767 314.709 159.06 314.54C159.353 314.371 159.681 314.244 160.042 314.158C160.404 314.071 160.773 314.006 161.149 313.961C161.624 313.906 162.01 313.861 162.307 313.826C162.604 313.789 162.818 313.728 162.953 313.646C163.088 313.563 163.155 313.429 163.155 313.242V313.207C163.155 312.754 163.028 312.405 162.772 312.157C162.521 311.908 162.145 311.784 161.645 311.784C161.125 311.784 160.714 311.9 160.414 312.131C160.118 312.359 159.913 312.612 159.799 312.891L158.347 312.56C158.519 312.077 158.771 311.688 159.101 311.391C159.436 311.092 159.82 310.874 160.254 310.74C160.688 310.602 161.145 310.533 161.624 310.533C161.941 310.533 162.278 310.571 162.633 310.647C162.991 310.72 163.325 310.853 163.635 311.05C163.949 311.247 164.206 311.528 164.406 311.893C164.605 312.255 164.706 312.725 164.706 313.305V318.578H163.196V317.493H163.134C163.034 317.693 162.884 317.888 162.685 318.082C162.484 318.275 162.228 318.435 161.914 318.563C161.6 318.69 161.225 318.754 160.786 318.754ZM161.123 317.513C161.55 317.513 161.916 317.429 162.219 317.26C162.525 317.091 162.758 316.87 162.917 316.598C163.079 316.322 163.16 316.027 163.16 315.714V314.69C163.105 314.745 162.998 314.797 162.839 314.845C162.685 314.89 162.507 314.93 162.307 314.964C162.107 314.995 161.912 315.025 161.723 315.052C161.533 315.077 161.374 315.097 161.247 315.114C160.947 315.152 160.673 315.216 160.425 315.305C160.18 315.395 159.984 315.524 159.835 315.694C159.691 315.858 159.618 316.079 159.618 316.355C159.618 316.737 159.76 317.027 160.042 317.223C160.325 317.416 160.685 317.513 161.123 317.513ZM166.743 318.578V307.99H168.289V311.925H168.383C168.472 311.759 168.601 311.567 168.77 311.35C168.939 311.133 169.173 310.944 169.473 310.782C169.773 310.616 170.17 310.533 170.662 310.533C171.304 310.533 171.876 310.695 172.379 311.019C172.882 311.343 173.276 311.81 173.563 312.42C173.852 313.03 173.997 313.764 173.997 314.623C173.997 315.482 173.854 316.217 173.568 316.831C173.282 317.441 172.889 317.911 172.389 318.242C171.89 318.57 171.319 318.733 170.678 318.733C170.195 318.733 169.8 318.652 169.494 318.49C169.191 318.328 168.952 318.139 168.78 317.921C168.608 317.705 168.475 317.512 168.383 317.342H168.253V318.578H166.743ZM168.258 314.607C168.258 315.166 168.339 315.655 168.501 316.076C168.663 316.496 168.898 316.826 169.204 317.063C169.511 317.298 169.887 317.415 170.332 317.415C170.793 317.415 171.179 317.292 171.489 317.048C171.8 316.799 172.034 316.463 172.193 316.039C172.355 315.615 172.436 315.138 172.436 314.607C172.436 314.084 172.356 313.613 172.198 313.196C172.042 312.779 171.809 312.45 171.495 312.208C171.184 311.967 170.797 311.846 170.332 311.846C169.883 311.846 169.505 311.962 169.194 312.193C168.887 312.424 168.655 312.746 168.496 313.159C168.337 313.573 168.258 314.056 168.258 314.607ZM177.134 307.99V318.578H175.588V307.99H177.134ZM182.49 318.738C181.708 318.738 181.034 318.571 180.469 318.237C179.906 317.899 179.472 317.425 179.166 316.815C178.863 316.201 178.711 315.482 178.711 314.659C178.711 313.845 178.863 313.128 179.166 312.509C179.472 311.888 179.9 311.404 180.448 311.055C180.999 310.707 181.643 310.533 182.381 310.533C182.83 310.533 183.264 310.608 183.684 310.755C184.105 310.904 184.482 311.136 184.816 311.453C185.151 311.771 185.414 312.183 185.608 312.689C185.801 313.192 185.897 313.804 185.897 314.524V315.073H179.584V313.915H184.382C184.382 313.508 184.3 313.147 184.134 312.834C183.968 312.517 183.736 312.267 183.436 312.085C183.139 311.902 182.792 311.81 182.391 311.81C181.957 311.81 181.579 311.917 181.254 312.131C180.934 312.341 180.685 312.617 180.51 312.958C180.338 313.296 180.251 313.663 180.251 314.059V314.964C180.251 315.495 180.344 315.947 180.531 316.319C180.72 316.691 180.984 316.976 181.321 317.172C181.66 317.365 182.054 317.462 182.505 317.462C182.798 317.462 183.066 317.42 183.307 317.337C183.548 317.251 183.756 317.124 183.933 316.955C184.108 316.785 184.243 316.577 184.336 316.329L185.799 316.593C185.682 317.024 185.472 317.401 185.169 317.725C184.868 318.046 184.491 318.295 184.036 318.474C183.584 318.651 183.069 318.738 182.49 318.738ZM192.192 318.578H190.497L194.307 307.99H196.153L199.963 318.578H198.268L195.274 309.913H195.192L192.192 318.578ZM192.477 314.431H197.978V315.775H192.477V314.431ZM202.944 307.99V318.578H201.347V307.99H202.944ZM209.681 313.434V314.773H204.986V313.434H209.681ZM27.2632 329.746V330.986H22.7754V329.746H27.2632ZM24.0059 337.687V328.825C24.0059 328.329 24.1145 327.917 24.3317 327.589C24.5488 327.259 24.8366 327.012 25.195 326.85C25.5536 326.685 25.943 326.602 26.3635 326.602C26.6737 326.602 26.9391 326.628 27.1597 326.679C27.3803 326.728 27.5441 326.773 27.6509 326.814L27.289 328.065C27.2166 328.044 27.1235 328.021 27.0098 327.993C26.896 327.961 26.7582 327.946 26.5962 327.946C26.2205 327.946 25.9517 328.04 25.7896 328.225C25.6311 328.412 25.5518 328.68 25.5518 329.033V337.687H24.0059ZM31.8224 337.847C31.04 337.847 30.3661 337.68 29.8009 337.346C29.2391 337.008 28.8047 336.534 28.498 335.924C28.1947 335.31 28.043 334.591 28.043 333.768C28.043 332.954 28.1947 332.237 28.498 331.618C28.8047 330.997 29.2321 330.513 29.7802 330.164C30.3317 329.816 30.9762 329.642 31.7138 329.642C32.1619 329.642 32.5962 329.717 33.0167 329.864C33.4372 330.013 33.8147 330.245 34.149 330.562C34.4834 330.88 34.747 331.292 34.94 331.798C35.1331 332.301 35.2295 332.913 35.2295 333.633V334.182H28.9167V333.024H33.7147C33.7147 332.617 33.6319 332.256 33.4665 331.943C33.3011 331.626 33.0684 331.376 32.7686 331.194C32.4721 331.011 32.124 330.919 31.7242 330.919C31.2899 330.919 30.9107 331.026 30.5868 331.24C30.2662 331.45 30.0181 331.726 29.8423 332.067C29.6699 332.405 29.5837 332.772 29.5837 333.168V334.073C29.5837 334.604 29.6768 335.056 29.8629 335.428C30.0525 335.8 30.3162 336.085 30.6539 336.281C30.9917 336.474 31.3864 336.571 31.838 336.571C32.1309 336.571 32.398 336.529 32.6393 336.446C32.8806 336.36 33.0892 336.233 33.2649 336.064C33.4407 335.894 33.5751 335.686 33.6682 335.438L35.1314 335.702C35.0142 336.133 34.8039 336.51 34.5006 336.834C34.2007 337.155 33.8233 337.404 33.3683 337.583C32.9168 337.76 32.4015 337.847 31.8224 337.847ZM39.1102 337.863C38.607 337.863 38.152 337.77 37.7453 337.583C37.3386 337.394 37.0163 337.12 36.7785 336.762C36.5441 336.403 36.4269 335.964 36.4269 335.443C36.4269 334.995 36.5131 334.626 36.6855 334.337C36.8578 334.047 37.0904 333.818 37.3834 333.649C37.6764 333.48 38.0038 333.353 38.3658 333.267C38.7277 333.18 39.0965 333.115 39.4722 333.07C39.9478 333.015 40.3338 332.97 40.6303 332.935C40.9268 332.898 41.1421 332.837 41.2765 332.755C41.411 332.672 41.4782 332.538 41.4782 332.351V332.316C41.4782 331.863 41.3507 331.514 41.0956 331.266C40.8439 331.017 40.4683 330.893 39.9685 330.893C39.4481 330.893 39.0379 331.009 38.738 331.24C38.4416 331.468 38.2365 331.721 38.1227 332L36.6699 331.669C36.8422 331.186 37.0938 330.797 37.4248 330.5C37.7591 330.201 38.1434 329.983 38.5777 329.849C39.012 329.711 39.4687 329.642 39.9478 329.642C40.2649 329.642 40.601 329.68 40.956 329.756C41.3145 329.829 41.6488 329.962 41.959 330.159C42.2727 330.356 42.5294 330.637 42.7294 331.002C42.9293 331.364 43.0293 331.834 43.0293 332.414V337.687H41.5196V336.602H41.4575C41.3575 336.802 41.2077 336.997 41.0077 337.191C40.8078 337.384 40.551 337.544 40.2374 337.672C39.9237 337.799 39.548 337.863 39.1102 337.863ZM39.4463 336.622C39.8738 336.622 40.2391 336.538 40.5424 336.369C40.8491 336.2 41.0818 335.979 41.2404 335.707C41.4024 335.431 41.4834 335.136 41.4834 334.823V333.799C41.4282 333.854 41.3214 333.906 41.1628 333.954C41.0077 333.999 40.8302 334.039 40.6303 334.073C40.4304 334.104 40.2356 334.134 40.0461 334.161C39.8565 334.186 39.6979 334.206 39.5704 334.223C39.2705 334.261 38.9965 334.325 38.7483 334.414C38.5036 334.504 38.3072 334.633 38.1589 334.803C38.0142 334.967 37.9418 335.188 37.9418 335.464C37.9418 335.846 38.0831 336.136 38.3658 336.332C38.6484 336.525 39.0086 336.622 39.4463 336.622ZM48.6497 329.746V330.986H44.312V329.746H48.6497ZM45.4752 327.843H47.0211V335.356C47.0211 335.655 47.0659 335.881 47.1556 336.033C47.2451 336.181 47.3606 336.282 47.5019 336.338C47.6467 336.39 47.8035 336.415 47.9724 336.415C48.0965 336.415 48.2051 336.407 48.2981 336.389C48.3912 336.372 48.4636 336.359 48.5153 336.348L48.7945 337.625C48.7048 337.66 48.5774 337.694 48.4118 337.728C48.2464 337.766 48.0397 337.787 47.7914 337.791C47.3848 337.797 47.0056 337.725 46.654 337.573C46.3025 337.421 46.0181 337.187 45.8009 336.87C45.5838 336.553 45.4752 336.155 45.4752 335.676V327.843ZM55.2448 334.394V329.746H56.7958V337.687H55.2758V336.312H55.1931C55.0104 336.736 54.7173 337.089 54.3141 337.371C53.9143 337.651 53.4162 337.791 52.8199 337.791C52.3098 337.791 51.8583 337.679 51.4654 337.454C51.0758 337.227 50.7691 336.891 50.545 336.446C50.3245 336.002 50.2142 335.452 50.2142 334.797V329.746H51.76V334.611C51.76 335.152 51.91 335.582 52.2099 335.904C52.5097 336.224 52.8992 336.384 53.3783 336.384C53.6678 336.384 53.9556 336.312 54.2417 336.167C54.5313 336.022 54.7708 335.803 54.9604 335.51C55.1534 335.217 55.2482 334.845 55.2448 334.394ZM58.7273 337.687V329.746H60.2215V331.007H60.3043C60.449 330.579 60.704 330.244 61.0694 329.999C61.4383 329.75 61.8553 329.627 62.3206 329.627C62.4171 329.627 62.5308 329.63 62.6619 329.637C62.7963 329.644 62.9014 329.652 62.9773 329.663V331.142C62.9152 331.125 62.8049 331.105 62.6463 331.084C62.4878 331.061 62.3292 331.049 62.1707 331.049C61.8053 331.049 61.4796 331.126 61.1935 331.281C60.9108 331.433 60.6868 331.645 60.5214 331.917C60.356 332.186 60.2732 332.493 60.2732 332.837V337.687H58.7273ZM67.3077 337.847C66.5253 337.847 65.8514 337.68 65.2862 337.346C64.7244 337.008 64.29 336.534 63.9833 335.924C63.6799 335.31 63.5283 334.591 63.5283 333.768C63.5283 332.954 63.6799 332.237 63.9833 331.618C64.29 330.997 64.7174 330.513 65.2655 330.164C65.8169 329.816 66.4616 329.642 67.1992 329.642C67.6472 329.642 68.0815 329.717 68.502 329.864C68.9225 330.013 69.3 330.245 69.6343 330.562C69.9686 330.88 70.2323 331.292 70.4253 331.798C70.6183 332.301 70.7148 332.913 70.7148 333.633V334.182H64.4021V333.024H69.2C69.2 332.617 69.1172 332.256 68.9518 331.943C68.7864 331.626 68.5537 331.376 68.2539 331.194C67.9574 331.011 67.6093 330.919 67.2094 330.919C66.7752 330.919 66.396 331.026 66.072 331.24C65.7515 331.45 65.5033 331.726 65.3275 332.067C65.1552 332.405 65.069 332.772 65.069 333.168V334.073C65.069 334.604 65.162 335.056 65.3482 335.428C65.5378 335.8 65.8015 336.085 66.1392 336.281C66.477 336.474 66.8717 336.571 67.3232 336.571C67.6162 336.571 67.8834 336.529 68.1246 336.446C68.3659 336.36 68.5744 336.233 68.7502 336.064C68.926 335.894 69.0604 335.686 69.1535 335.438L70.6166 335.702C70.4995 336.133 70.2892 336.51 69.9859 336.834C69.686 337.155 69.3085 337.404 68.8535 337.583C68.402 337.76 67.8867 337.847 67.3077 337.847ZM78.2353 331.684L76.8342 331.933C76.7757 331.753 76.6826 331.583 76.555 331.421C76.431 331.259 76.2621 331.126 76.0484 331.023C75.8347 330.919 75.5675 330.868 75.247 330.868C74.8093 330.868 74.4439 330.966 74.1509 331.163C73.8579 331.356 73.7114 331.605 73.7114 331.912C73.7114 332.177 73.8097 332.391 74.0061 332.553C74.2026 332.715 74.5197 332.848 74.9574 332.951L76.219 333.241C76.9497 333.409 77.4943 333.67 77.8528 334.022C78.2112 334.373 78.3905 334.83 78.3905 335.391C78.3905 335.867 78.2526 336.291 77.9768 336.663C77.7046 337.032 77.3237 337.321 76.8342 337.532C76.3483 337.743 75.7846 337.847 75.1436 337.847C74.2543 337.847 73.5288 337.658 72.9669 337.279C72.4051 336.896 72.0604 336.353 71.9329 335.65L73.4271 335.422C73.5201 335.812 73.7114 336.106 74.001 336.307C74.2905 336.503 74.668 336.602 75.1332 336.602C75.6399 336.602 76.0449 336.496 76.3483 336.286C76.6516 336.072 76.8032 335.812 76.8032 335.505C76.8032 335.257 76.7102 335.048 76.524 334.88C76.3414 334.711 76.0605 334.583 75.6813 334.497L74.337 334.202C73.5959 334.034 73.048 333.764 72.6929 333.396C72.3413 333.027 72.1656 332.56 72.1656 331.994C72.1656 331.526 72.2965 331.115 72.5585 330.764C72.8205 330.413 73.1824 330.139 73.6443 329.942C74.1061 329.742 74.6352 329.642 75.2315 329.642C76.0898 329.642 76.7653 329.829 77.2582 330.201C77.7511 330.569 78.0768 331.064 78.2353 331.684ZM87.4315 329.746V330.986H82.9436V329.746H87.4315ZM84.1739 337.687V328.825C84.1739 328.329 84.2831 327.917 84.4996 327.589C84.7171 327.259 85.0046 327.012 85.3632 326.85C85.7217 326.685 86.1111 326.602 86.5315 326.602C86.8418 326.602 87.1075 326.628 87.3278 326.679C87.5489 326.728 87.7127 326.773 87.8191 326.814L87.457 328.065C87.3851 328.044 87.2923 328.021 87.1785 327.993C87.0648 327.961 86.9265 327.946 86.7645 327.946C86.3887 327.946 86.1203 328.04 85.9583 328.225C85.799 328.412 85.7199 328.68 85.7199 329.033V337.687H84.1739ZM91.913 337.847C91.1687 337.847 90.519 337.677 89.9639 337.336C89.4088 336.995 88.9784 336.517 88.6718 335.904C88.3651 335.29 88.2113 334.573 88.2113 333.752C88.2113 332.929 88.3651 332.208 88.6718 331.591C88.9784 330.974 89.4088 330.496 89.9639 330.154C90.519 329.813 91.1687 329.642 91.913 329.642C92.6573 329.642 93.3071 329.813 93.8621 330.154C94.4172 330.496 94.8485 330.974 95.1552 331.591C95.4618 332.208 95.6147 332.929 95.6147 333.752C95.6147 334.573 95.4618 335.29 95.1552 335.904C94.8485 336.517 94.4172 336.995 93.8621 337.336C93.3071 337.677 92.6573 337.847 91.913 337.847ZM91.9185 336.55C92.4007 336.55 92.8011 336.422 93.1178 336.167C93.4354 335.912 93.6692 335.572 93.8212 335.148C93.9759 334.724 94.0532 334.257 94.0532 333.747C94.0532 333.241 93.9759 332.775 93.8212 332.351C93.6692 331.924 93.4354 331.581 93.1178 331.323C92.8011 331.064 92.4007 330.935 91.9185 330.935C91.4325 330.935 91.0294 331.064 90.7082 331.323C90.3916 331.581 90.155 331.924 90.0003 332.351C89.8483 332.775 89.7728 333.241 89.7728 333.747C89.7728 334.257 89.8483 334.724 90.0003 335.148C90.155 335.572 90.3916 335.912 90.7082 336.167C91.0294 336.422 91.4325 336.55 91.9185 336.55ZM97.1953 337.687V329.746H98.6894V331.007H98.7722C98.9169 330.579 99.1717 330.244 99.5375 329.999C99.906 329.75 100.323 329.627 100.789 329.627C100.885 329.627 100.999 329.63 101.13 329.637C101.264 329.644 101.369 329.652 101.445 329.663V331.142C101.383 331.125 101.273 331.105 101.114 331.084C100.955 331.061 100.797 331.049 100.639 331.049C100.273 331.049 99.947 331.126 99.6612 331.281C99.3783 331.433 99.1544 331.645 98.9888 331.917C98.8232 332.186 98.7413 332.493 98.7413 332.837V337.687H97.1953ZM107.322 340.665C107.091 340.665 106.881 340.646 106.691 340.608C106.501 340.573 106.36 340.536 106.267 340.494L106.64 339.228C106.922 339.304 107.174 339.337 107.394 339.326C107.615 339.316 107.81 339.233 107.978 339.077C108.151 338.923 108.302 338.67 108.433 338.318L108.624 337.791L105.719 329.746H107.373L109.385 335.908H109.467L111.479 329.746H113.139L109.865 338.747C109.713 339.16 109.521 339.511 109.287 339.796C109.052 340.086 108.773 340.303 108.449 340.448C108.125 340.593 107.749 340.665 107.322 340.665ZM117.52 337.847C116.776 337.847 116.126 337.677 115.571 337.336C115.017 336.995 114.585 336.517 114.279 335.904C113.972 335.29 113.818 334.573 113.818 333.752C113.818 332.929 113.972 332.208 114.279 331.591C114.585 330.974 115.017 330.496 115.571 330.154C116.126 329.813 116.776 329.642 117.52 329.642C118.265 329.642 118.915 329.813 119.469 330.154C120.024 330.496 120.455 330.974 120.762 331.591C121.069 332.208 121.223 332.929 121.223 333.752C121.223 334.573 121.069 335.29 120.762 335.904C120.455 336.517 120.024 336.995 119.469 337.336C118.915 337.677 118.265 337.847 117.52 337.847ZM117.525 336.55C118.008 336.55 118.408 336.422 118.725 336.167C119.042 335.912 119.276 335.572 119.428 335.148C119.583 334.724 119.661 334.257 119.661 333.747C119.661 333.241 119.583 332.775 119.428 332.351C119.276 331.924 119.042 331.581 118.725 331.323C118.408 331.064 118.008 330.935 117.525 330.935C117.04 330.935 116.636 331.064 116.316 331.323C115.999 331.581 115.763 331.924 115.607 332.351C115.455 332.775 115.38 333.241 115.38 333.747C115.38 334.257 115.455 334.724 115.607 335.148C115.763 335.572 115.999 335.912 116.316 336.167C116.636 336.422 117.04 336.55 117.525 336.55ZM127.832 334.394V329.746H129.384V337.687H127.863V336.312H127.781C127.599 336.736 127.306 337.089 126.902 337.371C126.502 337.651 126.004 337.791 125.408 337.791C124.898 337.791 124.447 337.679 124.053 337.454C123.664 337.227 123.357 336.891 123.133 336.446C122.912 336.002 122.802 335.452 122.802 334.797V329.746H124.348V334.611C124.348 335.152 124.498 335.582 124.798 335.904C125.098 336.224 125.488 336.384 125.966 336.384C126.256 336.384 126.544 336.312 126.83 336.167C127.119 336.022 127.358 335.803 127.549 335.51C127.741 335.217 127.836 334.845 127.832 334.394ZM131.316 337.687V329.746H132.81V331.007H132.893C133.037 330.579 133.292 330.244 133.657 329.999C134.026 329.75 134.443 329.627 134.908 329.627C135.005 329.627 135.118 329.63 135.249 329.637C135.384 329.644 135.49 329.652 135.565 329.663V331.142C135.503 331.125 135.393 331.105 135.234 331.084C135.076 331.061 134.917 331.049 134.759 331.049C134.393 331.049 134.067 331.126 133.782 331.281C133.499 331.433 133.275 331.645 133.109 331.917C132.944 332.186 132.861 332.493 132.861 332.837V337.687H131.316ZM143.81 337.847C143.041 337.847 142.38 337.673 141.825 337.325C141.273 336.974 140.849 336.49 140.553 335.873C140.256 335.256 140.108 334.549 140.108 333.752C140.108 332.946 140.26 332.235 140.563 331.618C140.867 330.997 141.294 330.513 141.846 330.164C142.397 329.816 143.047 329.642 143.795 329.642C144.398 329.642 144.935 329.754 145.407 329.978C145.88 330.199 146.261 330.509 146.55 330.909C146.843 331.309 147.017 331.776 147.072 332.31H145.567C145.486 331.938 145.295 331.618 144.999 331.348C144.707 331.08 144.313 330.945 143.82 330.945C143.39 330.945 143.012 331.059 142.688 331.286C142.367 331.51 142.118 331.831 141.939 332.248C141.759 332.661 141.669 333.151 141.669 333.716C141.669 334.296 141.757 334.795 141.933 335.216C142.109 335.636 142.357 335.962 142.677 336.193C143.001 336.424 143.383 336.54 143.82 336.54C144.113 336.54 144.379 336.486 144.617 336.379C144.858 336.268 145.06 336.112 145.222 335.908C145.387 335.705 145.503 335.46 145.567 335.175H147.072C147.017 335.688 146.85 336.147 146.571 336.55C146.292 336.953 145.918 337.27 145.449 337.501C144.983 337.732 144.437 337.847 143.81 337.847ZM153.61 334.394V329.746H155.162V337.687H153.641V336.312H153.559C153.377 336.736 153.084 337.089 152.68 337.371C152.28 337.651 151.782 337.791 151.185 337.791C150.676 337.791 150.224 337.679 149.831 337.454C149.442 337.227 149.135 336.891 148.911 336.446C148.69 336.002 148.58 335.452 148.58 334.797V329.746H150.126V334.611C150.126 335.152 150.276 335.582 150.576 335.904C150.875 336.224 151.265 336.384 151.744 336.384C152.034 336.384 152.321 336.312 152.608 336.167C152.897 336.022 153.136 335.803 153.327 335.51C153.519 335.217 153.614 334.845 153.61 334.394ZM163.044 331.684L161.643 331.933C161.584 331.753 161.492 331.583 161.363 331.421C161.24 331.259 161.071 331.126 160.857 331.023C160.644 330.919 160.376 330.868 160.056 330.868C159.618 330.868 159.252 330.966 158.959 331.163C158.666 331.356 158.52 331.605 158.52 331.912C158.52 332.177 158.618 332.391 158.815 332.553C159.011 332.715 159.329 332.848 159.766 332.951L161.027 333.241C161.758 333.409 162.303 333.67 162.662 334.022C163.02 334.373 163.2 334.83 163.2 335.391C163.2 335.867 163.061 336.291 162.786 336.663C162.513 337.032 162.132 337.321 161.643 337.532C161.157 337.743 160.593 337.847 159.952 337.847C159.063 337.847 158.338 337.658 157.775 337.279C157.214 336.896 156.869 336.353 156.742 335.65L158.236 335.422C158.329 335.812 158.52 336.106 158.81 336.307C159.099 336.503 159.477 336.602 159.942 336.602C160.449 336.602 160.854 336.496 161.157 336.286C161.461 336.072 161.612 335.812 161.612 335.505C161.612 335.257 161.519 335.048 161.332 334.88C161.15 334.711 160.869 334.583 160.49 334.497L159.146 334.202C158.405 334.034 157.856 333.764 157.501 333.396C157.15 333.027 156.975 332.56 156.975 331.994C156.975 331.526 157.106 331.115 157.367 330.764C157.629 330.413 157.991 330.139 158.453 329.942C158.915 329.742 159.444 329.642 160.04 329.642C160.898 329.642 161.574 329.829 162.067 330.201C162.56 330.569 162.886 331.064 163.044 331.684ZM168.46 329.746V330.986H164.122V329.746H168.46ZM165.286 327.843H166.832V335.356C166.832 335.655 166.877 335.881 166.966 336.033C167.056 336.181 167.171 336.282 167.313 336.338C167.457 336.39 167.614 336.415 167.783 336.415C167.907 336.415 168.016 336.407 168.109 336.389C168.202 336.372 168.274 336.359 168.326 336.348L168.605 337.625C168.516 337.66 168.388 337.694 168.222 337.728C168.057 337.766 167.85 337.787 167.602 337.791C167.195 337.797 166.816 337.725 166.464 337.573C166.113 337.421 165.828 337.187 165.612 336.87C165.394 336.553 165.286 336.155 165.286 335.676V327.843ZM173.285 337.847C172.54 337.847 171.891 337.677 171.335 337.336C170.78 336.995 170.35 336.517 170.042 335.904C169.736 335.29 169.583 334.573 169.583 333.752C169.583 332.929 169.736 332.208 170.042 331.591C170.35 330.974 170.78 330.496 171.335 330.154C171.891 329.813 172.54 329.642 173.285 329.642C174.029 329.642 174.679 329.813 175.234 330.154C175.789 330.496 176.219 330.974 176.526 331.591C176.833 332.208 176.986 332.929 176.986 333.752C176.986 334.573 176.833 335.29 176.526 335.904C176.219 336.517 175.789 336.995 175.234 337.336C174.679 337.677 174.029 337.847 173.285 337.847ZM173.29 336.55C173.772 336.55 174.172 336.422 174.489 336.167C174.806 335.912 175.041 335.572 175.193 335.148C175.347 334.724 175.425 334.257 175.425 333.747C175.425 333.241 175.347 332.775 175.193 332.351C175.041 331.924 174.806 331.581 174.489 331.323C174.172 331.064 173.772 330.935 173.29 330.935C172.804 330.935 172.4 331.064 172.08 331.323C171.763 331.581 171.527 331.924 171.372 332.351C171.22 332.775 171.144 333.241 171.144 333.747C171.144 334.257 171.22 334.724 171.372 335.148C171.527 335.572 171.763 335.912 172.08 336.167C172.4 336.422 172.804 336.55 173.29 336.55ZM178.566 337.687V329.746H180.05V331.038H180.148C180.314 330.6 180.584 330.259 180.96 330.014C181.336 329.766 181.785 329.642 182.309 329.642C182.84 329.642 183.285 329.766 183.643 330.014C184.006 330.263 184.272 330.604 184.445 331.038H184.528C184.717 330.614 185.018 330.276 185.432 330.025C185.846 329.77 186.339 329.642 186.911 329.642C187.632 329.642 188.219 329.868 188.674 330.319C189.132 330.771 189.362 331.452 189.362 332.362V337.687H187.816V332.507C187.816 331.969 187.669 331.579 187.376 331.338C187.083 331.097 186.734 330.976 186.327 330.976C185.824 330.976 185.432 331.131 185.153 331.441C184.874 331.748 184.734 332.143 184.734 332.626V337.687H183.194V332.408C183.194 331.977 183.059 331.631 182.79 331.369C182.521 331.107 182.172 330.976 181.741 330.976C181.448 330.976 181.177 331.054 180.929 331.209C180.684 331.36 180.486 331.572 180.335 331.845C180.187 332.117 180.112 332.432 180.112 332.791V337.687H178.566ZM194.71 337.847C193.929 337.847 193.254 337.68 192.689 337.346C192.127 337.008 191.693 336.534 191.386 335.924C191.083 335.31 190.931 334.591 190.931 333.768C190.931 332.954 191.083 332.237 191.386 331.618C191.693 330.997 192.121 330.513 192.668 330.164C193.22 329.816 193.864 329.642 194.602 329.642C195.051 329.642 195.485 329.717 195.905 329.864C196.325 330.013 196.703 330.245 197.037 330.562C197.372 330.88 197.635 331.292 197.829 331.798C198.022 332.301 198.118 332.913 198.118 333.633V334.182H191.805V333.024H196.603C196.603 332.617 196.52 332.256 196.355 331.943C196.189 331.626 195.957 331.376 195.657 331.194C195.36 331.011 195.012 330.919 194.612 330.919C194.178 330.919 193.799 331.026 193.475 331.24C193.154 331.45 192.906 331.726 192.73 332.067C192.558 332.405 192.472 332.772 192.472 333.168V334.073C192.472 334.604 192.565 335.056 192.751 335.428C192.94 335.8 193.204 336.085 193.542 336.281C193.88 336.474 194.274 336.571 194.726 336.571C195.019 336.571 195.286 336.529 195.527 336.446C195.769 336.36 195.977 336.233 196.153 336.064C196.329 335.894 196.464 335.686 196.557 335.438L198.02 335.702C197.902 336.133 197.692 336.51 197.389 336.834C197.089 337.155 196.711 337.404 196.256 337.583C195.805 337.76 195.29 337.847 194.71 337.847ZM199.688 337.687V329.746H201.182V331.007H201.265C201.409 330.579 201.664 330.244 202.03 329.999C202.398 329.75 202.815 329.627 203.281 329.627C203.378 329.627 203.491 329.63 203.622 329.637C203.756 329.644 203.862 329.652 203.937 329.663V331.142C203.875 331.125 203.765 331.105 203.606 331.084C203.448 331.061 203.289 331.049 203.131 331.049C202.765 331.049 202.439 331.126 202.154 331.281C201.871 331.433 201.647 331.645 201.481 331.917C201.316 332.186 201.234 332.493 201.234 332.837V337.687H199.688ZM211.08 331.684L209.679 331.933C209.621 331.753 209.528 331.583 209.4 331.421C209.276 331.259 209.108 331.126 208.894 331.023C208.68 330.919 208.412 330.868 208.092 330.868C207.654 330.868 207.289 330.966 206.996 331.163C206.703 331.356 206.556 331.605 206.556 331.912C206.556 332.177 206.654 332.391 206.851 332.553C207.047 332.715 207.365 332.848 207.803 332.951L209.064 333.241C209.795 333.409 210.34 333.67 210.698 334.022C211.057 334.373 211.236 334.83 211.236 335.391C211.236 335.867 211.098 336.291 210.822 336.663C210.55 337.032 210.169 337.321 209.679 337.532C209.193 337.743 208.63 337.847 207.988 337.847C207.099 337.847 206.374 337.658 205.812 337.279C205.25 336.896 204.905 336.353 204.778 335.65L206.272 335.422C206.365 335.812 206.556 336.106 206.846 336.307C207.136 336.503 207.513 336.602 207.978 336.602C208.485 336.602 208.89 336.496 209.193 336.286C209.497 336.072 209.648 335.812 209.648 335.505C209.648 335.257 209.555 335.048 209.369 334.88C209.187 334.711 208.906 334.583 208.526 334.497L207.182 334.202C206.441 334.034 205.893 333.764 205.538 333.396C205.187 333.027 205.011 332.56 205.011 331.994C205.011 331.526 205.142 331.115 205.403 330.764C205.665 330.413 206.027 330.139 206.49 329.942C206.951 329.742 207.481 329.642 208.077 329.642C208.935 329.642 209.611 329.829 210.103 330.201C210.596 330.569 210.922 331.064 211.08 331.684Z" fill="white" fill-opacity="0.5"/>
<path d="M199.886 174.806C199.886 178.826 196.627 182.085 192.606 182.085H123.449V112.929H192.606C196.627 112.929 199.886 116.188 199.886 120.209V174.806Z" fill="#202021" fill-opacity="0.2"/>
<mask id="mask1_1_449" style="mask-type:luminance" maskUnits="userSpaceOnUse" x="123" y="112" width="77" height="71">
<path d="M199.886 174.806C199.886 178.826 196.627 182.085 192.606 182.085H123.449V112.929H192.606C196.627 112.929 199.886 116.188 199.886 120.209V174.806Z" fill="white"/>
</mask>
<g mask="url(#mask1_1_449)">
<path d="M123.449 182.085H122.539V182.995H123.449V182.085ZM123.449 112.929V112.019H122.539V112.929H123.449ZM192.606 181.175H123.449V182.995H192.606V181.175ZM124.359 182.085V112.929H122.539V182.085H124.359ZM123.449 113.839H192.606V112.019H123.449V113.839ZM198.976 120.209V174.806H200.796V120.209H198.976ZM192.606 113.839C196.124 113.839 198.976 116.691 198.976 120.209H200.796C200.796 115.685 197.13 112.019 192.606 112.019V113.839ZM192.606 182.995C197.13 182.995 200.796 179.329 200.796 174.806H198.976C198.976 178.324 196.124 181.175 192.606 181.175V182.995Z" fill="#272729"/>
</g>
<path d="M62.4828 112.929C58.4623 112.929 55.2031 116.188 55.2031 120.209V174.806C55.2031 178.826 58.4623 182.085 62.4828 182.085H124.36V168.511C124.36 164.662 127.534 161.634 130.856 159.692C135.139 157.191 138.01 152.586 138.01 147.318C138.01 140.608 135.193 136.589 130.98 134.567C127.51 132.902 124.36 129.974 124.36 126.126V112.929H62.4828Z" fill="url(#paint5_linear_1_449)"/>
<path d="M62.4828 112.929C58.4623 112.929 55.2031 116.188 55.2031 120.209V174.806C55.2031 178.826 58.4623 182.085 62.4828 182.085H124.36V168.511C124.36 164.662 127.534 161.634 130.856 159.692C135.139 157.191 138.01 152.586 138.01 147.318C138.01 140.608 135.193 136.589 130.98 134.567C127.51 132.902 124.36 129.974 124.36 126.126V112.929H62.4828Z" fill="url(#paint6_radial_1_449)" fill-opacity="0.1"/>
<path d="M55.6582 120.209C55.6582 116.44 58.7138 113.384 62.4829 113.384H123.905V126.126C123.905 130.243 127.262 133.288 130.784 134.977C132.817 135.953 134.502 137.404 135.683 139.415C136.864 141.428 137.555 144.027 137.555 147.318C137.555 152.415 134.777 156.875 130.627 159.3C127.278 161.258 123.905 164.403 123.905 168.511V181.63H62.4829C58.7138 181.63 55.6582 178.575 55.6582 174.806V120.209Z" stroke="#272729"/>
<path d="M55.6582 120.209C55.6582 116.44 58.7138 113.384 62.4829 113.384H123.905V126.126C123.905 130.243 127.262 133.288 130.784 134.977C132.817 135.953 134.502 137.404 135.683 139.415C136.864 141.428 137.555 144.027 137.555 147.318C137.555 152.415 134.777 156.875 130.627 159.3C127.278 161.258 123.905 164.403 123.905 168.511V181.63H62.4829C58.7138 181.63 55.6582 178.575 55.6582 174.806V120.209Z" stroke="url(#paint7_radial_1_449)" stroke-opacity="0.3"/>
<g filter="url(#filter0_ddi_1_449)">
<path d="M98.8808 131.128H80.6815C76.6611 131.128 73.4019 134.387 73.4019 138.408V156.607C73.4019 160.627 76.6611 163.886 80.6815 163.886H98.8808C102.901 163.886 106.16 160.627 106.16 156.607V138.408C106.16 134.387 102.901 131.128 98.8808 131.128Z" fill="url(#paint8_linear_1_449)"/>
<path d="M98.8808 131.128H80.6815C76.6611 131.128 73.4019 134.387 73.4019 138.408V156.607C73.4019 160.627 76.6611 163.886 80.6815 163.886H98.8808C102.901 163.886 106.16 160.627 106.16 156.607V138.408C106.16 134.387 102.901 131.128 98.8808 131.128Z" fill="url(#paint9_radial_1_449)" fill-opacity="0.1"/>
<path d="M98.8808 130.855H80.6816C76.5104 130.855 73.1289 134.236 73.1289 138.408V156.607C73.1289 160.778 76.5104 164.159 80.6816 164.159H98.8808C103.052 164.159 106.434 160.778 106.434 156.607V138.408C106.434 134.236 103.052 130.855 98.8808 130.855Z" stroke="white" stroke-opacity="0.05" stroke-width="0.6"/>
<path d="M98.8808 130.855H80.6816C76.5104 130.855 73.1289 134.236 73.1289 138.408V156.607C73.1289 160.778 76.5104 164.159 80.6816 164.159H98.8808C103.052 164.159 106.434 160.778 106.434 156.607V138.408C106.434 134.236 103.052 130.855 98.8808 130.855Z" stroke="url(#paint10_radial_1_449)" stroke-opacity="0.3" stroke-width="0.6"/>
<path d="M98.8808 130.855H80.6816C76.5104 130.855 73.1289 134.236 73.1289 138.408V156.607C73.1289 160.778 76.5104 164.159 80.6816 164.159H98.8808C103.052 164.159 106.434 160.778 106.434 156.607V138.408C106.434 134.236 103.052 130.855 98.8808 130.855Z" stroke="url(#paint11_radial_1_449)" stroke-opacity="0.2" stroke-width="0.6"/>
<g filter="url(#filter1_i_1_449)">
<path fill-rule="evenodd" clip-rule="evenodd" d="M89.8893 154.059C89.347 154.056 88.9084 153.615 88.9111 153.071L88.9284 149.182L85.466 151.181C84.9956 151.453 84.395 151.291 84.1229 150.822C83.8517 150.352 84.0128 149.751 84.4833 149.48L87.8155 147.555L84.4505 145.613C83.9801 145.341 83.819 144.74 84.0902 144.27C84.3622 143.8 84.9628 143.639 85.4333 143.911L88.943 145.936L88.9603 141.934C88.963 141.391 89.4052 140.953 89.9476 140.955C90.4899 140.958 90.9285 141.399 90.9258 141.943L90.9094 145.769L94.1289 143.911C94.5993 143.639 95.1999 143.8 95.471 144.27C95.7431 144.74 95.5821 145.341 95.1116 145.613L91.7466 147.555L95.0789 149.48C95.5493 149.751 95.7104 150.352 95.4383 150.822C95.1671 151.291 94.5665 151.453 94.0961 151.181L90.893 149.332L90.8767 153.08C90.8739 153.623 90.4326 154.061 89.8893 154.059Z" fill="white"/>
<path fill-rule="evenodd" clip-rule="evenodd" d="M89.8893 154.059C89.347 154.056 88.9084 153.615 88.9111 153.071L88.9284 149.182L85.466 151.181C84.9956 151.453 84.395 151.291 84.1229 150.822C83.8517 150.352 84.0128 149.751 84.4833 149.48L87.8155 147.555L84.4505 145.613C83.9801 145.341 83.819 144.74 84.0902 144.27C84.3622 143.8 84.9628 143.639 85.4333 143.911L88.943 145.936L88.9603 141.934C88.963 141.391 89.4052 140.953 89.9476 140.955C90.4899 140.958 90.9285 141.399 90.9258 141.943L90.9094 145.769L94.1289 143.911C94.5993 143.639 95.1999 143.8 95.471 144.27C95.7431 144.74 95.5821 145.341 95.1116 145.613L91.7466 147.555L95.0789 149.48C95.5493 149.751 95.7104 150.352 95.4383 150.822C95.1671 151.291 94.5665 151.453 94.0961 151.181L90.893 149.332L90.8767 153.08C90.8739 153.623 90.4326 154.061 89.8893 154.059Z" fill="url(#paint12_linear_1_449)"/>
</g>
</g>
<g filter="url(#filter2_ddi_1_449)">
<path d="M177.137 131.128H158.937C154.917 131.128 151.658 134.387 151.658 138.408V156.607C151.658 160.627 154.917 163.886 158.937 163.886H177.137C181.157 163.886 184.416 160.627 184.416 156.607V138.408C184.416 134.387 181.157 131.128 177.137 131.128Z" fill="url(#paint13_linear_1_449)"/>
<path d="M177.137 130.855H158.937C154.766 130.855 151.385 134.236 151.385 138.408V156.607C151.385 160.778 154.766 164.159 158.937 164.159H177.137C181.308 164.159 184.689 160.778 184.689 156.607V138.408C184.689 134.236 181.308 130.855 177.137 130.855Z" stroke="white" stroke-opacity="0.05" stroke-width="0.6"/>
<path d="M177.137 130.855H158.937C154.766 130.855 151.385 134.236 151.385 138.408V156.607C151.385 160.778 154.766 164.159 158.937 164.159H177.137C181.308 164.159 184.689 160.778 184.689 156.607V138.408C184.689 134.236 181.308 130.855 177.137 130.855Z" stroke="url(#paint14_radial_1_449)" stroke-opacity="0.2" stroke-width="0.6"/>
<path d="M163.468 152.057H161.984L165.318 142.792H166.933L170.267 152.057H168.783L166.164 144.475H166.091L163.468 152.057ZM163.716 148.429H168.53V149.605H163.716V148.429ZM172.876 142.792V152.057H171.478V142.792H172.876Z" fill="white"/>
<path d="M163.468 152.057H161.984L165.318 142.792H166.933L170.267 152.057H168.783L166.164 144.475H166.091L163.468 152.057ZM163.716 148.429H168.53V149.605H163.716V148.429ZM172.876 142.792V152.057H171.478V142.792H172.876Z" fill="url(#paint15_linear_1_449)"/>
</g>
<g opacity="0.2" filter="url(#filter3_f_1_449)">
<path d="M77.0424 140.228C77.0424 128.166 67.2647 118.389 55.2033 118.389C43.1419 118.389 33.3643 128.166 33.3643 140.228V147.507C33.3643 159.568 43.1419 169.346 55.2033 169.346C67.2647 169.346 77.0424 159.568 77.0424 147.507V140.228Z" fill="#24E98A"/>
</g>
</g>
<defs>
<filter id="filter0_ddi_1_449" x="64.8291" y="124.555" width="49.9043" height="49.9043" filterUnits="userSpaceOnUse" color-interpolation-filters="sRGB">
<feFlood flood-opacity="0" result="BackgroundImageFix"/>
<feColorMatrix in="SourceAlpha" type="matrix" values="0 0 0 0 0 0 0 0 0 0 0 0 0 0 0 0 0 0 127 0" result="hardAlpha"/>
<feOffset dy="2"/>
<feGaussianBlur stdDeviation="4"/>
<feColorMatrix type="matrix" values="0 0 0 0 0 0 0 0 0 0 0 0 0 0 0 0 0 0 0.2 0"/>
<feBlend mode="normal" in2="BackgroundImageFix" result="effect1_dropShadow_1_449"/>
<feColorMatrix in="SourceAlpha" type="matrix" values="0 0 0 0 0 0 0 0 0 0 0 0 0 0 0 0 0 0 127 0" result="hardAlpha"/>
<feOffset dy="1"/>
<feGaussianBlur stdDeviation="0.5"/>
<feColorMatrix type="matrix" values="0 0 0 0 0 0 0 0 0 0 0 0 0 0 0 0 0 0 0.1 0"/>
<feBlend mode="normal" in2="effect1_dropShadow_1_449" result="effect2_dropShadow_1_449"/>
<feBlend mode="normal" in="SourceGraphic" in2="effect2_dropShadow_1_449" result="shape"/>
<feColorMatrix in="SourceAlpha" type="matrix" values="0 0 0 0 0 0 0 0 0 0 0 0 0 0 0 0 0 0 127 0" result="hardAlpha"/>
<feOffset/>
<feGaussianBlur stdDeviation="2"/>
<feComposite in2="hardAlpha" operator="arithmetic" k2="-1" k3="1"/>
<feColorMatrix type="matrix" values="0 0 0 0 1 0 0 0 0 1 0 0 0 0 1 0 0 0 0.1 0"/>
<feBlend mode="normal" in2="shape" result="effect3_innerShadow_1_449"/>
</filter>
<filter id="filter1_i_1_449" x="83.9585" y="140.655" width="11.645" height="13.4033" filterUnits="userSpaceOnUse" color-interpolation-filters="sRGB">
<feFlood flood-opacity="0" result="BackgroundImageFix"/>
<feBlend mode="normal" in="SourceGraphic" in2="BackgroundImageFix" result="shape"/>
<feColorMatrix in="SourceAlpha" type="matrix" values="0 0 0 0 0 0 0 0 0 0 0 0 0 0 0 0 0 0 127 0" result="hardAlpha"/>
<feOffset dy="-0.3"/>
<feGaussianBlur stdDeviation="0.3"/>
<feComposite in2="hardAlpha" operator="arithmetic" k2="-1" k3="1"/>
<feColorMatrix type="matrix" values="0 0 0 0 0 0 0 0 0 0 0 0 0 0 0 0 0 0 0.45 0"/>
<feBlend mode="normal" in2="shape" result="effect1_innerShadow_1_449"/>
</filter>
<filter id="filter2_ddi_1_449" x="143.085" y="124.555" width="49.9043" height="49.9043" filterUnits="userSpaceOnUse" color-interpolation-filters="sRGB">
<feFlood flood-opacity="0" result="BackgroundImageFix"/>
<feColorMatrix in="SourceAlpha" type="matrix" values="0 0 0 0 0 0 0 0 0 0 0 0 0 0 0 0 0 0 127 0" result="hardAlpha"/>
<feOffset dy="2"/>
<feGaussianBlur stdDeviation="4"/>
<feColorMatrix type="matrix" values="0 0 0 0 0 0 0 0 0 0 0 0 0 0 0 0 0 0 0.2 0"/>
<feBlend mode="normal" in2="BackgroundImageFix" result="effect1_dropShadow_1_449"/>
<feColorMatrix in="SourceAlpha" type="matrix" values="0 0 0 0 0 0 0 0 0 0 0 0 0 0 0 0 0 0 127 0" result="hardAlpha"/>
<feOffset dy="1"/>
<feGaussianBlur stdDeviation="0.5"/>
<feColorMatrix type="matrix" values="0 0 0 0 0 0 0 0 0 0 0 0 0 0 0 0 0 0 0.1 0"/>
<feBlend mode="normal" in2="effect1_dropShadow_1_449" result="effect2_dropShadow_1_449"/>
<feBlend mode="normal" in="SourceGraphic" in2="effect2_dropShadow_1_449" result="shape"/>
<feColorMatrix in="SourceAlpha" type="matrix" values="0 0 0 0 0 0 0 0 0 0 0 0 0 0 0 0 0 0 127 0" result="hardAlpha"/>
<feOffset/>
<feGaussianBlur stdDeviation="2"/>
<feComposite in2="hardAlpha" operator="arithmetic" k2="-1" k3="1"/>
<feColorMatrix type="matrix" values="0 0 0 0 1 0 0 0 0 1 0 0 0 0 1 0 0 0 0.1 0"/>
<feBlend mode="normal" in2="shape" result="effect3_innerShadow_1_449"/>
</filter>
<filter id="filter3_f_1_449" x="-42.6357" y="42.3887" width="195.678" height="202.957" filterUnits="userSpaceOnUse" color-interpolation-filters="sRGB">
<feFlood flood-opacity="0" result="BackgroundImageFix"/>
<feBlend mode="normal" in="SourceGraphic" in2="BackgroundImageFix" result="shape"/>
<feGaussianBlur stdDeviation="38" result="effect1_foregroundBlur_1_449"/>
</filter>
<radialGradient id="paint0_radial_1_449" cx="0" cy="0" r="1" gradientUnits="userSpaceOnUse" gradientTransform="translate(127.999 124.303) rotate(62.1877) scale(271.088 288.188)">
<stop stop-color="#1B1B1B" stop-opacity="0"/>
<stop offset="0.555278" stop-color="#1B1B1B"/>
</radialGradient>
<radialGradient id="paint1_radial_1_449" cx="0" cy="0" r="1" gradientUnits="userSpaceOnUse" gradientTransform="translate(-30.7874 52.4172) rotate(45) scale(133.191 190.507)">
<stop stop-color="#24FF95"/>
<stop offset="1" stop-color="#24FF95" stop-opacity="0"/>
</radialGradient>
<radialGradient id="paint2_radial_1_449" cx="0" cy="0" r="1" gradientUnits="userSpaceOnUse" gradientTransform="translate(-79.0149 -92.7201) rotate(54.0734) scale(475.332 330.983)">
<stop stop-color="#121212"/>
<stop offset="1" stop-color="#1B1B1B" stop-opacity="0"/>
</radialGradient>
<radialGradient id="paint3_radial_1_449" cx="0" cy="0" r="1" gradientUnits="userSpaceOnUse" gradientTransform="translate(nan nan) rotate(nan) scale(nan nan)">
<stop stop-color="#272729"/>
<stop offset="1" stop-color="#272729" stop-opacity="0"/>
</radialGradient>
<linearGradient id="paint4_linear_1_449" x1="115.26" y1="279.45" x2="115.26" y2="300.379" gradientUnits="userSpaceOnUse">
<stop stop-color="white"/>
<stop offset="1" stop-color="#BABABA"/>
</linearGradient>
<linearGradient id="paint5_linear_1_449" x1="89.7817" y1="135.678" x2="96.6062" y2="182.085" gradientUnits="userSpaceOnUse">
<stop stop-color="#1B1B1C"/>
<stop offset="1" stop-color="#131313"/>
</linearGradient>
<radialGradient id="paint6_radial_1_449" cx="0" cy="0" r="1" gradientTransform="matrix(60.5125 17.7441 -19.7621 67.3929 15.6198 129.763)" gradientUnits="userSpaceOnUse">
<stop stop-color="#24FF95"/>
<stop offset="1" stop-color="#24FF95" stop-opacity="0"/>
</radialGradient>
<radialGradient id="paint7_radial_1_449" cx="0" cy="0" r="1" gradientTransform="matrix(45.5436 6.91563 -4.49491 29.601 48.9927 141.744)" gradientUnits="userSpaceOnUse">
<stop stop-color="#A8FFD5"/>
<stop offset="1" stop-color="#BDFFDF" stop-opacity="0"/>
</radialGradient>
<linearGradient id="paint8_linear_1_449" x1="89.7812" y1="140.955" x2="89.7812" y2="163.886" gradientUnits="userSpaceOnUse">
<stop stop-color="#1F1F21"/>
<stop offset="1" stop-color="#202022"/>
</linearGradient>
<radialGradient id="paint9_radial_1_449" cx="0" cy="0" r="1" gradientTransform="matrix(18.5632 6.00568 -7.29011 22.5328 67.9421 143.139)" gradientUnits="userSpaceOnUse">
<stop stop-color="#24FF95"/>
<stop offset="1" stop-color="#24FF95" stop-opacity="0"/>
</radialGradient>
<radialGradient id="paint10_radial_1_449" cx="0" cy="0" r="1" gradientTransform="matrix(18.0172 3.27581 -2.52471 13.8858 70.945 144.777)" gradientUnits="userSpaceOnUse">
<stop stop-color="#A8FFD5"/>
<stop offset="1" stop-color="#BDFFDF" stop-opacity="0"/>
</radialGradient>
<radialGradient id="paint11_radial_1_449" cx="0" cy="0" r="1" gradientTransform="matrix(-1.3388 18.836 -13.6674 -0.971406 88.3899 131.128)" gradientUnits="userSpaceOnUse">
<stop stop-color="white" stop-opacity="0.48"/>
<stop offset="1" stop-color="white" stop-opacity="0.04"/>
</radialGradient>
<linearGradient id="paint12_linear_1_449" x1="89.7811" y1="140.955" x2="89.7811" y2="154.059" gradientUnits="userSpaceOnUse">
<stop stop-color="white"/>
<stop offset="1" stop-color="#BABABA"/>
</linearGradient>
<linearGradient id="paint13_linear_1_449" x1="168.037" y1="140.955" x2="168.037" y2="163.886" gradientUnits="userSpaceOnUse">
<stop stop-color="#1F1F21"/>
<stop offset="1" stop-color="#202022"/>
</linearGradient>
<radialGradient id="paint14_radial_1_449" cx="0" cy="0" r="1" gradientTransform="matrix(-1.3388 18.836 -13.6674 -0.971406 166.646 131.128)" gradientUnits="userSpaceOnUse">
<stop stop-color="white" stop-opacity="0.48"/>
<stop offset="1" stop-color="white" stop-opacity="0.04"/>
</radialGradient>
<linearGradient id="paint15_linear_1_449" x1="168.037" y1="141.137" x2="168.037" y2="153.877" gradientUnits="userSpaceOnUse">
<stop stop-color="white"/>
<stop offset="1" stop-color="#BABABA"/>
</linearGradient>
</defs>
</svg>
