<svg width="430" height="384" viewBox="0 0 430 384" fill="none" xmlns="http://www.w3.org/2000/svg">
<g filter="url(#filter0_d_1_94)">
<mask id="mask0_1_94" style="mask-type:luminance" maskUnits="userSpaceOnUse" x="9" y="5" width="411" height="365">
<path d="M404.525 5.83472H24.1652C16.1243 5.83472 9.60596 12.3531 9.60596 20.3939V355.256C9.60596 363.297 16.1243 369.815 24.1652 369.815H404.525C412.566 369.815 419.084 363.297 419.084 355.256V20.3939C419.084 12.3531 412.566 5.83472 404.525 5.83472Z" fill="white"/>
</mask>
<g mask="url(#mask0_1_94)">
<path d="M404.525 5.83472H24.1652C16.1243 5.83472 9.60596 12.3531 9.60596 20.3939V355.256C9.60596 363.297 16.1243 369.815 24.1652 369.815H404.525C412.566 369.815 419.084 363.297 419.084 355.256V20.3939C419.084 12.3531 412.566 5.83472 404.525 5.83472Z" fill="url(#paint0_radial_1_94)" fill-opacity="0.6"/>
<path d="M404.525 5.83472H24.1652C16.1243 5.83472 9.60596 12.3531 9.60596 20.3939V355.256C9.60596 363.297 16.1243 369.815 24.1652 369.815H404.525C412.566 369.815 419.084 363.297 419.084 355.256V20.3939C419.084 12.3531 412.566 5.83472 404.525 5.83472Z" fill="url(#paint1_radial_1_94)" fill-opacity="0.05"/>
<mask id="mask1_1_94" style="mask-type:alpha" maskUnits="userSpaceOnUse" x="9" y="5" width="411" height="365">
<path d="M419.084 5.83472H9.60596V369.815H419.084V5.83472Z" fill="url(#paint2_radial_1_94)"/>
</mask>
<g mask="url(#mask1_1_94)">
<mask id="mask2_1_94" style="mask-type:luminance" maskUnits="userSpaceOnUse" x="22" y="18" width="381" height="332">
<path d="M388.146 18.5741H36.9044C28.8636 18.5741 22.3452 25.0925 22.3452 33.1333V335.237C22.3452 343.278 28.8636 349.797 36.9044 349.797H388.146C396.187 349.797 402.705 343.278 402.705 335.237V33.1333C402.705 25.0925 396.187 18.5741 388.146 18.5741Z" fill="white"/>
</mask>
<g mask="url(#mask2_1_94)">
<path d="M-14.9629 118.669H209.132L235.548 83.1807H407.255" stroke="#252527" stroke-linecap="round"/>
<path d="M-9.50342 109.569H200.298L227.892 74.0811H407.255" stroke="#252527" stroke-linecap="round"/>
<path d="M-16.7832 100.47H188.941L218.049 64.9816H407.254" stroke="#252527" stroke-linecap="round"/>
<path d="M-11.3232 91.3702H180.107L210.393 55.8821H407.255" stroke="#252527" stroke-linecap="round"/>
<path d="M-17.6929 82.2707H169.381L201.097 46.7826H407.255" stroke="#252527" stroke-linecap="round"/>
<path d="M-14.0532 73.1711H159.285L192.348 37.683H407.255" stroke="#252527" stroke-linecap="round"/>
<path d="M-17.6929 64.0716H150.452L184.692 28.5835H407.255" stroke="#252527" stroke-linecap="round"/>
<path d="M-14.0532 54.9721H140.356L175.942 19.484H407.255" stroke="#252527" stroke-linecap="round"/>
<path d="M-11.3232 45.8726H129.629L166.646 10.3845H407.255" stroke="#252527" stroke-linecap="round"/>
<path d="M-20.4229 36.7731H123.32L161.178 1.28503L407.255 1.28504" stroke="#252527" stroke-linecap="round"/>
<path d="M-13.1431 27.6735H115.748L154.616 -7.81458L407.255 -7.81457" stroke="#252527" stroke-linecap="round"/>
<path d="M-27.7026 18.5741H105.653L145.866 -16.9141H407.254" stroke="#252527" stroke-linecap="round"/>
<path d="M103.331 127.768H213.037L240.631 92.2802H419.994" stroke="#252527" stroke-linecap="round"/>
<path d="M103.331 136.868H216.943L245.715 101.38H432.733" stroke="#252527" stroke-linecap="round"/>
<path d="M103.331 145.967H220.849L250.798 110.479H445.473" stroke="#252527" stroke-linecap="round"/>
<g opacity="0.8" filter="url(#filter1_f_1_94)">
<path d="M109.7 145.512C109.7 137.723 116.015 131.408 123.805 131.408C131.594 131.408 137.909 137.723 137.909 145.512V147.332C137.909 155.121 131.594 161.436 123.805 161.436C116.015 161.436 109.7 155.121 109.7 147.332V145.512Z" fill="#24E98A"/>
</g>
<path d="M21.4351 203.294H209.132L235.548 238.782H407.255" stroke="#252527" stroke-linecap="round"/>
<path d="M17.7954 212.394H200.298L227.892 247.882H407.255" stroke="#252527" stroke-linecap="round"/>
<path d="M19.6152 221.493H188.941L218.049 256.981H407.255" stroke="#252527" stroke-linecap="round"/>
<path d="M15.9751 230.593H180.107L210.393 266.081H407.255" stroke="#252527" stroke-linecap="round"/>
<path d="M18.7051 239.692H169.38L201.097 275.181H407.255" stroke="#252527" stroke-linecap="round"/>
<path d="M22.3447 248.792H159.285L192.347 284.28H407.254" stroke="#252527" stroke-linecap="round"/>
<path d="M18.7051 257.891H150.452L184.692 293.379H407.255" stroke="#252527" stroke-linecap="round"/>
<path d="M22.3447 266.991H140.356L175.942 302.479H407.254" stroke="#252527" stroke-linecap="round"/>
<path d="M6.87598 276.09H129.629L166.646 311.578H407.255" stroke="#252527" stroke-linecap="round"/>
<path d="M-2.22363 285.19H123.32L161.178 320.678H407.255" stroke="#252527" stroke-linecap="round"/>
<path d="M-13.1431 294.29H115.748L154.616 329.778H407.255" stroke="#252527" stroke-linecap="round"/>
<path d="M-27.7026 303.389H105.653L145.866 338.877H407.254" stroke="#252527" stroke-linecap="round"/>
<path d="M-34.0718 312.489H101.236L142.039 347.977H407.255" stroke="#252527" stroke-linecap="round"/>
<path d="M-43.1714 321.588H94.9266L136.571 357.076H407.255" stroke="#252527" stroke-linecap="round"/>
<path d="M-55.001 330.688H86.7239L129.462 366.176H407.255" stroke="#252527" stroke-linecap="round"/>
<path d="M21.4351 194.195H213.037L240.632 229.683H419.994" stroke="#252527" stroke-linecap="round"/>
<path d="M103.331 185.095H216.943L245.715 220.583H432.733" stroke="#252527" stroke-linecap="round"/>
<path d="M103.331 175.996H220.849L250.798 211.484H445.473" stroke="#252527" stroke-linecap="round"/>
</g>
<path d="M388.146 19.0291H36.9045C29.115 19.0291 22.8003 25.3437 22.8003 33.1333V335.237C22.8003 343.027 29.115 349.342 36.9045 349.342H388.146C395.936 349.342 402.25 343.027 402.25 335.237V33.1333C402.25 25.3437 395.936 19.0291 388.146 19.0291Z" stroke="#252527"/>
<path d="M103.331 145.967H206.155" stroke="url(#paint3_linear_1_94)"/>
<g opacity="0.2" filter="url(#filter2_f_1_94)">
<path d="M300.791 206.934C300.791 194.873 291.013 185.095 278.952 185.095C266.89 185.095 257.113 194.873 257.113 206.934V214.214C257.113 226.275 266.89 236.053 278.952 236.053C291.013 236.053 300.791 226.275 300.791 214.214V206.934Z" fill="#24E98A"/>
</g>
</g>
<g style="mix-blend-mode:luminosity">
<path d="M397.246 17.2091H31.4449C25.6656 17.2091 20.9805 21.8942 20.9805 27.6736V347.977C20.9805 353.756 25.6656 358.441 31.4449 358.441H397.246C403.025 358.441 407.71 353.756 407.71 347.977V27.6736C407.71 21.8942 403.025 17.2091 397.246 17.2091Z" stroke="#252527"/>
</g>
<path d="M178.842 176.451L178.387 176.466L178.417 177.375L178.871 177.361L178.842 176.451ZM220.26 175.541L220.604 175.244L220.462 175.078L220.245 175.086L220.26 175.541ZM251.198 211.484L250.853 211.78L250.99 211.939H251.198V211.484ZM356.752 211.939C357.004 211.939 357.207 211.735 357.207 211.484C357.207 211.233 357.004 211.029 356.752 211.029V211.939ZM178.871 177.361L220.274 175.996L220.245 175.086L178.842 176.451L178.871 177.361ZM219.915 175.837L250.853 211.78L251.543 211.187L220.604 175.244L219.915 175.837ZM251.198 211.939H356.752V211.029H251.198V211.939Z" fill="url(#paint4_linear_1_94)" fill-opacity="0.9"/>
<path d="M33.7599 317.948H31.8521L36.1388 306.036H38.2153L42.502 317.948H40.5942L37.2265 308.2H37.1334L33.7599 317.948ZM34.0798 313.284H40.2685V314.796H34.0798V313.284ZM45.8558 306.036V317.948H44.0584V306.036H45.8558ZM54.2775 317.948L51.6485 309.014H53.4458L55.1965 315.575H55.2838L57.0403 309.014H58.8377L60.5826 315.546H60.6699L62.409 309.014H64.2062L61.583 317.948H59.809L57.9942 311.497H57.8605L56.0458 317.948H54.2775ZM67.432 312.643V317.948H65.6929V306.036H67.4087V310.468H67.5193C67.7286 309.987 68.0485 309.606 68.479 309.323C68.9094 309.04 69.4717 308.898 70.1657 308.898C70.7783 308.898 71.3135 309.023 71.7711 309.275C72.2325 309.527 72.5892 309.904 72.8413 310.405C73.0972 310.9 73.2252 311.521 73.2252 312.265V317.948H71.486V312.475C71.486 311.82 71.3174 311.312 70.98 310.951C70.6427 310.587 70.1735 310.405 69.5725 310.405C69.1614 310.405 68.793 310.491 68.4673 310.666C68.1455 310.84 67.8915 311.096 67.7053 311.434C67.5231 311.767 67.432 312.171 67.432 312.643ZM79.2326 318.128C78.3524 318.128 77.5943 317.94 76.9584 317.564C76.3263 317.185 75.8378 316.651 75.4926 315.964C75.1514 315.275 74.9808 314.466 74.9808 313.539C74.9808 312.624 75.1514 311.818 75.4926 311.12C75.8378 310.422 76.3186 309.877 76.9352 309.486C77.5556 309.093 78.2807 308.898 79.1105 308.898C79.6146 308.898 80.1032 308.981 80.5763 309.148C81.0493 309.314 81.4739 309.577 81.85 309.933C82.2262 310.29 82.5228 310.753 82.7399 311.323C82.9571 311.89 83.0657 312.578 83.0657 313.388V314.004H75.9638V312.701H81.3615C81.3615 312.245 81.2684 311.839 81.0823 311.486C80.8961 311.129 80.6344 310.848 80.2971 310.643C79.9636 310.437 79.5719 310.334 79.1222 310.334C78.6335 310.334 78.207 310.455 77.8425 310.695C77.4819 310.931 77.2027 311.242 77.005 311.626C76.8111 312.005 76.7141 312.418 76.7141 312.864V313.882C76.7141 314.479 76.8188 314.987 77.0282 315.407C77.2415 315.825 77.5381 316.145 77.9181 316.366C78.2981 316.583 78.7422 316.691 79.2501 316.691C79.5797 316.691 79.8802 316.645 80.1517 316.552C80.4231 316.455 80.6577 316.312 80.8554 316.122C81.0532 315.932 81.2044 315.697 81.3091 315.417L82.9551 315.714C82.8233 316.199 82.5868 316.624 82.2456 316.988C81.9082 317.349 81.4836 317.631 80.9717 317.832C80.4638 318.029 79.8841 318.128 79.2326 318.128ZM84.8315 317.948V309.014H86.5124V310.433H86.6055C86.7684 309.952 87.0553 309.575 87.4663 309.299C87.8813 309.02 88.3504 308.88 88.8739 308.88C88.9825 308.88 89.1105 308.884 89.2578 308.892C89.4091 308.9 89.5274 308.91 89.6126 308.921V310.585C89.5428 310.565 89.4187 310.544 89.2404 310.52C89.062 310.494 88.8837 310.48 88.7052 310.48C88.2942 310.48 87.9278 310.567 87.6059 310.741C87.288 310.912 87.0359 311.151 86.8498 311.456C86.6637 311.759 86.5707 312.104 86.5707 312.492V317.948H84.8315ZM94.4846 318.128C93.6038 318.128 92.8458 317.94 92.2106 317.564C91.5782 317.185 91.0896 316.651 90.7444 315.964C90.4032 315.275 90.2326 314.466 90.2326 313.539C90.2326 312.624 90.4032 311.818 90.7444 311.12C91.0896 310.422 91.57 309.877 92.187 309.486C92.8076 309.093 93.5328 308.898 94.3627 308.898C94.8668 308.898 95.3545 308.981 95.8277 309.148C96.3009 309.314 96.7258 309.577 97.1016 309.933C97.4783 310.29 97.775 310.753 97.9916 311.323C98.209 311.89 98.3173 312.578 98.3173 313.388V314.004H91.2156V312.701H96.613C96.613 312.245 96.5202 311.839 96.3336 311.486C96.148 311.129 95.8859 310.848 95.5492 310.643C95.2153 310.437 94.824 310.334 94.3736 310.334C93.8849 310.334 93.4591 310.455 93.0942 310.695C92.7338 310.931 92.4545 311.242 92.257 311.626C92.0632 312.005 91.9659 312.418 91.9659 312.864V313.882C91.9659 314.479 92.0705 314.987 92.2798 315.407C92.4936 315.825 92.7903 316.145 93.1697 316.366C93.5501 316.583 93.9941 316.691 94.5019 316.691C94.8313 316.691 95.1316 316.645 95.4037 316.552C95.6748 316.455 95.9096 316.312 96.107 316.122C96.3054 315.932 96.4565 315.697 96.5611 315.417L98.2072 315.714C98.0753 316.199 97.8387 316.624 97.4975 316.988C97.1599 317.349 96.7358 317.631 96.2235 317.832C95.7158 318.029 95.1361 318.128 94.4846 318.128ZM105.354 321.299C105.094 321.299 104.857 321.277 104.644 321.235C104.43 321.196 104.272 321.153 104.167 321.107L104.586 319.682C104.904 319.767 105.187 319.803 105.435 319.792C105.683 319.78 105.902 319.687 106.092 319.512C106.286 319.338 106.457 319.053 106.604 318.658L106.819 318.065L103.55 309.014H105.411L107.674 315.947H107.767L110.03 309.014H111.897L108.215 319.14C108.045 319.606 107.827 319.999 107.563 320.321C107.3 320.647 106.986 320.891 106.622 321.054C106.257 321.217 105.834 321.299 105.354 321.299ZM116.827 318.128C115.99 318.128 115.259 317.936 114.635 317.552C114.01 317.168 113.525 316.631 113.18 315.942C112.835 315.251 112.663 314.445 112.663 313.522C112.663 312.595 112.835 311.785 113.18 311.091C113.525 310.396 114.01 309.858 114.635 309.474C115.259 309.09 115.99 308.898 116.827 308.898C117.665 308.898 118.395 309.09 119.02 309.474C119.644 309.858 120.129 310.396 120.474 311.091C120.819 311.785 120.992 312.595 120.992 313.522C120.992 314.445 120.819 315.251 120.474 315.942C120.129 316.631 119.644 317.168 119.02 317.552C118.395 317.936 117.665 318.128 116.827 318.128ZM116.833 316.669C117.375 316.669 117.826 316.525 118.182 316.238C118.539 315.951 118.803 315.569 118.973 315.093C119.148 314.615 119.235 314.09 119.235 313.516C119.235 312.946 119.148 312.423 118.973 311.945C118.803 311.465 118.539 311.079 118.182 310.788C117.826 310.497 117.375 310.352 116.833 310.352C116.286 310.352 115.832 310.497 115.472 310.788C115.115 311.079 114.849 311.465 114.675 311.945C114.504 312.423 114.419 312.946 114.419 313.516C114.419 314.09 114.504 314.615 114.675 315.093C114.849 315.569 115.115 315.951 115.472 316.238C115.832 316.525 116.286 316.669 116.833 316.669ZM128.429 314.243V309.014H130.174V317.948H128.463V316.401H128.37C128.165 316.878 127.835 317.276 127.381 317.593C126.932 317.907 126.371 318.065 125.701 318.065C125.126 318.065 124.619 317.938 124.176 317.686C123.739 317.43 123.394 317.053 123.142 316.552C122.893 316.052 122.769 315.434 122.769 314.697V309.014H124.508V314.488C124.508 315.096 124.677 315.58 125.014 315.942C125.352 316.302 125.79 316.482 126.328 316.482C126.654 316.482 126.978 316.401 127.3 316.238C127.626 316.075 127.895 315.829 128.108 315.499C128.326 315.17 128.432 314.751 128.429 314.243ZM138.454 317.948L135.826 309.014H137.623L139.373 315.575H139.461L141.217 309.014H143.014L144.759 315.546H144.847L146.586 309.014H148.383L145.759 317.948H143.986L142.171 311.497H142.037L140.222 317.948H138.454ZM153.361 318.128C152.523 318.128 151.792 317.936 151.168 317.552C150.544 317.168 150.059 316.631 149.714 315.942C149.368 315.251 149.196 314.445 149.196 313.522C149.196 312.595 149.368 311.785 149.714 311.091C150.059 310.396 150.544 309.858 151.168 309.474C151.792 309.09 152.523 308.898 153.361 308.898C154.198 308.898 154.929 309.09 155.553 309.474C156.178 309.858 156.663 310.396 157.007 311.091C157.353 311.785 157.525 312.595 157.525 313.522C157.525 314.445 157.353 315.251 157.007 315.942C156.663 316.631 156.178 317.168 155.553 317.552C154.929 317.936 154.198 318.128 153.361 318.128ZM153.367 316.669C153.91 316.669 154.359 316.525 154.716 316.238C155.073 315.951 155.337 315.569 155.507 315.093C155.682 314.615 155.769 314.09 155.769 313.516C155.769 312.946 155.682 312.423 155.507 311.945C155.337 311.465 155.073 311.079 154.716 310.788C154.359 310.497 153.91 310.352 153.367 310.352C152.82 310.352 152.366 310.497 152.005 310.788C151.649 311.079 151.383 311.465 151.208 311.945C151.038 312.423 150.953 312.946 150.953 313.516C150.953 314.09 151.038 314.615 151.208 315.093C151.383 315.569 151.649 315.951 152.005 316.238C152.366 316.525 152.82 316.669 153.367 316.669ZM159.303 317.948V309.014H160.984V310.433H161.077C161.24 309.952 161.526 309.575 161.938 309.299C162.352 309.02 162.822 308.88 163.345 308.88C163.454 308.88 163.582 308.884 163.729 308.892C163.88 308.9 163.999 308.91 164.084 308.921V310.585C164.014 310.565 163.89 310.544 163.712 310.52C163.534 310.494 163.355 310.48 163.177 310.48C162.766 310.48 162.399 310.567 162.078 310.741C161.759 310.912 161.507 311.151 161.321 311.456C161.135 311.759 161.042 312.104 161.042 312.492V317.948H159.303ZM167.025 314.918L167.013 312.795H167.315L170.875 309.014H172.957L168.898 313.318H168.624L167.025 314.918ZM165.425 317.948V306.036H167.164V317.948H165.425ZM171.067 317.948L167.868 313.702L169.066 312.487L173.202 317.948H171.067Z" fill="white"/>
<path d="M33.7599 317.948H31.8521L36.1388 306.036H38.2153L42.502 317.948H40.5942L37.2265 308.2H37.1334L33.7599 317.948ZM34.0798 313.284H40.2685V314.796H34.0798V313.284ZM45.8558 306.036V317.948H44.0584V306.036H45.8558ZM54.2775 317.948L51.6485 309.014H53.4458L55.1965 315.575H55.2838L57.0403 309.014H58.8377L60.5826 315.546H60.6699L62.409 309.014H64.2062L61.583 317.948H59.809L57.9942 311.497H57.8605L56.0458 317.948H54.2775ZM67.432 312.643V317.948H65.6929V306.036H67.4087V310.468H67.5193C67.7286 309.987 68.0485 309.606 68.479 309.323C68.9094 309.04 69.4717 308.898 70.1657 308.898C70.7783 308.898 71.3135 309.023 71.7711 309.275C72.2325 309.527 72.5892 309.904 72.8413 310.405C73.0972 310.9 73.2252 311.521 73.2252 312.265V317.948H71.486V312.475C71.486 311.82 71.3174 311.312 70.98 310.951C70.6427 310.587 70.1735 310.405 69.5725 310.405C69.1614 310.405 68.793 310.491 68.4673 310.666C68.1455 310.84 67.8915 311.096 67.7053 311.434C67.5231 311.767 67.432 312.171 67.432 312.643ZM79.2326 318.128C78.3524 318.128 77.5943 317.94 76.9584 317.564C76.3263 317.185 75.8378 316.651 75.4926 315.964C75.1514 315.275 74.9808 314.466 74.9808 313.539C74.9808 312.624 75.1514 311.818 75.4926 311.12C75.8378 310.422 76.3186 309.877 76.9352 309.486C77.5556 309.093 78.2807 308.898 79.1105 308.898C79.6146 308.898 80.1032 308.981 80.5763 309.148C81.0493 309.314 81.4739 309.577 81.85 309.933C82.2262 310.29 82.5228 310.753 82.7399 311.323C82.9571 311.89 83.0657 312.578 83.0657 313.388V314.004H75.9638V312.701H81.3615C81.3615 312.245 81.2684 311.839 81.0823 311.486C80.8961 311.129 80.6344 310.848 80.2971 310.643C79.9636 310.437 79.5719 310.334 79.1222 310.334C78.6335 310.334 78.207 310.455 77.8425 310.695C77.4819 310.931 77.2027 311.242 77.005 311.626C76.8111 312.005 76.7141 312.418 76.7141 312.864V313.882C76.7141 314.479 76.8188 314.987 77.0282 315.407C77.2415 315.825 77.5381 316.145 77.9181 316.366C78.2981 316.583 78.7422 316.691 79.2501 316.691C79.5797 316.691 79.8802 316.645 80.1517 316.552C80.4231 316.455 80.6577 316.312 80.8554 316.122C81.0532 315.932 81.2044 315.697 81.3091 315.417L82.9551 315.714C82.8233 316.199 82.5868 316.624 82.2456 316.988C81.9082 317.349 81.4836 317.631 80.9717 317.832C80.4638 318.029 79.8841 318.128 79.2326 318.128ZM84.8315 317.948V309.014H86.5124V310.433H86.6055C86.7684 309.952 87.0553 309.575 87.4663 309.299C87.8813 309.02 88.3504 308.88 88.8739 308.88C88.9825 308.88 89.1105 308.884 89.2578 308.892C89.4091 308.9 89.5274 308.91 89.6126 308.921V310.585C89.5428 310.565 89.4187 310.544 89.2404 310.52C89.062 310.494 88.8837 310.48 88.7052 310.48C88.2942 310.48 87.9278 310.567 87.6059 310.741C87.288 310.912 87.0359 311.151 86.8498 311.456C86.6637 311.759 86.5707 312.104 86.5707 312.492V317.948H84.8315ZM94.4846 318.128C93.6038 318.128 92.8458 317.94 92.2106 317.564C91.5782 317.185 91.0896 316.651 90.7444 315.964C90.4032 315.275 90.2326 314.466 90.2326 313.539C90.2326 312.624 90.4032 311.818 90.7444 311.12C91.0896 310.422 91.57 309.877 92.187 309.486C92.8076 309.093 93.5328 308.898 94.3627 308.898C94.8668 308.898 95.3545 308.981 95.8277 309.148C96.3009 309.314 96.7258 309.577 97.1016 309.933C97.4783 310.29 97.775 310.753 97.9916 311.323C98.209 311.89 98.3173 312.578 98.3173 313.388V314.004H91.2156V312.701H96.613C96.613 312.245 96.5202 311.839 96.3336 311.486C96.148 311.129 95.8859 310.848 95.5492 310.643C95.2153 310.437 94.824 310.334 94.3736 310.334C93.8849 310.334 93.4591 310.455 93.0942 310.695C92.7338 310.931 92.4545 311.242 92.257 311.626C92.0632 312.005 91.9659 312.418 91.9659 312.864V313.882C91.9659 314.479 92.0705 314.987 92.2798 315.407C92.4936 315.825 92.7903 316.145 93.1697 316.366C93.5501 316.583 93.9941 316.691 94.5019 316.691C94.8313 316.691 95.1316 316.645 95.4037 316.552C95.6748 316.455 95.9096 316.312 96.107 316.122C96.3054 315.932 96.4565 315.697 96.5611 315.417L98.2072 315.714C98.0753 316.199 97.8387 316.624 97.4975 316.988C97.1599 317.349 96.7358 317.631 96.2235 317.832C95.7158 318.029 95.1361 318.128 94.4846 318.128ZM105.354 321.299C105.094 321.299 104.857 321.277 104.644 321.235C104.43 321.196 104.272 321.153 104.167 321.107L104.586 319.682C104.904 319.767 105.187 319.803 105.435 319.792C105.683 319.78 105.902 319.687 106.092 319.512C106.286 319.338 106.457 319.053 106.604 318.658L106.819 318.065L103.55 309.014H105.411L107.674 315.947H107.767L110.03 309.014H111.897L108.215 319.14C108.045 319.606 107.827 319.999 107.563 320.321C107.3 320.647 106.986 320.891 106.622 321.054C106.257 321.217 105.834 321.299 105.354 321.299ZM116.827 318.128C115.99 318.128 115.259 317.936 114.635 317.552C114.01 317.168 113.525 316.631 113.18 315.942C112.835 315.251 112.663 314.445 112.663 313.522C112.663 312.595 112.835 311.785 113.18 311.091C113.525 310.396 114.01 309.858 114.635 309.474C115.259 309.09 115.99 308.898 116.827 308.898C117.665 308.898 118.395 309.09 119.02 309.474C119.644 309.858 120.129 310.396 120.474 311.091C120.819 311.785 120.992 312.595 120.992 313.522C120.992 314.445 120.819 315.251 120.474 315.942C120.129 316.631 119.644 317.168 119.02 317.552C118.395 317.936 117.665 318.128 116.827 318.128ZM116.833 316.669C117.375 316.669 117.826 316.525 118.182 316.238C118.539 315.951 118.803 315.569 118.973 315.093C119.148 314.615 119.235 314.09 119.235 313.516C119.235 312.946 119.148 312.423 118.973 311.945C118.803 311.465 118.539 311.079 118.182 310.788C117.826 310.497 117.375 310.352 116.833 310.352C116.286 310.352 115.832 310.497 115.472 310.788C115.115 311.079 114.849 311.465 114.675 311.945C114.504 312.423 114.419 312.946 114.419 313.516C114.419 314.09 114.504 314.615 114.675 315.093C114.849 315.569 115.115 315.951 115.472 316.238C115.832 316.525 116.286 316.669 116.833 316.669ZM128.429 314.243V309.014H130.174V317.948H128.463V316.401H128.37C128.165 316.878 127.835 317.276 127.381 317.593C126.932 317.907 126.371 318.065 125.701 318.065C125.126 318.065 124.619 317.938 124.176 317.686C123.739 317.43 123.394 317.053 123.142 316.552C122.893 316.052 122.769 315.434 122.769 314.697V309.014H124.508V314.488C124.508 315.096 124.677 315.58 125.014 315.942C125.352 316.302 125.79 316.482 126.328 316.482C126.654 316.482 126.978 316.401 127.3 316.238C127.626 316.075 127.895 315.829 128.108 315.499C128.326 315.17 128.432 314.751 128.429 314.243ZM138.454 317.948L135.826 309.014H137.623L139.373 315.575H139.461L141.217 309.014H143.014L144.759 315.546H144.847L146.586 309.014H148.383L145.759 317.948H143.986L142.171 311.497H142.037L140.222 317.948H138.454ZM153.361 318.128C152.523 318.128 151.792 317.936 151.168 317.552C150.544 317.168 150.059 316.631 149.714 315.942C149.368 315.251 149.196 314.445 149.196 313.522C149.196 312.595 149.368 311.785 149.714 311.091C150.059 310.396 150.544 309.858 151.168 309.474C151.792 309.09 152.523 308.898 153.361 308.898C154.198 308.898 154.929 309.09 155.553 309.474C156.178 309.858 156.663 310.396 157.007 311.091C157.353 311.785 157.525 312.595 157.525 313.522C157.525 314.445 157.353 315.251 157.007 315.942C156.663 316.631 156.178 317.168 155.553 317.552C154.929 317.936 154.198 318.128 153.361 318.128ZM153.367 316.669C153.91 316.669 154.359 316.525 154.716 316.238C155.073 315.951 155.337 315.569 155.507 315.093C155.682 314.615 155.769 314.09 155.769 313.516C155.769 312.946 155.682 312.423 155.507 311.945C155.337 311.465 155.073 311.079 154.716 310.788C154.359 310.497 153.91 310.352 153.367 310.352C152.82 310.352 152.366 310.497 152.005 310.788C151.649 311.079 151.383 311.465 151.208 311.945C151.038 312.423 150.953 312.946 150.953 313.516C150.953 314.09 151.038 314.615 151.208 315.093C151.383 315.569 151.649 315.951 152.005 316.238C152.366 316.525 152.82 316.669 153.367 316.669ZM159.303 317.948V309.014H160.984V310.433H161.077C161.24 309.952 161.526 309.575 161.938 309.299C162.352 309.02 162.822 308.88 163.345 308.88C163.454 308.88 163.582 308.884 163.729 308.892C163.88 308.9 163.999 308.91 164.084 308.921V310.585C164.014 310.565 163.89 310.544 163.712 310.52C163.534 310.494 163.355 310.48 163.177 310.48C162.766 310.48 162.399 310.567 162.078 310.741C161.759 310.912 161.507 311.151 161.321 311.456C161.135 311.759 161.042 312.104 161.042 312.492V317.948H159.303ZM167.025 314.918L167.013 312.795H167.315L170.875 309.014H172.957L168.898 313.318H168.624L167.025 314.918ZM165.425 317.948V306.036H167.164V317.948H165.425ZM171.067 317.948L167.868 313.702L169.066 312.487L173.202 317.948H171.067Z" fill="url(#paint5_linear_1_94)"/>
<path d="M36.0358 340.697H32.6079V330.109H36.1443C37.1818 330.109 38.0728 330.321 38.8173 330.744C39.5619 331.165 40.1322 331.77 40.5287 332.559C40.9284 333.345 41.1283 334.287 41.1283 335.387C41.1283 336.49 40.9268 337.439 40.5235 338.231C40.1237 339.024 39.5446 339.633 38.7863 340.061C38.0279 340.485 37.1112 340.697 36.0358 340.697ZM34.2055 339.301H35.9479C36.7544 339.301 37.4248 339.149 37.9591 338.846C38.4933 338.54 38.8931 338.096 39.1586 337.518C39.4239 336.935 39.5567 336.225 39.5567 335.387C39.5567 334.557 39.4239 333.851 39.1586 333.273C38.8966 332.694 38.5054 332.255 37.9849 331.954C37.4644 331.654 36.8182 331.505 36.0461 331.505H34.2055V339.301ZM46.268 340.857C45.4856 340.857 44.8117 340.69 44.2465 340.356C43.6847 340.018 43.2503 339.544 42.9436 338.934C42.6402 338.32 42.4886 337.601 42.4886 336.778C42.4886 335.964 42.6402 335.247 42.9436 334.628C43.2503 334.007 43.6778 333.523 44.2258 333.174C44.7772 332.826 45.4219 332.652 46.1595 332.652C46.6075 332.652 47.0418 332.727 47.4623 332.874C47.8828 333.023 48.2603 333.255 48.5946 333.572C48.9289 333.89 49.1926 334.302 49.3856 334.808C49.5786 335.311 49.6752 335.923 49.6752 336.643V337.192H43.3624V336.034H48.1603C48.1603 335.627 48.0775 335.266 47.9121 334.953C47.7467 334.636 47.514 334.386 47.2142 334.204C46.9177 334.021 46.5696 333.929 46.1697 333.929C45.7355 333.929 45.3563 334.036 45.0323 334.25C44.7118 334.46 44.4636 334.736 44.2878 335.077C44.1155 335.415 44.0294 335.781 44.0294 336.178V337.083C44.0294 337.614 44.1224 338.065 44.3085 338.438C44.4981 338.81 44.7618 339.095 45.0995 339.291C45.4373 339.484 45.832 339.581 46.2835 339.581C46.5765 339.581 46.8437 339.539 47.0849 339.456C47.3262 339.37 47.5347 339.243 47.7105 339.074C47.8863 338.904 48.0207 338.696 48.1138 338.448L49.5769 338.712C49.4598 339.143 49.2495 339.52 48.9462 339.844C48.6463 340.165 48.2688 340.414 47.8138 340.593C47.3623 340.77 46.847 340.857 46.268 340.857ZM51.2447 343.675V332.756H52.7544V334.043H52.8837C52.9734 333.878 53.1026 333.686 53.2715 333.469C53.4404 333.252 53.6748 333.063 53.9746 332.901C54.2745 332.735 54.6709 332.652 55.1638 332.652C55.8049 332.652 56.377 332.814 56.8802 333.138C57.3835 333.462 57.7782 333.929 58.0643 334.539C58.3537 335.149 58.4985 335.883 58.4985 336.741C58.4985 337.6 58.3555 338.336 58.0694 338.95C57.7834 339.56 57.3904 340.03 56.8906 340.361C56.3908 340.689 55.8204 340.852 55.1793 340.852C54.6967 340.852 54.3021 340.771 53.9953 340.609C53.692 340.447 53.4542 340.258 53.2818 340.04C53.1095 339.824 52.9768 339.631 52.8837 339.461H52.7906V343.675H51.2447ZM52.7596 336.726C52.7596 337.285 52.8406 337.774 53.0027 338.195C53.1646 338.615 53.399 338.944 53.7058 339.182C54.0125 339.417 54.3883 339.534 54.8329 339.534C55.2947 339.534 55.6807 339.411 55.991 339.166C56.3012 338.918 56.5356 338.582 56.6942 338.158C56.8561 337.734 56.9371 337.257 56.9371 336.726C56.9371 336.203 56.8579 335.732 56.6993 335.315C56.5442 334.898 56.3098 334.569 55.9961 334.327C55.6859 334.086 55.2982 333.965 54.8329 333.965C54.3848 333.965 54.0056 334.081 53.6954 334.312C53.3887 334.543 53.156 334.865 52.9975 335.278C52.8389 335.692 52.7596 336.175 52.7596 336.726ZM61.6308 330.109V340.697H60.0849V330.109H61.6308ZM66.9101 340.857C66.1656 340.857 65.5159 340.687 64.9609 340.346C64.406 340.005 63.9751 339.527 63.6684 338.914C63.3616 338.3 63.2082 337.583 63.2082 336.762C63.2082 335.939 63.3616 335.218 63.6684 334.601C63.9751 333.984 64.406 333.506 64.9609 333.164C65.5159 332.823 66.1656 332.652 66.9101 332.652C67.6545 332.652 68.3043 332.823 68.8592 333.164C69.4142 333.506 69.845 333.984 70.1518 334.601C70.4585 335.218 70.6119 335.939 70.6119 336.762C70.6119 337.583 70.4585 338.3 70.1518 338.914C69.845 339.527 69.4142 340.005 68.8592 340.346C68.3043 340.687 67.6545 340.857 66.9101 340.857ZM66.9152 339.56C67.3977 339.56 67.7976 339.432 68.1147 339.177C68.4318 338.922 68.6662 338.582 68.8178 338.158C68.973 337.734 69.0505 337.267 69.0505 336.757C69.0505 336.251 68.973 335.785 68.8178 335.361C68.6662 334.934 68.4318 334.591 68.1147 334.333C67.7976 334.074 67.3977 333.945 66.9152 333.945C66.4292 333.945 66.026 334.074 65.7054 334.333C65.3883 334.591 65.1522 334.934 64.9971 335.361C64.8454 335.785 64.7696 336.251 64.7696 336.757C64.7696 337.267 64.8454 337.734 64.9971 338.158C65.1522 338.582 65.3883 338.922 65.7054 339.177C66.026 339.432 66.4292 339.56 66.9152 339.56ZM72.8989 343.675C72.6679 343.675 72.4577 343.656 72.2682 343.618C72.0785 343.583 71.9372 343.546 71.8441 343.504L72.2164 342.238C72.499 342.314 72.7507 342.347 72.9713 342.336C73.1919 342.326 73.3866 342.243 73.5555 342.087C73.7278 341.933 73.8795 341.68 74.0105 341.328L74.2018 340.801L71.2962 332.756H72.9506L74.9618 338.918H75.0445L77.0557 332.756H78.7154L75.4426 341.757C75.2909 342.17 75.0979 342.521 74.8635 342.806C74.6292 343.096 74.35 343.313 74.026 343.458C73.702 343.603 73.3263 343.675 72.8989 343.675ZM89.6292 332.89C89.5741 332.401 89.3466 332.022 88.9468 331.752C88.5469 331.48 88.0437 331.345 87.4371 331.345C87.0028 331.345 86.6271 331.413 86.31 331.551C85.9929 331.686 85.7465 331.871 85.5707 332.109C85.3983 332.344 85.3121 332.611 85.3121 332.911C85.3121 333.163 85.3708 333.379 85.488 333.562C85.6085 333.745 85.7654 333.898 85.9584 334.023C86.1549 334.143 86.3652 334.245 86.5892 334.327C86.8132 334.407 87.0286 334.472 87.2354 334.524L88.2695 334.792C88.6073 334.875 88.9537 334.987 89.3087 335.129C89.6637 335.27 89.9929 335.457 90.2962 335.687C90.5995 335.918 90.8442 336.204 91.0304 336.546C91.2199 336.886 91.3147 337.295 91.3147 337.771C91.3147 338.37 91.1596 338.903 90.8494 339.369C90.5427 339.834 90.0963 340.201 89.5103 340.47C88.9278 340.738 88.2229 340.873 87.3958 340.873C86.6029 340.873 85.9171 340.747 85.338 340.495C84.7589 340.244 84.3057 339.887 83.9783 339.425C83.6508 338.96 83.4699 338.409 83.4354 337.771H85.0381C85.0691 338.154 85.1932 338.472 85.4103 338.727C85.631 338.979 85.9119 339.166 86.2531 339.291C86.5978 339.411 86.9752 339.471 87.3854 339.471C87.8369 339.471 88.2385 339.401 88.5901 339.259C88.945 339.115 89.2242 338.915 89.4276 338.66C89.631 338.401 89.7326 338.1 89.7326 337.755C89.7326 337.441 89.6431 337.185 89.4638 336.984C89.288 336.785 89.0484 336.62 88.7451 336.489C88.4453 336.357 88.1058 336.242 87.7266 336.142L86.4754 335.801C85.6275 335.57 84.9554 335.23 84.4591 334.782C83.9661 334.335 83.7197 333.741 83.7197 333.003C83.7197 332.394 83.8852 331.861 84.216 331.406C84.547 330.951 84.995 330.598 85.5603 330.346C86.1256 330.092 86.7633 329.964 87.4733 329.964C88.1902 329.964 88.8227 330.09 89.3707 330.341C89.9222 330.593 90.3565 330.94 90.6736 331.38C90.9907 331.818 91.1561 332.321 91.17 332.89H89.6292ZM96.2996 340.857C95.5307 340.857 94.8692 340.683 94.3141 340.335C93.7627 339.984 93.3387 339.5 93.042 338.883C92.7454 338.266 92.597 337.559 92.597 336.762C92.597 335.956 92.749 335.245 93.052 334.628C93.3559 334.007 93.7827 333.523 94.3341 333.174C94.8865 332.826 95.5362 332.652 96.2842 332.652C96.8866 332.652 97.4243 332.764 97.8966 332.988C98.3689 333.209 98.7501 333.519 99.0395 333.919C99.3325 334.319 99.5063 334.786 99.5618 335.32H98.0568C97.974 334.948 97.7847 334.628 97.488 334.358C97.195 334.09 96.8028 333.955 96.3097 333.955C95.8783 333.955 95.5016 334.069 95.1777 334.296C94.8565 334.52 94.6071 334.841 94.4279 335.258C94.2486 335.671 94.1585 336.161 94.1585 336.726C94.1585 337.306 94.2468 337.805 94.4224 338.226C94.598 338.646 94.8465 338.972 95.1668 339.203C95.4907 339.434 95.872 339.55 96.3097 339.55C96.6027 339.55 96.8684 339.496 97.1059 339.389C97.347 339.278 97.549 339.122 97.711 338.918C97.8766 338.715 97.9912 338.47 98.0568 338.185H99.5618C99.5063 338.698 99.3389 339.156 99.0604 339.56C98.7811 339.963 98.4071 340.28 97.9385 340.511C97.4726 340.742 96.9266 340.857 96.2996 340.857ZM104.415 340.857C103.669 340.857 103.02 340.687 102.465 340.346C101.91 340.005 101.479 339.527 101.172 338.914C100.866 338.3 100.712 337.583 100.712 336.762C100.712 335.939 100.866 335.218 101.172 334.601C101.479 333.984 101.91 333.506 102.465 333.164C103.02 332.823 103.669 332.652 104.415 332.652C105.159 332.652 105.809 332.823 106.364 333.164C106.919 333.506 107.349 333.984 107.656 334.601C107.962 335.218 108.116 335.939 108.116 336.762C108.116 337.583 107.962 338.3 107.656 338.914C107.349 339.527 106.919 340.005 106.364 340.346C105.809 340.687 105.159 340.857 104.415 340.857ZM104.419 339.56C104.902 339.56 105.302 339.432 105.619 339.177C105.936 338.922 106.171 338.582 106.322 338.158C106.477 337.734 106.555 337.267 106.555 336.757C106.555 336.251 106.477 335.785 106.322 335.361C106.171 334.934 105.936 334.591 105.619 334.333C105.302 334.074 104.902 333.945 104.419 333.945C103.933 333.945 103.53 334.074 103.21 334.333C102.892 334.591 102.657 334.934 102.501 335.361C102.35 335.785 102.273 336.251 102.273 336.757C102.273 337.267 102.35 337.734 102.501 338.158C102.657 338.582 102.892 338.922 103.21 339.177C103.53 339.432 103.933 339.56 104.419 339.56ZM114.727 337.404V332.756H116.278V340.697H114.758V339.322H114.675C114.492 339.746 114.199 340.099 113.796 340.381C113.396 340.661 112.898 340.801 112.302 340.801C111.792 340.801 111.34 340.689 110.947 340.464C110.558 340.237 110.251 339.901 110.027 339.456C109.806 339.012 109.696 338.462 109.696 337.807V332.756H111.242V337.62C111.242 338.162 111.392 338.592 111.691 338.914C111.992 339.234 112.381 339.394 112.86 339.394C113.15 339.394 113.438 339.322 113.723 339.177C114.013 339.032 114.253 338.813 114.442 338.52C114.635 338.227 114.73 337.855 114.727 337.404ZM121.917 332.756V333.996H117.579V332.756H121.917ZM118.742 330.853H120.288V338.366C120.288 338.665 120.332 338.891 120.422 339.043C120.512 339.191 120.627 339.292 120.768 339.348C120.913 339.399 121.07 339.425 121.239 339.425C121.363 339.425 121.472 339.417 121.564 339.399C121.658 339.382 121.73 339.369 121.782 339.358L122.061 340.635C121.971 340.67 121.844 340.704 121.678 340.738C121.513 340.776 121.306 340.797 121.058 340.801C120.652 340.807 120.272 340.735 119.92 340.583C119.569 340.431 119.285 340.197 119.068 339.88C118.85 339.563 118.742 339.165 118.742 338.686V330.853ZM128.207 340.697H126.511L130.321 330.109H132.167L135.977 340.697H134.282L131.288 332.032H131.205L128.207 340.697ZM128.491 336.55H133.993V337.894H128.491V336.55ZM137.237 343.675V332.756H138.747V334.043H138.876C138.965 333.878 139.095 333.686 139.264 333.469C139.432 333.252 139.667 333.063 139.966 332.901C140.267 332.735 140.663 332.652 141.156 332.652C141.797 332.652 142.37 332.814 142.873 333.138C143.376 333.462 143.77 333.929 144.057 334.539C144.346 335.149 144.491 335.883 144.491 336.741C144.491 337.6 144.348 338.336 144.061 338.95C143.775 339.56 143.382 340.03 142.883 340.361C142.383 340.689 141.813 340.852 141.171 340.852C140.689 340.852 140.294 340.771 139.987 340.609C139.684 340.447 139.446 340.258 139.274 340.04C139.102 339.824 138.969 339.631 138.876 339.461H138.783V343.675H137.237ZM138.752 336.726C138.752 337.285 138.833 337.774 138.995 338.195C139.157 338.615 139.391 338.944 139.698 339.182C140.005 339.417 140.38 339.534 140.825 339.534C141.287 339.534 141.673 339.411 141.983 339.166C142.293 338.918 142.528 338.582 142.686 338.158C142.848 337.734 142.929 337.257 142.929 336.726C142.929 336.203 142.85 335.732 142.692 335.315C142.536 334.898 142.302 334.569 141.988 334.327C141.678 334.086 141.29 333.965 140.825 333.965C140.377 333.965 139.998 334.081 139.688 334.312C139.38 334.543 139.148 334.865 138.99 335.278C138.831 335.692 138.752 336.175 138.752 336.726ZM146.077 343.675V332.756H147.587V334.043H147.716C147.806 333.878 147.935 333.686 148.104 333.469C148.272 333.252 148.507 333.063 148.807 332.901C149.107 332.735 149.504 332.652 149.996 332.652C150.637 332.652 151.21 332.814 151.713 333.138C152.216 333.462 152.61 333.929 152.897 334.539C153.186 335.149 153.331 335.883 153.331 336.741C153.331 337.6 153.188 338.336 152.901 338.95C152.616 339.56 152.223 340.03 151.723 340.361C151.223 340.689 150.653 340.852 150.011 340.852C149.529 340.852 149.134 340.771 148.828 340.609C148.525 340.447 148.286 340.258 148.114 340.04C147.942 339.824 147.809 339.631 147.716 339.461H147.623V343.675H146.077ZM147.592 336.726C147.592 337.285 147.673 337.774 147.835 338.195C147.997 338.615 148.232 338.944 148.538 339.182C148.845 339.417 149.221 339.534 149.666 339.534C150.127 339.534 150.513 339.411 150.823 339.166C151.133 338.918 151.368 338.582 151.526 338.158C151.688 337.734 151.769 337.257 151.769 336.726C151.769 336.203 151.69 335.732 151.532 335.315C151.376 334.898 151.142 334.569 150.829 334.327C150.518 334.086 150.131 333.965 149.666 333.965C149.217 333.965 148.838 334.081 148.528 334.312C148.221 334.543 147.989 334.865 147.83 335.278C147.671 335.692 147.592 336.175 147.592 336.726ZM160.868 334.694L159.467 334.943C159.408 334.763 159.316 334.593 159.188 334.431C159.064 334.269 158.895 334.136 158.681 334.033C158.468 333.929 158.2 333.878 157.88 333.878C157.442 333.878 157.077 333.976 156.784 334.173C156.491 334.366 156.345 334.615 156.345 334.922C156.345 335.187 156.443 335.401 156.639 335.563C156.835 335.725 157.153 335.858 157.59 335.961L158.852 336.251C159.582 336.419 160.127 336.68 160.486 337.032C160.844 337.383 161.024 337.84 161.024 338.401C161.024 338.877 160.885 339.301 160.61 339.673C160.338 340.042 159.956 340.331 159.467 340.542C158.981 340.753 158.418 340.857 157.776 340.857C156.887 340.857 156.162 340.668 155.599 340.288C155.038 339.906 154.693 339.363 154.566 338.66L156.06 338.432C156.153 338.822 156.345 339.116 156.634 339.317C156.923 339.513 157.301 339.611 157.766 339.611C158.273 339.611 158.678 339.506 158.981 339.296C159.285 339.082 159.436 338.822 159.436 338.515C159.436 338.267 159.343 338.058 159.157 337.89C158.974 337.721 158.693 337.593 158.314 337.507L156.97 337.212C156.229 337.044 155.68 336.774 155.326 336.406C154.974 336.037 154.799 335.57 154.799 335.004C154.799 334.536 154.93 334.125 155.192 333.774C155.453 333.423 155.815 333.149 156.277 332.952C156.739 332.752 157.268 332.652 157.864 332.652C158.722 332.652 159.398 332.839 159.891 333.211C160.384 333.579 160.71 334.074 160.868 334.694ZM169.992 332.756V333.996H165.654V332.756H169.992ZM166.817 330.853H168.363V338.366C168.363 338.665 168.408 338.891 168.498 339.043C168.587 339.191 168.703 339.292 168.844 339.348C168.989 339.399 169.146 339.425 169.314 339.425C169.439 339.425 169.547 339.417 169.64 339.399C169.734 339.382 169.806 339.369 169.857 339.358L170.137 340.635C170.047 340.67 169.919 340.704 169.754 340.738C169.589 340.776 169.382 340.797 169.134 340.801C168.727 340.807 168.348 340.735 167.997 340.583C167.644 340.431 167.361 340.197 167.143 339.88C166.926 339.563 166.817 339.165 166.817 338.686V330.853ZM174.816 340.857C174.071 340.857 173.422 340.687 172.867 340.346C172.312 340.005 171.881 339.527 171.575 338.914C171.268 338.3 171.114 337.583 171.114 336.762C171.114 335.939 171.268 335.218 171.575 334.601C171.881 333.984 172.312 333.506 172.867 333.164C173.422 332.823 174.071 332.652 174.816 332.652C175.561 332.652 176.211 332.823 176.765 333.164C177.32 333.506 177.751 333.984 178.058 334.601C178.365 335.218 178.518 335.939 178.518 336.762C178.518 337.583 178.365 338.3 178.058 338.914C177.751 339.527 177.32 340.005 176.765 340.346C176.211 340.687 175.561 340.857 174.816 340.857ZM174.821 339.56C175.304 339.56 175.704 339.432 176.021 339.177C176.338 338.922 176.572 338.582 176.724 338.158C176.879 337.734 176.957 337.267 176.957 336.757C176.957 336.251 176.879 335.785 176.724 335.361C176.572 334.934 176.338 334.591 176.021 334.333C175.704 334.074 175.304 333.945 174.821 333.945C174.335 333.945 173.932 334.074 173.612 334.333C173.294 334.591 173.059 334.934 172.903 335.361C172.751 335.785 172.676 336.251 172.676 336.757C172.676 337.267 172.751 337.734 172.903 338.158C173.059 338.582 173.294 338.922 173.612 339.177C173.932 339.432 174.335 339.56 174.821 339.56ZM189.704 332.89C189.65 332.401 189.422 332.022 189.022 331.752C188.622 331.48 188.119 331.345 187.512 331.345C187.078 331.345 186.702 331.413 186.386 331.551C186.068 331.686 185.822 331.871 185.646 332.109C185.474 332.344 185.388 332.611 185.388 332.911C185.388 333.163 185.446 333.379 185.563 333.562C185.684 333.745 185.841 333.898 186.034 334.023C186.23 334.143 186.44 334.245 186.664 334.327C186.889 334.407 187.104 334.472 187.311 334.524L188.345 334.792C188.683 334.875 189.029 334.987 189.384 335.129C189.739 335.27 190.068 335.457 190.371 335.687C190.675 335.918 190.919 336.204 191.106 336.546C191.295 336.886 191.391 337.295 191.391 337.771C191.391 338.37 191.235 338.903 190.925 339.369C190.618 339.834 190.172 340.201 189.586 340.47C189.003 340.738 188.299 340.873 187.471 340.873C186.678 340.873 185.993 340.747 185.413 340.495C184.834 340.244 184.381 339.887 184.054 339.425C183.726 338.96 183.545 338.409 183.51 337.771H185.114C185.145 338.154 185.268 338.472 185.486 338.727C185.706 338.979 185.987 339.166 186.328 339.291C186.673 339.411 187.051 339.471 187.46 339.471C187.913 339.471 188.314 339.401 188.665 339.259C189.02 339.115 189.299 338.915 189.503 338.66C189.706 338.401 189.808 338.1 189.808 337.755C189.808 337.441 189.718 337.185 189.539 336.984C189.363 336.785 189.124 336.62 188.821 336.489C188.521 336.357 188.181 336.242 187.802 336.142L186.551 335.801C185.703 335.57 185.031 335.23 184.534 334.782C184.042 334.335 183.795 333.741 183.795 333.003C183.795 332.394 183.961 331.861 184.291 331.406C184.622 330.951 185.07 330.598 185.636 330.346C186.201 330.092 186.839 329.964 187.549 329.964C188.266 329.964 188.898 330.09 189.446 330.341C189.997 330.593 190.431 330.94 190.749 331.38C191.066 331.818 191.231 332.321 191.245 332.89H189.704ZM194.575 330.109V340.697H193.029V330.109H194.575ZM198.82 340.873C198.317 340.873 197.862 340.78 197.455 340.593C197.049 340.404 196.727 340.13 196.489 339.772C196.254 339.413 196.137 338.974 196.137 338.453C196.137 338.005 196.223 337.636 196.396 337.347C196.568 337.057 196.801 336.828 197.094 336.659C197.387 336.49 197.714 336.363 198.076 336.276C198.438 336.19 198.807 336.125 199.182 336.08C199.658 336.025 200.044 335.98 200.341 335.945C200.637 335.908 200.852 335.847 200.987 335.765C201.122 335.682 201.189 335.548 201.189 335.361V335.326C201.189 334.873 201.061 334.524 200.806 334.276C200.555 334.027 200.179 333.903 199.679 333.903C199.159 333.903 198.748 334.019 198.448 334.25C198.151 334.478 197.947 334.73 197.833 335.01L196.381 334.679C196.553 334.196 196.804 333.807 197.135 333.51C197.469 333.211 197.854 332.993 198.288 332.859C198.722 332.721 199.179 332.652 199.658 332.652C199.975 332.652 200.312 332.69 200.667 332.766C201.025 332.839 201.359 332.972 201.669 333.169C201.983 333.366 202.24 333.647 202.44 334.012C202.639 334.374 202.739 334.844 202.739 335.424V340.697H201.23V339.611H201.168C201.068 339.812 200.918 340.007 200.718 340.201C200.518 340.394 200.262 340.554 199.948 340.682C199.634 340.809 199.258 340.873 198.82 340.873ZM199.157 339.632C199.584 339.632 199.95 339.548 200.253 339.379C200.559 339.21 200.792 338.989 200.951 338.717C201.112 338.441 201.193 338.146 201.193 337.833V336.809C201.139 336.864 201.031 336.916 200.873 336.964C200.718 337.009 200.54 337.049 200.341 337.083C200.141 337.114 199.946 337.144 199.757 337.171C199.566 337.196 199.408 337.216 199.281 337.233C198.98 337.271 198.707 337.335 198.459 337.424C198.214 337.514 198.018 337.643 197.869 337.812C197.725 337.977 197.652 338.198 197.652 338.474C197.652 338.856 197.794 339.146 198.076 339.342C198.359 339.535 198.719 339.632 199.157 339.632ZM207.998 340.857C207.229 340.857 206.568 340.683 206.013 340.335C205.461 339.984 205.037 339.5 204.741 338.883C204.445 338.266 204.296 337.559 204.296 336.762C204.296 335.956 204.448 335.245 204.751 334.628C205.054 334.007 205.482 333.523 206.033 333.174C206.585 332.826 207.235 332.652 207.983 332.652C208.586 332.652 209.124 332.764 209.596 332.988C210.068 333.209 210.449 333.519 210.738 333.919C211.031 334.319 211.206 334.786 211.26 335.32H209.756C209.673 334.948 209.484 334.628 209.187 334.358C208.894 334.09 208.501 333.955 208.008 333.955C207.578 333.955 207.2 334.069 206.876 334.296C206.556 334.52 206.306 334.841 206.126 335.258C205.947 335.671 205.858 336.161 205.858 336.726C205.858 337.306 205.945 337.805 206.122 338.226C206.297 338.646 206.545 338.972 206.866 339.203C207.19 339.434 207.57 339.55 208.008 339.55C208.301 339.55 208.567 339.496 208.804 339.389C209.046 339.278 209.247 339.122 209.409 338.918C209.575 338.715 209.691 338.47 209.756 338.185H211.26C211.206 338.698 211.038 339.156 210.759 339.56C210.48 339.963 210.106 340.28 209.637 340.511C209.172 340.742 208.625 340.857 207.998 340.857ZM214.19 338.004L214.179 336.116H214.449L217.613 332.756H219.463L215.855 336.581H215.612L214.19 338.004ZM212.768 340.697V330.109H214.314V340.697H212.768ZM217.783 340.697L214.939 336.923L216.005 335.842L219.681 340.697H217.783ZM227.78 340.857C227.035 340.857 226.385 340.687 225.83 340.346C225.275 340.005 224.844 339.527 224.537 338.914C224.231 338.3 224.078 337.583 224.078 336.762C224.078 335.939 224.231 335.218 224.537 334.601C224.844 333.984 225.275 333.506 225.83 333.164C226.385 332.823 227.035 332.652 227.78 332.652C228.524 332.652 229.174 332.823 229.729 333.164C230.284 333.506 230.714 333.984 231.021 334.601C231.327 335.218 231.481 335.939 231.481 336.762C231.481 337.583 231.327 338.3 231.021 338.914C230.714 339.527 230.284 340.005 229.729 340.346C229.174 340.687 228.524 340.857 227.78 340.857ZM227.784 339.56C228.267 339.56 228.667 339.432 228.984 339.177C229.301 338.922 229.536 338.582 229.687 338.158C229.842 337.734 229.92 337.267 229.92 336.757C229.92 336.251 229.842 335.785 229.687 335.361C229.536 334.934 229.301 334.591 228.984 334.333C228.667 334.074 228.267 333.945 227.784 333.945C227.298 333.945 226.895 334.074 226.575 334.333C226.257 334.591 226.022 334.934 225.867 335.361C225.715 335.785 225.639 336.251 225.639 336.757C225.639 337.267 225.715 337.734 225.867 338.158C226.022 338.582 226.257 338.922 226.575 339.177C226.895 339.432 227.298 339.56 227.784 339.56ZM233.061 340.697V332.756H234.555V334.017H234.638C234.783 333.589 235.038 333.254 235.403 333.009C235.772 332.76 236.189 332.637 236.654 332.637C236.751 332.637 236.865 332.64 236.996 332.647C237.13 332.654 237.235 332.662 237.311 332.673V334.152C237.249 334.134 237.138 334.115 236.98 334.094C236.822 334.071 236.663 334.059 236.504 334.059C236.139 334.059 235.813 334.136 235.528 334.291C235.245 334.443 235.021 334.655 234.855 334.927C234.69 335.196 234.607 335.503 234.607 335.847V340.697H233.061ZM245.763 340.697H242.335V330.109H245.871C246.909 330.109 247.799 330.321 248.545 330.744C249.289 331.165 249.86 331.77 250.255 332.559C250.656 333.345 250.855 334.287 250.855 335.387C250.855 336.49 250.654 337.439 250.251 338.231C249.85 339.024 249.272 339.633 248.513 340.061C247.755 340.485 246.838 340.697 245.763 340.697ZM243.932 339.301H245.675C246.481 339.301 247.152 339.149 247.686 338.846C248.22 338.54 248.62 338.096 248.886 337.518C249.151 336.935 249.284 336.225 249.284 335.387C249.284 334.557 249.151 333.851 248.886 333.273C248.624 332.694 248.233 332.255 247.712 331.954C247.192 331.654 246.545 331.505 245.773 331.505H243.932V339.301ZM252.572 340.697V332.756H254.118V340.697H252.572ZM253.353 331.53C253.084 331.53 252.853 331.441 252.66 331.262C252.47 331.079 252.376 330.861 252.376 330.61C252.376 330.355 252.47 330.138 252.66 329.959C252.853 329.776 253.084 329.685 253.353 329.685C253.622 329.685 253.851 329.776 254.041 329.959C254.234 330.138 254.33 330.355 254.33 330.61C254.33 330.861 254.234 331.079 254.041 331.262C253.851 331.441 253.622 331.53 253.353 331.53ZM262.003 334.694L260.602 334.943C260.543 334.763 260.45 334.593 260.323 334.431C260.198 334.269 260.03 334.136 259.816 334.033C259.602 333.929 259.336 333.878 259.015 333.878C258.577 333.878 258.212 333.976 257.919 334.173C257.626 334.366 257.479 334.615 257.479 334.922C257.479 335.187 257.578 335.401 257.774 335.563C257.971 335.725 258.288 335.858 258.725 335.961L259.986 336.251C260.717 336.419 261.262 336.68 261.621 337.032C261.979 337.383 262.158 337.84 262.158 338.401C262.158 338.877 262.02 339.301 261.744 339.673C261.472 340.042 261.091 340.331 260.602 340.542C260.116 340.753 259.552 340.857 258.912 340.857C258.022 340.857 257.297 340.668 256.735 340.288C256.173 339.906 255.828 339.363 255.701 338.66L257.195 338.432C257.288 338.822 257.479 339.116 257.769 339.317C258.058 339.513 258.436 339.611 258.901 339.611C259.408 339.611 259.813 339.506 260.116 339.296C260.42 339.082 260.571 338.822 260.571 338.515C260.571 338.267 260.478 338.058 260.292 337.89C260.109 337.721 259.828 337.593 259.45 337.507L258.105 337.212C257.364 337.044 256.816 336.774 256.46 336.406C256.109 336.037 255.933 335.57 255.933 335.004C255.933 334.536 256.064 334.125 256.327 333.774C256.589 333.423 256.95 333.149 257.412 332.952C257.873 332.752 258.403 332.652 258.999 332.652C259.857 332.652 260.533 332.839 261.026 333.211C261.519 333.579 261.844 334.074 262.003 334.694ZM267.058 340.857C266.289 340.857 265.627 340.683 265.072 340.335C264.521 339.984 264.097 339.5 263.8 338.883C263.504 338.266 263.356 337.559 263.356 336.762C263.356 335.956 263.507 335.245 263.811 334.628C264.114 334.007 264.542 333.523 265.093 333.174C265.644 332.826 266.294 332.652 267.042 332.652C267.645 332.652 268.183 332.764 268.655 332.988C269.127 333.209 269.508 333.519 269.797 333.919C270.09 334.319 270.264 334.786 270.32 335.32H268.816C268.733 334.948 268.543 334.628 268.247 334.358C267.954 334.09 267.561 333.955 267.068 333.955C266.637 333.955 266.26 334.069 265.936 334.296C265.615 334.52 265.365 334.841 265.186 335.258C265.007 335.671 264.917 336.161 264.917 336.726C264.917 337.306 265.005 337.805 265.18 338.226C265.356 338.646 265.604 338.972 265.925 339.203C266.25 339.434 266.63 339.55 267.068 339.55C267.361 339.55 267.626 339.496 267.864 339.389C268.105 339.278 268.307 339.122 268.469 338.918C268.635 338.715 268.75 338.47 268.816 338.185H270.32C270.264 338.698 270.098 339.156 269.818 339.56C269.539 339.963 269.165 340.28 268.696 340.511C268.231 340.742 267.685 340.857 267.058 340.857ZM275.173 340.857C274.428 340.857 273.779 340.687 273.223 340.346C272.668 340.005 272.238 339.527 271.93 338.914C271.624 338.3 271.471 337.583 271.471 336.762C271.471 335.939 271.624 335.218 271.93 334.601C272.238 333.984 272.668 333.506 273.223 333.164C273.779 332.823 274.428 332.652 275.173 332.652C275.917 332.652 276.567 332.823 277.122 333.164C277.677 333.506 278.107 333.984 278.414 334.601C278.721 335.218 278.874 335.939 278.874 336.762C278.874 337.583 278.721 338.3 278.414 338.914C278.107 339.527 277.677 340.005 277.122 340.346C276.567 340.687 275.917 340.857 275.173 340.857ZM275.178 339.56C275.66 339.56 276.06 339.432 276.377 339.177C276.694 338.922 276.929 338.582 277.081 338.158C277.235 337.734 277.313 337.267 277.313 336.757C277.313 336.251 277.235 335.785 277.081 335.361C276.929 334.934 276.694 334.591 276.377 334.333C276.06 334.074 275.66 333.945 275.178 333.945C274.692 333.945 274.288 334.074 273.968 334.333C273.651 334.591 273.415 334.934 273.26 335.361C273.108 335.785 273.032 336.251 273.032 336.757C273.032 337.267 273.108 337.734 273.26 338.158C273.415 338.582 273.651 338.922 273.968 339.177C274.288 339.432 274.692 339.56 275.178 339.56ZM280.454 340.697V332.756H281.948V334.017H282.031C282.176 333.589 282.431 333.254 282.796 333.009C283.166 332.76 283.582 332.637 284.047 332.637C284.144 332.637 284.258 332.64 284.389 332.647C284.523 332.654 284.629 332.662 284.704 332.673V334.152C284.642 334.134 284.531 334.115 284.373 334.094C284.215 334.071 284.056 334.059 283.898 334.059C283.532 334.059 283.207 334.136 282.921 334.291C282.638 334.443 282.414 334.655 282.248 334.927C282.083 335.196 282 335.503 282 335.847V340.697H280.454ZM288.585 340.852C287.944 340.852 287.371 340.689 286.868 340.361C286.369 340.03 285.976 339.56 285.69 338.95C285.407 338.336 285.266 337.6 285.266 336.741C285.266 335.883 285.409 335.149 285.694 334.539C285.985 333.929 286.38 333.462 286.884 333.138C287.387 332.814 287.957 332.652 288.595 332.652C289.088 332.652 289.484 332.735 289.785 332.901C290.088 333.063 290.322 333.252 290.487 333.469C290.656 333.686 290.787 333.878 290.88 334.043H290.974V330.109H292.519V340.697H291.009V339.461H290.88C290.787 339.631 290.653 339.824 290.477 340.04C290.305 340.258 290.067 340.447 289.764 340.609C289.461 340.771 289.068 340.852 288.585 340.852ZM288.926 339.534C289.371 339.534 289.746 339.417 290.053 339.182C290.363 338.944 290.598 338.615 290.756 338.195C290.918 337.774 290.999 337.285 290.999 336.726C290.999 336.175 290.92 335.692 290.762 335.278C290.603 334.865 290.371 334.543 290.064 334.312C289.756 334.081 289.378 333.965 288.926 333.965C288.461 333.965 288.073 334.086 287.763 334.327C287.452 334.569 287.219 334.898 287.059 335.315C286.905 335.732 286.827 336.203 286.827 336.726C286.827 337.257 286.906 337.734 287.065 338.158C287.223 338.582 287.458 338.918 287.768 339.166C288.082 339.411 288.468 339.534 288.926 339.534Z" fill="white" fill-opacity="0.5"/>
<path d="M367.218 68.6213H321.72C313.679 68.6213 307.16 75.1397 307.16 83.1806V128.678C307.16 136.719 313.679 143.237 321.72 143.237H367.218C375.259 143.237 381.777 136.719 381.777 128.678V83.1806C381.777 75.1397 375.259 68.6213 367.218 68.6213Z" fill="url(#paint6_linear_1_94)" fill-opacity="0.05"/>
<path d="M367.218 68.6213H321.72C313.679 68.6213 307.16 75.1397 307.16 83.1806V128.678C307.16 136.719 313.679 143.237 321.72 143.237H367.218C375.259 143.237 381.777 136.719 381.777 128.678V83.1806C381.777 75.1397 375.259 68.6213 367.218 68.6213Z" stroke="#252527" stroke-linecap="round"/>
<g filter="url(#filter3_ddi_1_94)">
<path d="M360.848 78.6309H328.089C322.059 78.6309 317.17 83.5197 317.17 89.5503V122.309C317.17 128.339 322.059 133.228 328.089 133.228H360.848C366.879 133.228 371.768 128.339 371.768 122.309V89.5503C371.768 83.5197 366.879 78.6309 360.848 78.6309Z" fill="url(#paint7_linear_1_94)"/>
<path d="M360.848 78.6309H328.089C322.059 78.6309 317.17 83.5197 317.17 89.5503V122.309C317.17 128.339 322.059 133.228 328.089 133.228H360.848C366.879 133.228 371.768 128.339 371.768 122.309V89.5503C371.768 83.5197 366.879 78.6309 360.848 78.6309Z" fill="black" fill-opacity="0.1"/>
<mask id="mask3_1_94" style="mask-type:luminance" maskUnits="userSpaceOnUse" x="331" y="96" width="27" height="20">
<path d="M357.058 96.3877H331.879V115.47H357.058V96.3877Z" fill="white"/>
</mask>
<g mask="url(#mask3_1_94)">
<g filter="url(#filter4_i_1_94)">
<path d="M353.208 97.9865C351.554 97.2285 349.808 96.6916 348.014 96.3877C347.768 96.8272 347.546 97.2785 347.348 97.7408C345.437 97.4523 343.494 97.4523 341.583 97.7408C341.386 97.2785 341.163 96.8272 340.918 96.3877C339.123 96.6943 337.376 97.233 335.72 97.9901C332.432 102.854 331.541 107.596 331.987 112.273C333.912 113.695 336.066 114.777 338.358 115.471C338.874 114.777 339.329 114.041 339.722 113.271C338.977 112.992 338.258 112.649 337.573 112.245C337.753 112.114 337.93 111.98 338.1 111.849C340.093 112.786 342.267 113.272 344.469 113.272C346.671 113.272 348.846 112.786 350.838 111.849C351.01 111.99 351.186 112.124 351.365 112.245C350.678 112.649 349.958 112.993 349.212 113.273C349.604 114.043 350.06 114.778 350.577 115.471C352.87 114.78 355.025 113.699 356.951 112.275C357.474 106.852 356.058 102.153 353.208 97.9865ZM340.287 109.397C339.045 109.397 338.019 108.27 338.019 106.884C338.019 105.498 339.009 104.361 340.282 104.361C341.556 104.361 342.573 105.498 342.552 106.884C342.53 108.27 341.552 109.397 340.287 109.397ZM348.651 109.397C347.408 109.397 346.386 108.27 346.386 106.884C346.386 105.498 347.376 104.361 348.651 104.361C349.927 104.361 350.937 105.498 350.915 106.884C350.893 108.27 349.917 109.397 348.651 109.397Z" fill="white"/>
<path d="M353.208 97.9865C351.554 97.2285 349.808 96.6916 348.014 96.3877C347.768 96.8272 347.546 97.2785 347.348 97.7408C345.437 97.4523 343.494 97.4523 341.583 97.7408C341.386 97.2785 341.163 96.8272 340.918 96.3877C339.123 96.6943 337.376 97.233 335.72 97.9901C332.432 102.854 331.541 107.596 331.987 112.273C333.912 113.695 336.066 114.777 338.358 115.471C338.874 114.777 339.329 114.041 339.722 113.271C338.977 112.992 338.258 112.649 337.573 112.245C337.753 112.114 337.93 111.98 338.1 111.849C340.093 112.786 342.267 113.272 344.469 113.272C346.671 113.272 348.846 112.786 350.838 111.849C351.01 111.99 351.186 112.124 351.365 112.245C350.678 112.649 349.958 112.993 349.212 113.273C349.604 114.043 350.06 114.778 350.577 115.471C352.87 114.78 355.025 113.699 356.951 112.275C357.474 106.852 356.058 102.153 353.208 97.9865ZM340.287 109.397C339.045 109.397 338.019 108.27 338.019 106.884C338.019 105.498 339.009 104.361 340.282 104.361C341.556 104.361 342.573 105.498 342.552 106.884C342.53 108.27 341.552 109.397 340.287 109.397ZM348.651 109.397C347.408 109.397 346.386 108.27 346.386 106.884C346.386 105.498 347.376 104.361 348.651 104.361C349.927 104.361 350.937 105.498 350.915 106.884C350.893 108.27 349.917 109.397 348.651 109.397Z" fill="url(#paint8_linear_1_94)"/>
</g>
</g>
</g>
<path d="M367.218 175.086H321.72C313.679 175.086 307.16 181.604 307.16 189.645V235.143C307.16 243.183 313.679 249.702 321.72 249.702H367.218C375.259 249.702 381.777 243.183 381.777 235.143V189.645C381.777 181.604 375.259 175.086 367.218 175.086Z" fill="url(#paint9_linear_1_94)" fill-opacity="0.05"/>
<path d="M367.218 175.086H321.72C313.679 175.086 307.16 181.604 307.16 189.645V235.143C307.16 243.183 313.679 249.702 321.72 249.702H367.218C375.259 249.702 381.777 243.183 381.777 235.143V189.645C381.777 181.604 375.259 175.086 367.218 175.086Z" fill="url(#paint10_radial_1_94)" fill-opacity="0.05"/>
<path d="M367.218 175.086H321.72C313.679 175.086 307.16 181.604 307.16 189.645V235.143C307.16 243.183 313.679 249.702 321.72 249.702H367.218C375.259 249.702 381.777 243.183 381.777 235.143V189.645C381.777 181.604 375.259 175.086 367.218 175.086Z" stroke="#252527" stroke-linecap="round"/>
<g filter="url(#filter5_ddi_1_94)">
<path d="M360.848 185.095H328.089C322.059 185.095 317.17 189.984 317.17 196.015V228.773C317.17 234.804 322.059 239.692 328.089 239.692H360.848C366.879 239.692 371.768 234.804 371.768 228.773V196.015C371.768 189.984 366.879 185.095 360.848 185.095Z" fill="#252527"/>
<path d="M360.848 185.095H328.089C322.059 185.095 317.17 189.984 317.17 196.015V228.773C317.17 234.804 322.059 239.692 328.089 239.692H360.848C366.879 239.692 371.768 234.804 371.768 228.773V196.015C371.768 189.984 366.879 185.095 360.848 185.095Z" fill="url(#paint11_linear_1_94)"/>
<path d="M360.848 185.095H328.089C322.059 185.095 317.17 189.984 317.17 196.015V228.773C317.17 234.804 322.059 239.692 328.089 239.692H360.848C366.879 239.692 371.768 234.804 371.768 228.773V196.015C371.768 189.984 366.879 185.095 360.848 185.095Z" fill="black" fill-opacity="0.1"/>
<path d="M360.848 185.095H328.089C322.059 185.095 317.17 189.984 317.17 196.015V228.773C317.17 234.804 322.059 239.692 328.089 239.692H360.848C366.879 239.692 371.768 234.804 371.768 228.773V196.015C371.768 189.984 366.879 185.095 360.848 185.095Z" fill="url(#paint12_radial_1_94)" fill-opacity="0.05"/>
<path d="M360.848 185.55H328.09C322.31 185.55 317.625 190.235 317.625 196.015V228.773C317.625 234.552 322.31 239.237 328.09 239.237H360.848C366.628 239.237 371.313 234.552 371.313 228.773V196.015C371.313 190.235 366.628 185.55 360.848 185.55Z" stroke="url(#paint13_radial_1_94)" stroke-opacity="0.3"/>
<g filter="url(#filter6_i_1_94)">
<path d="M334.188 216.853C333.778 216.444 333.548 215.889 333.548 215.309C333.548 214.73 333.778 214.175 334.188 213.765C334.597 213.356 335.153 213.125 335.732 213.125H337.916V215.309C337.916 215.889 337.685 216.444 337.276 216.853C336.866 217.263 336.311 217.493 335.732 217.493C335.153 217.493 334.597 217.263 334.188 216.853Z" fill="white"/>
<path d="M334.188 216.853C333.778 216.444 333.548 215.889 333.548 215.309C333.548 214.73 333.778 214.175 334.188 213.765C334.597 213.356 335.153 213.125 335.732 213.125H337.916V215.309C337.916 215.889 337.685 216.444 337.276 216.853C336.866 217.263 336.311 217.493 335.732 217.493C335.153 217.493 334.597 217.263 334.188 216.853Z" fill="url(#paint14_linear_1_94)"/>
<path d="M340.019 213.765C340.428 213.356 340.984 213.125 341.563 213.125C342.142 213.125 342.698 213.356 343.107 213.765C343.516 214.175 343.747 214.73 343.747 215.309V221.129C343.747 221.709 343.516 222.264 343.107 222.673C342.698 223.083 342.142 223.313 341.563 223.313C340.984 223.313 340.428 223.083 340.019 222.673C339.609 222.264 339.379 221.709 339.379 221.129V215.309C339.379 214.73 339.609 214.175 340.019 213.765Z" fill="white"/>
<path d="M340.019 213.765C340.428 213.356 340.984 213.125 341.563 213.125C342.142 213.125 342.698 213.356 343.107 213.765C343.516 214.175 343.747 214.73 343.747 215.309V221.129C343.747 221.709 343.516 222.264 343.107 222.673C342.698 223.083 342.142 223.313 341.563 223.313C340.984 223.313 340.428 223.083 340.019 222.673C339.609 222.264 339.379 221.709 339.379 221.129V215.309C339.379 214.73 339.609 214.175 340.019 213.765Z" fill="url(#paint15_linear_1_94)"/>
<path d="M335.732 207.294H341.563C342.142 207.294 342.698 207.525 343.107 207.934C343.516 208.344 343.747 208.899 343.747 209.478C343.747 210.058 343.516 210.613 343.107 211.023C342.698 211.432 342.142 211.662 341.563 211.662H335.732C335.153 211.662 334.597 211.432 334.188 211.023C333.778 210.613 333.548 210.058 333.548 209.478C333.548 208.899 333.778 208.344 334.188 207.934C334.597 207.525 335.153 207.294 335.732 207.294Z" fill="white"/>
<path d="M335.732 207.294H341.563C342.142 207.294 342.698 207.525 343.107 207.934C343.516 208.344 343.747 208.899 343.747 209.478C343.747 210.058 343.516 210.613 343.107 211.023C342.698 211.432 342.142 211.662 341.563 211.662H335.732C335.153 211.662 334.597 211.432 334.188 211.023C333.778 210.613 333.548 210.058 333.548 209.478C333.548 208.899 333.778 208.344 334.188 207.934C334.597 207.525 335.153 207.294 335.732 207.294Z" fill="url(#paint16_linear_1_94)"/>
<path d="M340.019 202.114C340.428 201.705 340.984 201.474 341.563 201.474C342.142 201.474 342.698 201.705 343.107 202.114C343.516 202.524 343.747 203.079 343.747 203.658V205.842H341.563C340.984 205.842 340.428 205.612 340.019 205.202C339.609 204.793 339.379 204.238 339.379 203.658C339.379 203.079 339.609 202.524 340.019 202.114Z" fill="white"/>
<path d="M340.019 202.114C340.428 201.705 340.984 201.474 341.563 201.474C342.142 201.474 342.698 201.705 343.107 202.114C343.516 202.524 343.747 203.079 343.747 203.658V205.842H341.563C340.984 205.842 340.428 205.612 340.019 205.202C339.609 204.793 339.379 204.238 339.379 203.658C339.379 203.079 339.609 202.524 340.019 202.114Z" fill="url(#paint17_linear_1_94)"/>
<path d="M348.896 211.022C348.487 211.432 347.931 211.662 347.352 211.662H347.374C347.085 211.665 346.799 211.61 346.531 211.502C346.264 211.394 346.021 211.234 345.815 211.031C345.61 210.827 345.447 210.586 345.336 210.319C345.225 210.052 345.168 209.767 345.168 209.478V203.658C345.168 203.079 345.398 202.524 345.808 202.114C346.217 201.705 346.772 201.474 347.352 201.474C347.931 201.474 348.487 201.705 348.896 202.114C349.306 202.524 349.536 203.079 349.536 203.658V209.478C349.536 210.058 349.306 210.613 348.896 211.022Z" fill="white"/>
<path d="M348.896 211.022C348.487 211.432 347.931 211.662 347.352 211.662H347.374C347.085 211.665 346.799 211.61 346.531 211.502C346.264 211.394 346.021 211.234 345.815 211.031C345.61 210.827 345.447 210.586 345.336 210.319C345.225 210.052 345.168 209.767 345.168 209.478V203.658C345.168 203.079 345.398 202.524 345.808 202.114C346.217 201.705 346.772 201.474 347.352 201.474C347.931 201.474 348.487 201.705 348.896 202.114C349.306 202.524 349.536 203.079 349.536 203.658V209.478C349.536 210.058 349.306 210.613 348.896 211.022Z" fill="url(#paint18_linear_1_94)"/>
<path d="M354.705 207.934C355.115 208.344 355.345 208.899 355.345 209.478H355.389C355.389 209.769 355.33 210.056 355.218 210.325C355.106 210.592 354.941 210.835 354.733 211.038C354.526 211.242 354.28 211.402 354.01 211.508C353.74 211.616 353.451 211.668 353.161 211.662H350.977V209.478C350.977 208.899 351.207 208.344 351.617 207.934C352.026 207.525 352.581 207.294 353.161 207.294C353.74 207.294 354.296 207.525 354.705 207.934Z" fill="white"/>
<path d="M354.705 207.934C355.115 208.344 355.345 208.899 355.345 209.478H355.389C355.389 209.769 355.33 210.056 355.218 210.325C355.106 210.592 354.941 210.835 354.733 211.038C354.526 211.242 354.28 211.402 354.01 211.508C353.74 211.616 353.451 211.668 353.161 211.662H350.977V209.478C350.977 208.899 351.207 208.344 351.617 207.934C352.026 207.525 352.581 207.294 353.161 207.294C353.74 207.294 354.296 207.525 354.705 207.934Z" fill="url(#paint19_linear_1_94)"/>
<path d="M347.373 218.945H345.189V221.129C345.189 221.562 345.317 221.984 345.557 222.342C345.797 222.702 346.138 222.982 346.538 223.147C346.936 223.312 347.376 223.356 347.799 223.271C348.223 223.187 348.612 222.979 348.917 222.673C349.223 222.368 349.431 221.979 349.515 221.555C349.6 221.132 349.556 220.693 349.391 220.294C349.226 219.895 348.945 219.553 348.587 219.313C348.227 219.074 347.805 218.945 347.373 218.945ZM353.204 213.125H347.373C346.794 213.125 346.238 213.356 345.829 213.765C345.419 214.175 345.189 214.73 345.189 215.309C345.189 215.889 345.419 216.444 345.829 216.853C346.238 217.263 346.794 217.493 347.373 217.493H353.204C353.784 217.493 354.339 217.263 354.748 216.853C355.158 216.444 355.388 215.889 355.388 215.309C355.388 214.73 355.158 214.175 354.748 213.765C354.339 213.356 353.784 213.125 353.204 213.125Z" fill="white"/>
<path d="M347.373 218.945H345.189V221.129C345.189 221.562 345.317 221.984 345.557 222.342C345.797 222.702 346.138 222.982 346.538 223.147C346.936 223.312 347.376 223.356 347.799 223.271C348.223 223.187 348.612 222.979 348.917 222.673C349.223 222.368 349.431 221.979 349.515 221.555C349.6 221.132 349.556 220.693 349.391 220.294C349.226 219.895 348.945 219.553 348.587 219.313C348.227 219.074 347.805 218.945 347.373 218.945ZM353.204 213.125H347.373C346.794 213.125 346.238 213.356 345.829 213.765C345.419 214.175 345.189 214.73 345.189 215.309C345.189 215.889 345.419 216.444 345.829 216.853C346.238 217.263 346.794 217.493 347.373 217.493H353.204C353.784 217.493 354.339 217.263 354.748 216.853C355.158 216.444 355.388 215.889 355.388 215.309C355.388 214.73 355.158 214.175 354.748 213.765C354.339 213.356 353.784 213.125 353.204 213.125Z" fill="url(#paint20_linear_1_94)"/>
</g>
</g>
<path d="M106.972 120.489H61.4734C53.4325 120.489 46.9141 127.007 46.9141 135.048V181.455C46.9141 189.496 53.4325 196.015 61.4734 196.015H106.972C115.012 196.015 121.531 189.496 121.531 181.455V135.048C121.531 127.007 115.012 120.489 106.972 120.489Z" fill="url(#paint21_linear_1_94)" fill-opacity="0.05"/>
<path d="M106.972 120.489H61.4734C53.4325 120.489 46.9141 127.007 46.9141 135.048V181.455C46.9141 189.496 53.4325 196.015 61.4734 196.015H106.972C115.012 196.015 121.531 189.496 121.531 181.455V135.048C121.531 127.007 115.012 120.489 106.972 120.489Z" stroke="#252527" stroke-linecap="round"/>
<g filter="url(#filter7_ddi_1_94)">
<path d="M100.602 130.498H67.8434C61.8127 130.498 56.9238 135.387 56.9238 141.417V174.176C56.9238 180.206 61.8127 185.095 67.8434 185.095H100.602C106.633 185.095 111.522 180.206 111.522 174.176V141.417C111.522 135.387 106.633 130.498 100.602 130.498Z" fill="url(#paint22_linear_1_94)"/>
<path d="M100.602 130.498H67.8434C61.8127 130.498 56.9238 135.387 56.9238 141.417V174.176C56.9238 180.206 61.8127 185.095 67.8434 185.095H100.602C106.633 185.095 111.522 180.206 111.522 174.176V141.417C111.522 135.387 106.633 130.498 100.602 130.498Z" fill="url(#paint23_radial_1_94)" fill-opacity="0.1"/>
<path d="M100.602 130.043H67.8433C61.5613 130.043 56.4688 135.136 56.4688 141.417V174.176C56.4688 180.458 61.5613 185.55 67.8433 185.55H100.602C106.884 185.55 111.976 180.458 111.976 174.176V141.417C111.976 135.136 106.884 130.043 100.602 130.043Z" stroke="white" stroke-opacity="0.04"/>
<path d="M100.602 130.043H67.8433C61.5613 130.043 56.4688 135.136 56.4688 141.417V174.176C56.4688 180.458 61.5613 185.55 67.8433 185.55H100.602C106.884 185.55 111.976 180.458 111.976 174.176V141.417C111.976 135.136 106.884 130.043 100.602 130.043Z" stroke="url(#paint24_radial_1_94)" stroke-opacity="0.3"/>
<path d="M100.602 130.043H67.8433C61.5613 130.043 56.4688 135.136 56.4688 141.417V174.176C56.4688 180.458 61.5613 185.55 67.8433 185.55H100.602C106.884 185.55 111.976 180.458 111.976 174.176V141.417C111.976 135.136 106.884 130.043 100.602 130.043Z" stroke="url(#paint25_radial_1_94)" stroke-opacity="0.1"/>
<g filter="url(#filter8_i_1_94)">
<path fill-rule="evenodd" clip-rule="evenodd" d="M84.4258 170.084C83.4079 170.079 82.5863 169.251 82.5909 168.233L82.6232 160.939L76.1293 164.688C75.2477 165.197 74.1204 164.895 73.6114 164.013C73.1024 163.132 73.4045 162.004 74.286 161.496L80.5359 157.888L74.2246 154.243C73.343 153.735 73.041 152.607 73.55 151.725C74.0589 150.845 75.1863 150.543 76.0678 151.051L82.6502 154.851L82.6834 147.344C82.688 146.326 83.5168 145.504 84.5347 145.509C85.5527 145.513 86.3742 146.342 86.3698 147.36L86.3379 154.537L92.3764 151.051C93.2582 150.543 94.3856 150.845 94.8943 151.725C95.4039 152.607 95.1018 153.735 94.22 154.243L87.9086 157.888L94.1581 161.496C95.0399 162.004 95.342 163.132 94.8333 164.013C94.3238 164.895 93.1972 165.197 92.3155 164.688L86.3084 161.22L86.2771 168.249C86.2727 169.267 85.4438 170.088 84.4258 170.084Z" fill="white"/>
<path fill-rule="evenodd" clip-rule="evenodd" d="M84.4258 170.084C83.4079 170.079 82.5863 169.251 82.5909 168.233L82.6232 160.939L76.1293 164.688C75.2477 165.197 74.1204 164.895 73.6114 164.013C73.1024 163.132 73.4045 162.004 74.286 161.496L80.5359 157.888L74.2246 154.243C73.343 153.735 73.041 152.607 73.55 151.725C74.0589 150.845 75.1863 150.543 76.0678 151.051L82.6502 154.851L82.6834 147.344C82.688 146.326 83.5168 145.504 84.5347 145.509C85.5527 145.513 86.3742 146.342 86.3698 147.36L86.3379 154.537L92.3764 151.051C93.2582 150.543 94.3856 150.845 94.8943 151.725C95.4039 152.607 95.1018 153.735 94.22 154.243L87.9086 157.888L94.1581 161.496C95.0399 162.004 95.342 163.132 94.8333 164.013C94.3238 164.895 93.1972 165.197 92.3155 164.688L86.3084 161.22L86.2771 168.249C86.2727 169.267 85.4438 170.088 84.4258 170.084Z" fill="url(#paint26_linear_1_94)"/>
</g>
</g>
</g>
<path d="M404.525 6.28967H24.1653C16.3757 6.28967 10.061 12.6044 10.061 20.3939V355.256C10.061 363.046 16.3757 369.36 24.1653 369.36H404.525C412.315 369.36 418.63 363.046 418.63 355.256V20.3939C418.63 12.6044 412.315 6.28967 404.525 6.28967Z" stroke="white" stroke-opacity="0.02"/>
</g>
<defs>
<filter id="filter0_d_1_94" x="-0.438965" y="-0.210327" width="429.568" height="384.071" filterUnits="userSpaceOnUse" color-interpolation-filters="sRGB">
<feFlood flood-opacity="0" result="BackgroundImageFix"/>
<feColorMatrix in="SourceAlpha" type="matrix" values="0 0 0 0 0 0 0 0 0 0 0 0 0 0 0 0 0 0 127 0" result="hardAlpha"/>
<feOffset dy="4"/>
<feGaussianBlur stdDeviation="5"/>
<feComposite in2="hardAlpha" operator="out"/>
<feColorMatrix type="matrix" values="0 0 0 0 0 0 0 0 0 0 0 0 0 0 0 0 0 0 0.3 0"/>
<feBlend mode="normal" in2="BackgroundImageFix" result="effect1_dropShadow_1_94"/>
<feBlend mode="normal" in="SourceGraphic" in2="effect1_dropShadow_1_94" result="shape"/>
</filter>
<filter id="filter1_f_1_94" x="33.7002" y="55.4081" width="180.209" height="182.028" filterUnits="userSpaceOnUse" color-interpolation-filters="sRGB">
<feFlood flood-opacity="0" result="BackgroundImageFix"/>
<feBlend mode="normal" in="SourceGraphic" in2="BackgroundImageFix" result="shape"/>
<feGaussianBlur stdDeviation="38" result="effect1_foregroundBlur_1_94"/>
</filter>
<filter id="filter2_f_1_94" x="181.113" y="109.095" width="195.678" height="202.957" filterUnits="userSpaceOnUse" color-interpolation-filters="sRGB">
<feFlood flood-opacity="0" result="BackgroundImageFix"/>
<feBlend mode="normal" in="SourceGraphic" in2="BackgroundImageFix" result="shape"/>
<feGaussianBlur stdDeviation="38" result="effect1_foregroundBlur_1_94"/>
</filter>
<filter id="filter3_ddi_1_94" x="309.17" y="72.6309" width="70.5977" height="70.597" filterUnits="userSpaceOnUse" color-interpolation-filters="sRGB">
<feFlood flood-opacity="0" result="BackgroundImageFix"/>
<feColorMatrix in="SourceAlpha" type="matrix" values="0 0 0 0 0 0 0 0 0 0 0 0 0 0 0 0 0 0 127 0" result="hardAlpha"/>
<feOffset dy="2"/>
<feGaussianBlur stdDeviation="4"/>
<feColorMatrix type="matrix" values="0 0 0 0 0 0 0 0 0 0 0 0 0 0 0 0 0 0 0.2 0"/>
<feBlend mode="normal" in2="BackgroundImageFix" result="effect1_dropShadow_1_94"/>
<feColorMatrix in="SourceAlpha" type="matrix" values="0 0 0 0 0 0 0 0 0 0 0 0 0 0 0 0 0 0 127 0" result="hardAlpha"/>
<feOffset dy="1"/>
<feGaussianBlur stdDeviation="0.5"/>
<feColorMatrix type="matrix" values="0 0 0 0 0 0 0 0 0 0 0 0 0 0 0 0 0 0 0.1 0"/>
<feBlend mode="normal" in2="effect1_dropShadow_1_94" result="effect2_dropShadow_1_94"/>
<feBlend mode="normal" in="SourceGraphic" in2="effect2_dropShadow_1_94" result="shape"/>
<feColorMatrix in="SourceAlpha" type="matrix" values="0 0 0 0 0 0 0 0 0 0 0 0 0 0 0 0 0 0 127 0" result="hardAlpha"/>
<feOffset/>
<feGaussianBlur stdDeviation="2"/>
<feComposite in2="hardAlpha" operator="arithmetic" k2="-1" k3="1"/>
<feColorMatrix type="matrix" values="0 0 0 0 1 0 0 0 0 1 0 0 0 0 1 0 0 0 0.1 0"/>
<feBlend mode="normal" in2="shape" result="effect3_innerShadow_1_94"/>
</filter>
<filter id="filter4_i_1_94" x="331.88" y="95.8877" width="25.1782" height="19.5835" filterUnits="userSpaceOnUse" color-interpolation-filters="sRGB">
<feFlood flood-opacity="0" result="BackgroundImageFix"/>
<feBlend mode="normal" in="SourceGraphic" in2="BackgroundImageFix" result="shape"/>
<feColorMatrix in="SourceAlpha" type="matrix" values="0 0 0 0 0 0 0 0 0 0 0 0 0 0 0 0 0 0 127 0" result="hardAlpha"/>
<feOffset dy="-0.5"/>
<feGaussianBlur stdDeviation="0.5"/>
<feComposite in2="hardAlpha" operator="arithmetic" k2="-1" k3="1"/>
<feColorMatrix type="matrix" values="0 0 0 0 0 0 0 0 0 0 0 0 0 0 0 0 0 0 0.45 0"/>
<feBlend mode="normal" in2="shape" result="effect1_innerShadow_1_94"/>
</filter>
<filter id="filter5_ddi_1_94" x="309.125" y="179.05" width="70.6875" height="70.6871" filterUnits="userSpaceOnUse" color-interpolation-filters="sRGB">
<feFlood flood-opacity="0" result="BackgroundImageFix"/>
<feColorMatrix in="SourceAlpha" type="matrix" values="0 0 0 0 0 0 0 0 0 0 0 0 0 0 0 0 0 0 127 0" result="hardAlpha"/>
<feOffset dy="2"/>
<feGaussianBlur stdDeviation="4"/>
<feColorMatrix type="matrix" values="0 0 0 0 0 0 0 0 0 0 0 0 0 0 0 0 0 0 0.2 0"/>
<feBlend mode="normal" in2="BackgroundImageFix" result="effect1_dropShadow_1_94"/>
<feColorMatrix in="SourceAlpha" type="matrix" values="0 0 0 0 0 0 0 0 0 0 0 0 0 0 0 0 0 0 127 0" result="hardAlpha"/>
<feOffset dy="1"/>
<feGaussianBlur stdDeviation="0.5"/>
<feColorMatrix type="matrix" values="0 0 0 0 0 0 0 0 0 0 0 0 0 0 0 0 0 0 0.1 0"/>
<feBlend mode="normal" in2="effect1_dropShadow_1_94" result="effect2_dropShadow_1_94"/>
<feBlend mode="normal" in="SourceGraphic" in2="effect2_dropShadow_1_94" result="shape"/>
<feColorMatrix in="SourceAlpha" type="matrix" values="0 0 0 0 0 0 0 0 0 0 0 0 0 0 0 0 0 0 127 0" result="hardAlpha"/>
<feOffset/>
<feGaussianBlur stdDeviation="2"/>
<feComposite in2="hardAlpha" operator="arithmetic" k2="-1" k3="1"/>
<feColorMatrix type="matrix" values="0 0 0 0 1 0 0 0 0 1 0 0 0 0 1 0 0 0 0.1 0"/>
<feBlend mode="normal" in2="shape" result="effect3_innerShadow_1_94"/>
</filter>
<filter id="filter6_i_1_94" x="333.548" y="200.974" width="21.8408" height="22.3391" filterUnits="userSpaceOnUse" color-interpolation-filters="sRGB">
<feFlood flood-opacity="0" result="BackgroundImageFix"/>
<feBlend mode="normal" in="SourceGraphic" in2="BackgroundImageFix" result="shape"/>
<feColorMatrix in="SourceAlpha" type="matrix" values="0 0 0 0 0 0 0 0 0 0 0 0 0 0 0 0 0 0 127 0" result="hardAlpha"/>
<feOffset dy="-0.5"/>
<feGaussianBlur stdDeviation="0.5"/>
<feComposite in2="hardAlpha" operator="arithmetic" k2="-1" k3="1"/>
<feColorMatrix type="matrix" values="0 0 0 0 0 0 0 0 0 0 0 0 0 0 0 0 0 0 0.45 0"/>
<feBlend mode="normal" in2="shape" result="effect1_innerShadow_1_94"/>
</filter>
<filter id="filter7_ddi_1_94" x="47.9688" y="123.543" width="72.5078" height="72.5071" filterUnits="userSpaceOnUse" color-interpolation-filters="sRGB">
<feFlood flood-opacity="0" result="BackgroundImageFix"/>
<feColorMatrix in="SourceAlpha" type="matrix" values="0 0 0 0 0 0 0 0 0 0 0 0 0 0 0 0 0 0 127 0" result="hardAlpha"/>
<feOffset dy="2"/>
<feGaussianBlur stdDeviation="4"/>
<feColorMatrix type="matrix" values="0 0 0 0 0 0 0 0 0 0 0 0 0 0 0 0 0 0 0.2 0"/>
<feBlend mode="normal" in2="BackgroundImageFix" result="effect1_dropShadow_1_94"/>
<feColorMatrix in="SourceAlpha" type="matrix" values="0 0 0 0 0 0 0 0 0 0 0 0 0 0 0 0 0 0 127 0" result="hardAlpha"/>
<feOffset dy="1"/>
<feGaussianBlur stdDeviation="0.5"/>
<feColorMatrix type="matrix" values="0 0 0 0 0 0 0 0 0 0 0 0 0 0 0 0 0 0 0.1 0"/>
<feBlend mode="normal" in2="effect1_dropShadow_1_94" result="effect2_dropShadow_1_94"/>
<feBlend mode="normal" in="SourceGraphic" in2="effect2_dropShadow_1_94" result="shape"/>
<feColorMatrix in="SourceAlpha" type="matrix" values="0 0 0 0 0 0 0 0 0 0 0 0 0 0 0 0 0 0 127 0" result="hardAlpha"/>
<feOffset/>
<feGaussianBlur stdDeviation="2"/>
<feComposite in2="hardAlpha" operator="arithmetic" k2="-1" k3="1"/>
<feColorMatrix type="matrix" values="0 0 0 0 1 0 0 0 0 1 0 0 0 0 1 0 0 0 0.1 0"/>
<feBlend mode="normal" in2="shape" result="effect3_innerShadow_1_94"/>
</filter>
<filter id="filter8_i_1_94" x="73.3027" y="145.009" width="21.8394" height="25.0751" filterUnits="userSpaceOnUse" color-interpolation-filters="sRGB">
<feFlood flood-opacity="0" result="BackgroundImageFix"/>
<feBlend mode="normal" in="SourceGraphic" in2="BackgroundImageFix" result="shape"/>
<feColorMatrix in="SourceAlpha" type="matrix" values="0 0 0 0 0 0 0 0 0 0 0 0 0 0 0 0 0 0 127 0" result="hardAlpha"/>
<feOffset dy="-0.5"/>
<feGaussianBlur stdDeviation="0.5"/>
<feComposite in2="hardAlpha" operator="arithmetic" k2="-1" k3="1"/>
<feColorMatrix type="matrix" values="0 0 0 0 0 0 0 0 0 0 0 0 0 0 0 0 0 0 0.45 0"/>
<feBlend mode="normal" in2="shape" result="effect1_innerShadow_1_94"/>
</filter>
<radialGradient id="paint0_radial_1_94" cx="0" cy="0" r="1" gradientUnits="userSpaceOnUse" gradientTransform="translate(9.60596 5.83472) rotate(41.6335) scale(547.864 616.347)">
<stop stop-color="#1B1B1B" stop-opacity="0"/>
<stop offset="0.494792" stop-color="#1B1B1B"/>
</radialGradient>
<radialGradient id="paint1_radial_1_94" cx="0" cy="0" r="1" gradientUnits="userSpaceOnUse" gradientTransform="translate(-44.9912 150.517) rotate(26.4666) scale(118.42 182.874)">
<stop stop-color="#24FF95"/>
<stop offset="1" stop-color="#24FF95" stop-opacity="0"/>
</radialGradient>
<radialGradient id="paint2_radial_1_94" cx="0" cy="0" r="1" gradientUnits="userSpaceOnUse" gradientTransform="translate(209.34 187.825) rotate(90) scale(181.99 204.739)">
<stop stop-color="#1B1B1B"/>
<stop offset="1" stop-color="#1B1B1B" stop-opacity="0"/>
</radialGradient>
<linearGradient id="paint3_linear_1_94" x1="nan" y1="nan" x2="nan" y2="nan" gradientUnits="userSpaceOnUse">
<stop stop-color="#24FF95"/>
<stop offset="0.041424" stop-color="#24FF95"/>
<stop offset="0.958333" stop-color="#24FF95" stop-opacity="0"/>
</linearGradient>
<linearGradient id="paint4_linear_1_94" x1="201.151" y1="208.754" x2="259.953" y2="269.955" gradientUnits="userSpaceOnUse">
<stop stop-color="#24FF95" stop-opacity="0"/>
<stop offset="0.541667" stop-color="#24FF95"/>
<stop offset="0.838485" stop-color="#24FF95"/>
<stop offset="0.958333" stop-color="#24FF95" stop-opacity="0"/>
</linearGradient>
<linearGradient id="paint5_linear_1_94" x1="177.037" y1="301.569" x2="177.037" y2="322.498" gradientUnits="userSpaceOnUse">
<stop stop-color="white"/>
<stop offset="1" stop-color="#BABABA"/>
</linearGradient>
<linearGradient id="paint6_linear_1_94" x1="379.502" y1="106.828" x2="312.178" y2="100.843" gradientUnits="userSpaceOnUse">
<stop stop-color="#1B1B1B"/>
<stop offset="1" stop-color="#323234"/>
</linearGradient>
<linearGradient id="paint7_linear_1_94" x1="344.469" y1="95.01" x2="344.469" y2="133.228" gradientUnits="userSpaceOnUse">
<stop stop-color="#1F1F21"/>
<stop offset="1" stop-color="#202022"/>
</linearGradient>
<linearGradient id="paint8_linear_1_94" x1="344.469" y1="96.3877" x2="344.469" y2="115.471" gradientUnits="userSpaceOnUse">
<stop stop-color="white"/>
<stop offset="1" stop-color="#BABABA"/>
</linearGradient>
<linearGradient id="paint9_linear_1_94" x1="379.502" y1="213.293" x2="312.178" y2="207.307" gradientUnits="userSpaceOnUse">
<stop stop-color="#1B1B1B"/>
<stop offset="1" stop-color="#323234"/>
</linearGradient>
<radialGradient id="paint10_radial_1_94" cx="0" cy="0" r="1" gradientUnits="userSpaceOnUse" gradientTransform="translate(307.16 212.394) scale(34.1236 54.9923)">
<stop stop-color="#24E989"/>
<stop offset="1" stop-opacity="0"/>
</radialGradient>
<linearGradient id="paint11_linear_1_94" x1="344.469" y1="201.474" x2="344.469" y2="239.692" gradientUnits="userSpaceOnUse">
<stop stop-color="#1F1F21"/>
<stop offset="1" stop-color="#202022"/>
</linearGradient>
<radialGradient id="paint12_radial_1_94" cx="0" cy="0" r="1" gradientTransform="matrix(30.9387 10.0094 -12.1502 37.5548 308.07 205.114)" gradientUnits="userSpaceOnUse">
<stop stop-color="#24FF95"/>
<stop offset="1" stop-color="#24FF95" stop-opacity="0"/>
</radialGradient>
<radialGradient id="paint13_radial_1_94" cx="0" cy="0" r="1" gradientTransform="matrix(30.0287 5.45968 -4.20785 23.143 313.075 207.844)" gradientUnits="userSpaceOnUse">
<stop stop-color="#A8FFD5"/>
<stop offset="1" stop-color="#BDFFDF" stop-opacity="0"/>
</radialGradient>
<linearGradient id="paint14_linear_1_94" x1="344.468" y1="201.474" x2="344.468" y2="223.313" gradientUnits="userSpaceOnUse">
<stop stop-color="white"/>
<stop offset="1" stop-color="#BABABA"/>
</linearGradient>
<linearGradient id="paint15_linear_1_94" x1="344.468" y1="201.474" x2="344.468" y2="223.313" gradientUnits="userSpaceOnUse">
<stop stop-color="white"/>
<stop offset="1" stop-color="#BABABA"/>
</linearGradient>
<linearGradient id="paint16_linear_1_94" x1="344.468" y1="201.474" x2="344.468" y2="223.313" gradientUnits="userSpaceOnUse">
<stop stop-color="white"/>
<stop offset="1" stop-color="#BABABA"/>
</linearGradient>
<linearGradient id="paint17_linear_1_94" x1="344.468" y1="201.474" x2="344.468" y2="223.313" gradientUnits="userSpaceOnUse">
<stop stop-color="white"/>
<stop offset="1" stop-color="#BABABA"/>
</linearGradient>
<linearGradient id="paint18_linear_1_94" x1="344.468" y1="201.474" x2="344.468" y2="223.313" gradientUnits="userSpaceOnUse">
<stop stop-color="white"/>
<stop offset="1" stop-color="#BABABA"/>
</linearGradient>
<linearGradient id="paint19_linear_1_94" x1="344.468" y1="201.474" x2="344.468" y2="223.313" gradientUnits="userSpaceOnUse">
<stop stop-color="white"/>
<stop offset="1" stop-color="#BABABA"/>
</linearGradient>
<linearGradient id="paint20_linear_1_94" x1="344.468" y1="201.474" x2="344.468" y2="223.313" gradientUnits="userSpaceOnUse">
<stop stop-color="white"/>
<stop offset="1" stop-color="#BABABA"/>
</linearGradient>
<linearGradient id="paint21_linear_1_94" x1="119.256" y1="159.162" x2="51.9189" y2="153.247" gradientUnits="userSpaceOnUse">
<stop stop-color="#1B1B1B"/>
<stop offset="1" stop-color="#323234"/>
</linearGradient>
<linearGradient id="paint22_linear_1_94" x1="84.2227" y1="146.877" x2="84.2227" y2="185.095" gradientUnits="userSpaceOnUse">
<stop stop-color="#1F1F21"/>
<stop offset="1" stop-color="#202022"/>
</linearGradient>
<radialGradient id="paint23_radial_1_94" cx="0" cy="0" r="1" gradientTransform="matrix(30.9387 10.0094 -12.1502 37.5548 47.8242 150.517)" gradientUnits="userSpaceOnUse">
<stop stop-color="#24FF95"/>
<stop offset="1" stop-color="#24FF95" stop-opacity="0"/>
</radialGradient>
<radialGradient id="paint24_radial_1_94" cx="0" cy="0" r="1" gradientTransform="matrix(30.0287 5.45968 -4.20785 23.143 52.8289 153.247)" gradientUnits="userSpaceOnUse">
<stop stop-color="#A8FFD5"/>
<stop offset="1" stop-color="#BDFFDF" stop-opacity="0"/>
</radialGradient>
<radialGradient id="paint25_radial_1_94" cx="0" cy="0" r="1" gradientTransform="matrix(-2.23133 31.3933 -22.7789 -1.61901 81.9041 130.498)" gradientUnits="userSpaceOnUse">
<stop stop-color="white" stop-opacity="0.48"/>
<stop offset="1" stop-color="white" stop-opacity="0.04"/>
</radialGradient>
<linearGradient id="paint26_linear_1_94" x1="84.2223" y1="145.509" x2="84.2223" y2="170.084" gradientUnits="userSpaceOnUse">
<stop stop-color="white"/>
<stop offset="1" stop-color="#BABABA"/>
</linearGradient>
</defs>
</svg>
