<svg width="11" height="11" viewBox="0 0 11 11" fill="none" xmlns="http://www.w3.org/2000/svg">
<mask id="mask0_1_915" style="mask-type:luminance" maskUnits="userSpaceOnUse" x="0" y="0" width="11" height="11">
<path d="M10.7914 0.134277H0.895508V10.03H10.7914V0.134277Z" fill="white"/>
</mask>
<g mask="url(#mask0_1_915)">
<path d="M6.25693 3.02038L5.7977 2.10011C5.66503 1.83571 5.59916 1.70303 5.49989 1.60655C5.41269 1.5212 5.30785 1.45534 5.19189 1.41544C5.06107 1.37091 4.91358 1.37091 4.61763 1.37091H3.0414C2.57939 1.37091 2.34839 1.3709 2.17212 1.46089C2.01719 1.53974 1.89101 1.66591 1.81122 1.82084C1.72216 1.99711 1.72217 2.22812 1.72217 2.69012V3.02038M1.72217 3.02038H7.989C8.68202 3.02038 9.02807 3.02039 9.29247 3.15491C9.52533 3.27366 9.7146 3.46292 9.83335 3.69578C9.96787 3.96018 9.96787 4.30622 9.96787 4.99922V6.81383C9.96787 7.5059 9.96787 7.85287 9.83335 8.11727C9.7146 8.35012 9.52533 8.53939 9.29247 8.65813C9.02807 8.79265 8.68202 8.79264 7.989 8.79264H3.70102C3.008 8.79264 2.66196 8.79265 2.39756 8.65813C2.16469 8.53939 1.97543 8.35012 1.85668 8.11727C1.72216 7.85287 1.72217 7.5059 1.72217 6.81383V3.02038ZM5.84502 7.14315V4.66894M4.60834 5.90652H7.08168" stroke="#B0B0B0" stroke-width="0.888889" stroke-linecap="round" stroke-linejoin="round"/>
</g>
</svg>
