<svg width="15" height="14" viewBox="0 0 15 14" fill="none" xmlns="http://www.w3.org/2000/svg">
<path d="M0.584473 3.18696C0.584473 1.97258 1.56879 0.988281 2.7832 0.988281H12.6794C13.8938 0.988281 14.8781 1.97258 14.8781 3.18696V11.4334C14.8781 12.6478 13.8938 13.6321 12.6794 13.6321H2.7832C1.56879 13.6321 0.584473 12.6478 0.584473 11.4334V3.18696Z" fill="#35353B"/>
<path d="M5.27133 8.51486V7.81722H9.30511C9.47118 7.81722 9.62147 7.77639 9.75785 7.69568C9.8933 7.61404 10.0019 7.5055 10.0835 7.37005C10.1642 7.23182 10.205 7.08061 10.205 6.91548C10.205 6.74942 10.1642 6.60005 10.0835 6.46554C10.0019 6.32916 9.8933 6.22062 9.75785 6.13991C9.62147 6.05734 9.47118 6.01559 9.30511 6.01559H9.01938V5.31702H9.30511C9.60013 5.31702 9.86827 5.38938 10.1086 5.53318C10.3507 5.67697 10.5437 5.86994 10.6875 6.11114C10.8313 6.35235 10.9027 6.61954 10.9027 6.91548C10.9027 7.13535 10.8619 7.34222 10.7793 7.53611C10.6958 7.73001 10.5817 7.89978 10.4342 8.04636C10.2876 8.19387 10.1178 8.30797 9.92393 8.39146C9.73189 8.47403 9.52591 8.51486 9.30511 8.51486H5.27133ZM6.73346 10.3258L4.57275 8.16603L6.73346 6.00631L7.21309 6.48595L5.53109 8.16603L7.21309 9.84613L6.73346 10.3258Z" fill="#CBCBCB"/>
</svg>
