<svg width="11" height="11" viewBox="0 0 11 11" fill="none" xmlns="http://www.w3.org/2000/svg">
<mask id="mask0_1_902" style="mask-type:luminance" maskUnits="userSpaceOnUse" x="0" y="0" width="11" height="11">
<path d="M10.5917 0.906677H0.695801V10.8024H10.5917V0.906677Z" fill="white"/>
</mask>
<g mask="url(#mask0_1_902)">
<path d="M6.05816 3.79276L5.598 2.87339C5.46534 2.60807 5.39948 2.47634 5.30022 2.37893C5.21301 2.29358 5.10817 2.22862 4.99221 2.18873C4.8614 2.1442 4.71387 2.14423 4.41792 2.14423H2.8417C2.37968 2.14423 2.1487 2.14421 1.97243 2.23327C1.8175 2.31305 1.69132 2.43923 1.61247 2.59415C1.52248 2.77042 1.52246 3.00143 1.52246 3.46344V3.79276M1.52246 3.79276H7.78931C8.48233 3.79276 8.82838 3.79275 9.09371 3.9282C9.32565 4.04602 9.5149 4.23528 9.63365 4.46813C9.7691 4.73346 9.7691 5.0795 9.7691 5.77251V7.58621C9.7691 8.27921 9.7691 8.62523 9.63365 8.89055C9.5149 9.12248 9.32565 9.31174 9.09371 9.43049C8.82838 9.56593 8.48233 9.56596 7.78931 9.56596H3.50131C2.8083 9.56596 2.46225 9.56593 2.19785 9.43049C1.96499 9.31174 1.77575 9.12248 1.657 8.89055C1.52248 8.62523 1.52246 8.27921 1.52246 7.58621V3.79276Z" stroke="#EAC76C" stroke-width="0.888889" stroke-linecap="round" stroke-linejoin="round"/>
</g>
</svg>
