<svg width="10" height="11" viewBox="0 0 10 11" fill="none" xmlns="http://www.w3.org/2000/svg">
<path d="M1.97898 9.57713V7.51556M1.97898 3.39241V1.33075M0.948242 2.36163H3.00965M0.948242 8.54634H3.00965M5.48391 1.74312L4.76863 3.60217C4.65267 3.90452 4.59427 4.05564 4.50335 4.18283C4.42356 4.29554 4.32518 4.39398 4.21292 4.47413C4.0849 4.56449 3.93462 4.62266 3.63218 4.7389L1.77298 5.45398L3.63218 6.16898C3.93462 6.28531 4.0849 6.34339 4.21292 6.43384C4.32518 6.514 4.42356 6.61243 4.50335 6.72514C4.59427 6.85224 4.65267 7.00346 4.76863 7.3058L5.48391 9.16485L6.19829 7.3058C6.31518 7.00346 6.37271 6.85224 6.46363 6.72514C6.54342 6.61243 6.64178 6.514 6.75496 6.43384C6.88206 6.34339 7.03326 6.28531 7.3357 6.16898L9.19485 5.45398L7.3357 4.7389C7.03326 4.62266 6.88206 4.56449 6.75496 4.47413C6.64178 4.39398 6.54342 4.29554 6.46363 4.18283C6.37271 4.05564 6.31518 3.90452 6.19829 3.60217L5.48391 1.74312Z" stroke="#B0B0B0" stroke-width="0.888889" stroke-linecap="round" stroke-linejoin="round"/>
</svg>
