<svg width="9" height="9" viewBox="0 0 9 9" fill="none" xmlns="http://www.w3.org/2000/svg">
<path d="M0.708496 0.779785V4.98513C0.708496 5.67813 0.708514 6.02417 0.843036 6.28857C0.961786 6.52143 1.15105 6.71067 1.38391 6.82942C1.64832 6.96394 1.99433 6.96394 2.68735 6.96394H5.65611M5.65611 6.96394C5.65611 7.64767 6.20995 8.20152 6.89369 8.20152C7.57651 8.20152 8.13037 7.64767 8.13037 6.96394C8.13037 6.28114 7.57651 5.72729 6.89369 5.72729C6.20995 5.72729 5.65611 6.28114 5.65611 6.96394ZM0.708496 2.84117H5.65611M5.65611 2.84117C5.65611 3.52397 6.20995 4.07781 6.89369 4.07781C7.57651 4.07781 8.13037 3.52397 8.13037 2.84117C8.13037 2.15837 7.57651 1.60452 6.89369 1.60452C6.20995 1.60452 5.65611 2.15837 5.65611 2.84117Z" stroke="#B0B0B0" stroke-width="0.888889" stroke-linecap="round" stroke-linejoin="round"/>
</svg>
