<svg width="10" height="10" viewBox="0 0 10 10" fill="none" xmlns="http://www.w3.org/2000/svg">
<path d="M5.07115 6.44697C5.75489 6.44697 6.30873 5.89315 6.30873 5.21035C6.30873 4.52662 5.75489 3.97369 5.07115 3.97369C4.38834 3.97369 3.83447 4.52662 3.83447 5.21035C3.83447 5.89315 4.38834 6.44697 5.07115 6.44697Z" stroke="#B0B0B0" stroke-width="0.888889" stroke-linecap="round" stroke-linejoin="round"/>
<path d="M7.84504 6.33477C7.79494 6.44795 7.78008 6.5732 7.80234 6.69473C7.82461 6.81626 7.88214 6.9285 7.96842 7.01663L7.99158 7.03982C8.06116 7.1094 8.11594 7.19196 8.15398 7.28287C8.19202 7.37379 8.21146 7.47122 8.21146 7.56956C8.21146 7.66882 8.19202 7.76623 8.15398 7.85715C8.11594 7.94806 8.06116 8.03062 7.99158 8.1002C7.922 8.16978 7.83943 8.22543 7.74759 8.26254C7.65667 8.30058 7.5593 8.32007 7.46096 8.32007C7.36262 8.32007 7.26518 8.30058 7.17427 8.26254C7.08242 8.22543 6.99985 8.16978 6.93027 8.1002L6.90802 8.07795C6.81988 7.99167 6.70764 7.93321 6.58611 7.91094C6.46458 7.8896 6.33933 7.90447 6.22615 7.95363C6.11482 8.00188 6.02018 8.08073 5.95339 8.18092C5.88752 8.28204 5.85135 8.39986 5.85135 8.52046V8.58354C5.85135 8.783 5.77249 8.97317 5.63148 9.11419C5.49046 9.25427 5.30023 9.33315 5.1017 9.33315C4.90224 9.33315 4.71209 9.25427 4.57107 9.11419C4.43098 8.97317 4.3512 8.783 4.3512 8.58354V8.55016C4.34842 8.42585 4.3085 8.30523 4.23614 8.20504C4.16378 8.10392 4.06357 8.02691 3.94667 7.98424C3.83349 7.93414 3.70825 7.91931 3.58671 7.94157C3.46518 7.96291 3.35294 8.02134 3.2648 8.10762L3.24255 8.1299C3.17204 8.19948 3.08947 8.25514 2.99856 8.29318C2.90764 8.33028 2.81021 8.34977 2.71187 8.34977C2.61353 8.34977 2.51519 8.33028 2.42427 8.29318C2.33335 8.25514 2.25076 8.19948 2.18118 8.1299C2.1116 8.06032 2.05595 7.97773 2.01884 7.88682C1.9808 7.7959 1.96131 7.6985 1.96131 7.60016C1.96131 7.5009 1.9808 7.40349 2.01884 7.31257C2.05595 7.22166 2.1116 7.1391 2.18118 7.06952L2.20349 7.04724C2.28977 6.95818 2.34821 6.84686 2.37048 6.7244C2.39274 6.60287 2.37695 6.47763 2.32778 6.36444C2.27954 6.25405 2.20069 6.15942 2.10049 6.09262C2.0003 6.02583 1.88248 5.99058 1.76188 5.98965H1.69784C1.4993 5.98965 1.30822 5.91081 1.16721 5.77072C1.02712 5.62971 0.948242 5.43951 0.948242 5.24005C0.948242 5.04152 1.02712 4.85042 1.16721 4.71034C1.30822 4.56932 1.4993 4.49047 1.69784 4.49047H1.73124C1.85556 4.48768 1.97618 4.4478 2.07637 4.37544C2.17749 4.30308 2.25447 4.20194 2.29715 4.08598C2.34725 3.9728 2.36211 3.84755 2.33984 3.72602C2.31851 3.60449 2.26004 3.49225 2.17376 3.40319L2.15151 3.38091C2.08193 3.31133 2.0263 3.22877 1.98826 3.13785C1.95115 3.04693 1.93164 2.94953 1.93164 2.85026C1.93164 2.75192 1.95115 2.65452 1.98826 2.5636C2.0263 2.47269 2.08193 2.3901 2.15151 2.32052C2.22109 2.25094 2.30368 2.19528 2.3946 2.15725C2.48552 2.12014 2.58289 2.10065 2.68123 2.10065C2.7805 2.10065 2.87791 2.12014 2.96883 2.15725C3.05975 2.19528 3.14234 2.25094 3.21192 2.32052L3.23417 2.3428C3.32323 2.42908 3.43551 2.48751 3.55704 2.50885C3.67858 2.53111 3.80382 2.51628 3.917 2.46618H3.94667C4.058 2.41887 4.15266 2.34003 4.21853 2.23983C4.28533 2.13871 4.32147 2.02089 4.32147 1.90029V1.83718C4.32147 1.63772 4.40033 1.44755 4.54134 1.30654C4.68143 1.16645 4.87259 1.08667 5.07112 1.08667C5.27059 1.08667 5.46073 1.16645 5.60175 1.30654C5.74184 1.44755 5.82072 1.63772 5.82072 1.83718V1.87059C5.82164 1.99119 5.85686 2.10901 5.92366 2.2092C5.99046 2.31032 6.08511 2.38917 6.19551 2.43648C6.3087 2.48658 6.43394 2.50144 6.55547 2.47918C6.67794 2.45691 6.79021 2.39938 6.87835 2.3131L6.9006 2.28992C6.97018 2.22034 7.05271 2.16561 7.14363 2.12758C7.23455 2.08954 7.33196 2.07005 7.43123 2.07005C7.52957 2.07005 7.627 2.08954 7.71792 2.12758C7.80884 2.16561 7.89143 2.22034 7.96101 2.28992C8.03151 2.35949 8.08622 2.44299 8.12425 2.53391C8.16136 2.62482 8.18088 2.72222 8.18088 2.82056C8.18088 2.9189 8.16136 3.01631 8.12425 3.10815C8.08622 3.19907 8.03151 3.28166 7.96101 3.35123L7.93875 3.37349C7.85247 3.46162 7.79494 3.57389 7.77267 3.69542C7.75041 3.81695 7.76521 3.94312 7.81531 4.05537V4.08598C7.86263 4.19638 7.9415 4.291 8.0417 4.3578C8.14282 4.42459 8.26067 4.45984 8.38127 4.46077H8.44526C8.64379 4.46077 8.83396 4.53962 8.97498 4.6797C9.11599 4.82072 9.19485 5.01184 9.19485 5.21038C9.19485 5.40891 9.11599 5.6 8.97498 5.74009C8.83396 5.8811 8.64379 5.95996 8.44526 5.95996H8.41094C8.29034 5.95996 8.17252 5.99616 8.07233 6.06295C7.97121 6.12975 7.89235 6.22345 7.84504 6.33477Z" stroke="#B0B0B0" stroke-width="0.888889" stroke-linecap="round" stroke-linejoin="round"/>
</svg>
