<svg width="11" height="11" viewBox="0 0 11 11" fill="none" xmlns="http://www.w3.org/2000/svg">
<mask id="mask0_1_880" style="mask-type:luminance" maskUnits="userSpaceOnUse" x="0" y="0" width="11" height="11">
<path d="M10.7914 0.910278H0.895508V10.806H10.7914V0.910278Z" fill="white"/>
</mask>
<g mask="url(#mask0_1_880)">
<path d="M2.75287 9.98152V7.92012M2.75287 3.79735V1.73505M1.72217 2.76573H3.78359M1.72217 8.95081H3.78359M6.25693 2.14789L5.54257 4.00703C5.42568 4.30946 5.36816 4.46069 5.27725 4.58779C5.19746 4.70004 5.09911 4.79837 4.98593 4.87908C4.85883 4.96907 4.70762 5.02752 4.40517 5.14349L2.546 5.85875L4.40517 6.57308C4.70762 6.68998 4.85883 6.74843 4.98593 6.83842C5.09911 6.9182 5.19746 7.01654 5.27725 7.12972C5.36816 7.25682 5.42568 7.40804 5.54257 7.71048L6.25693 9.56962L6.97221 7.71048C7.08911 7.40804 7.14662 7.25682 7.23754 7.12972C7.31733 7.01654 7.41566 6.9182 7.52885 6.83842C7.65595 6.74843 7.80717 6.68998 8.10961 6.57308L9.96787 5.85875L8.10961 5.14349C7.80717 5.02752 7.65595 4.96907 7.52885 4.87908C7.41566 4.79837 7.31733 4.70004 7.23754 4.58779C7.14662 4.46069 7.08911 4.30946 6.97221 4.00703L6.25693 2.14789Z" stroke="#B0B0B0" stroke-width="0.888889" stroke-linecap="round" stroke-linejoin="round"/>
</g>
</svg>
