<svg width="11" height="11" viewBox="0 0 11 11" fill="none" xmlns="http://www.w3.org/2000/svg">
<mask id="mask0_1_851" style="mask-type:luminance" maskUnits="userSpaceOnUse" x="0" y="0" width="11" height="11">
<path d="M10.4003 0.64325H0.504395V10.5389H10.4003V0.64325Z" fill="white"/>
</mask>
<g mask="url(#mask0_1_851)">
<path d="M5.86617 3.52948L5.4062 2.60956C5.27381 2.34479 5.20757 2.2124 5.10886 2.11564C5.02156 2.03011 4.91626 1.96507 4.80076 1.92527C4.67004 1.88019 4.52207 1.88019 4.22603 1.88019H2.64999C2.18816 1.88019 1.95725 1.88019 1.7808 1.97008C1.62568 2.04913 1.49951 2.17529 1.42046 2.33041C1.33057 2.50686 1.33057 2.73777 1.33057 3.19959V3.52948M1.33057 3.52948H7.59788C8.29071 3.52948 8.63703 3.52949 8.90171 3.66428C9.13439 3.78284 9.32365 3.97209 9.4423 4.20486C9.5771 4.46944 9.5771 4.81586 9.5771 5.50858V7.32282C9.5771 8.01555 9.5771 8.36196 9.4423 8.62654C9.32365 8.85931 9.13439 9.04847 8.90171 9.16712C8.63703 9.30192 8.29071 9.30192 7.59788 9.30192H3.3097C2.61696 9.30192 2.27055 9.30192 2.00596 9.16712C1.77319 9.04847 1.58393 8.85931 1.46537 8.62654C1.33057 8.36196 1.33057 8.01555 1.33057 7.32282V3.52948Z" stroke="#E7E7E7" stroke-width="0.888889" stroke-linecap="round" stroke-linejoin="round"/>
</g>
</svg>

