<svg width="11" height="11" viewBox="0 0 11 11" fill="none" xmlns="http://www.w3.org/2000/svg">
<mask id="mask0_1_862" style="mask-type:luminance" maskUnits="userSpaceOnUse" x="0" y="0" width="11" height="11">
<path d="M10.4003 0.458801H0.504395V10.3545H10.4003V0.458801Z" fill="white"/>
</mask>
<g mask="url(#mask0_1_862)">
<path d="M1.53671 5.40656H2.93119C3.21368 5.40656 3.47196 5.56622 3.59832 5.81884C3.72468 6.07155 3.98296 6.23121 4.26555 6.23121H6.64212C6.92462 6.23121 7.1829 6.07155 7.30926 5.81884C7.43562 5.56622 7.6939 5.40656 7.97648 5.40656H9.37096M4.20302 2.10797H6.70456C7.14857 2.10797 7.37058 2.10797 7.56661 2.1756C7.73991 2.23544 7.89781 2.33294 8.02881 2.46125C8.17697 2.60634 8.27624 2.80487 8.47477 3.20203L9.36818 4.98872C9.44611 5.14457 9.48498 5.22241 9.51253 5.30414C9.53693 5.37669 9.55456 5.45128 9.56514 5.52707C9.5771 5.61242 9.5771 5.69953 9.5771 5.87376V6.72596C9.5771 7.41878 9.5771 7.76509 9.4423 8.02968C9.32365 8.26244 9.13439 8.4517 8.90171 8.57026C8.63703 8.70515 8.29071 8.70515 7.59788 8.70515H3.3097C2.61696 8.70515 2.27055 8.70515 2.00596 8.57026C1.77319 8.4517 1.58393 8.26244 1.46537 8.02968C1.33057 7.76509 1.33057 7.41878 1.33057 6.72596V5.87376C1.33057 5.69953 1.33057 5.61242 1.34253 5.52707C1.35311 5.45128 1.37074 5.37669 1.39514 5.30414C1.4226 5.22241 1.46156 5.14448 1.53949 4.98872L2.43281 3.20203C2.63144 2.80487 2.7307 2.60634 2.87886 2.46125C3.00977 2.33294 3.16767 2.23544 3.34097 2.1756C3.537 2.10797 3.759 2.10797 4.20302 2.10797Z" stroke="#E7E7E7" stroke-width="0.888889" stroke-linecap="round" stroke-linejoin="round"/>
</g>
</svg>

