<svg width="9" height="9" viewBox="0 0 9 9" fill="none" xmlns="http://www.w3.org/2000/svg">
<path d="M2.97021 0.472473H1.40336C1.17245 0.472473 1.05695 0.472467 0.968813 0.517368C0.891162 0.556982 0.828169 0.619979 0.788555 0.697629C0.743652 0.785762 0.743652 0.901262 0.743652 1.13217V2.69908C0.743652 2.93008 0.743652 3.04512 0.788555 3.13325C0.828169 3.21118 0.891162 3.27426 0.968813 3.31416C1.05695 3.35869 1.17245 3.35869 1.40336 3.35869H2.97021C3.20113 3.35869 3.31663 3.35869 3.40477 3.31416C3.48242 3.27426 3.5455 3.21118 3.58502 3.13325C3.62993 3.04512 3.62993 2.93008 3.62993 2.69908V1.13217C3.62993 0.901262 3.62993 0.785762 3.58502 0.697629C3.5455 0.619979 3.48242 0.556982 3.40477 0.517368C3.31663 0.472467 3.20113 0.472473 2.97021 0.472473Z" stroke="#E7E7E7" stroke-width="0.888889" stroke-linecap="round" stroke-linejoin="round"/>
<path d="M7.50586 0.472473H5.93901C5.7081 0.472473 5.59259 0.472467 5.50446 0.517368C5.42681 0.556982 5.36372 0.619979 5.3242 0.697629C5.2793 0.785762 5.2793 0.901262 5.2793 1.13217V2.69908C5.2793 2.93008 5.2793 3.04512 5.3242 3.13325C5.36372 3.21118 5.42681 3.27426 5.50446 3.31416C5.59259 3.35869 5.7081 3.35869 5.93901 3.35869H7.50586C7.73677 3.35869 7.85227 3.35869 7.94041 3.31416C8.01806 3.27426 8.08105 3.21118 8.12067 3.13325C8.16557 3.04512 8.16557 2.93008 8.16557 2.69908V1.13217C8.16557 0.901262 8.16557 0.785762 8.12067 0.697629C8.08105 0.619979 8.01806 0.556982 7.94041 0.517368C7.85227 0.472467 7.73677 0.472473 7.50586 0.472473Z" stroke="#E7E7E7" stroke-width="0.888889" stroke-linecap="round" stroke-linejoin="round"/>
<path d="M7.50586 5.00818H5.93901C5.7081 5.00818 5.59259 5.00818 5.50446 5.05271C5.42681 5.0926 5.36372 5.15568 5.3242 5.23268C5.2793 5.32174 5.2793 5.43678 5.2793 5.66778V7.23469C5.2793 7.46569 5.2793 7.58073 5.3242 7.66887C5.36372 7.74679 5.42681 7.80988 5.50446 7.84884C5.59259 7.8943 5.7081 7.8943 5.93901 7.8943H7.50586C7.73677 7.8943 7.85227 7.8943 7.94041 7.84884C8.01806 7.80988 8.08105 7.74679 8.12067 7.66887C8.16557 7.58073 8.16557 7.46569 8.16557 7.23469V5.66778C8.16557 5.43678 8.16557 5.32174 8.12067 5.23268C8.08105 5.15568 8.01806 5.0926 7.94041 5.05271C7.85227 5.00818 7.73677 5.00818 7.50586 5.00818Z" stroke="#E7E7E7" stroke-width="0.888889" stroke-linecap="round" stroke-linejoin="round"/>
<path d="M2.97021 5.00818H1.40336C1.17245 5.00818 1.05695 5.00818 0.968813 5.05271C0.891162 5.0926 0.828169 5.15568 0.788555 5.23268C0.743652 5.32174 0.743652 5.43678 0.743652 5.66778V7.23469C0.743652 7.46569 0.743652 7.58073 0.788555 7.66887C0.828169 7.74679 0.891162 7.80988 0.968813 7.84884C1.05695 7.8943 1.17245 7.8943 1.40336 7.8943H2.97021C3.20113 7.8943 3.31663 7.8943 3.40477 7.84884C3.48242 7.80988 3.5455 7.74679 3.58502 7.66887C3.62993 7.58073 3.62993 7.46569 3.62993 7.23469V5.66778C3.62993 5.43678 3.62993 5.32174 3.58502 5.23268C3.5455 5.15568 3.48242 5.0926 3.40477 5.05271C3.31663 5.00818 3.20113 5.00818 2.97021 5.00818Z" stroke="#E7E7E7" stroke-width="0.888889" stroke-linecap="round" stroke-linejoin="round"/>
</svg>
