<svg width="11" height="11" viewBox="0 0 11 11" fill="none" xmlns="http://www.w3.org/2000/svg">
<mask id="mask0_1_837" style="mask-type:luminance" maskUnits="userSpaceOnUse" x="0" y="0" width="11" height="11">
<path d="M10.4003 0.519836H0.504395V10.4155H10.4003V0.519836Z" fill="white"/>
</mask>
<g mask="url(#mask0_1_837)">
<path d="M5.45374 6.70401C6.13693 6.70401 6.69079 6.15017 6.69079 5.46737C6.69079 4.78457 6.13693 4.23071 5.45374 4.23071C4.77065 4.23071 4.2168 4.78457 4.2168 5.46737C4.2168 6.15017 4.77065 6.70401 5.45374 6.70401Z" stroke="#E7E7E7" stroke-width="0.888889" stroke-linecap="round" stroke-linejoin="round"/>
<path d="M8.22762 6.59176C8.17771 6.70494 8.16287 6.83018 8.18495 6.95171C8.20693 7.07324 8.26492 7.18551 8.35138 7.27457L8.37383 7.29683C8.44351 7.36641 8.4988 7.44897 8.53656 7.53989C8.57432 7.6308 8.59371 7.72822 8.59371 7.82656C8.59371 7.92582 8.57432 8.02323 8.53656 8.11415C8.4988 8.20506 8.44351 8.28763 8.37383 8.3572C8.30425 8.42678 8.2215 8.48245 8.13049 8.52049C8.03948 8.5576 7.94197 8.57709 7.84345 8.57709C7.74492 8.57709 7.64732 8.5576 7.55631 8.52049C7.4653 8.48245 7.38264 8.42678 7.31306 8.3572L7.29052 8.33495C7.2022 8.24867 7.09003 8.19023 6.96841 8.16889C6.84678 8.14662 6.72135 8.16146 6.60836 8.21155C6.49749 8.25887 6.40295 8.33773 6.33634 8.43792C6.26973 8.53904 6.23401 8.65686 6.23346 8.77746V8.84055C6.23346 9.04001 6.15451 9.23019 6.01395 9.3712C5.87331 9.51129 5.68266 9.59015 5.48385 9.59015C5.28494 9.59015 5.09429 9.51129 4.95374 9.3712C4.8131 9.23019 4.73415 9.04001 4.73415 8.84055V8.80715C4.73118 8.68283 4.6911 8.56316 4.61883 8.46204C4.54665 8.36092 4.44581 8.28391 4.32928 8.24124C4.21619 8.19114 4.09085 8.17631 3.96923 8.19857C3.8476 8.22084 3.73544 8.27836 3.64712 8.36464L3.62458 8.38782C3.555 8.4574 3.47224 8.51214 3.38123 8.55018C3.29022 8.58821 3.19271 8.60769 3.09419 8.60769C2.99566 8.60769 2.89816 8.58821 2.80715 8.55018C2.71614 8.51214 2.63338 8.4574 2.5638 8.38782C2.49404 8.31732 2.43875 8.23475 2.40108 8.14383C2.36332 8.05292 2.34393 7.95552 2.34393 7.85718C2.34393 7.75884 2.36332 7.66049 2.40108 7.56957C2.43875 7.47866 2.49404 7.3961 2.5638 7.32652L2.58626 7.30425C2.67272 7.21612 2.7307 7.10386 2.75269 6.98233C2.77477 6.8608 2.75983 6.73464 2.71001 6.62146C2.66242 6.51106 2.58356 6.41643 2.483 6.34964C2.38243 6.28284 2.26461 6.24758 2.144 6.24665H2.08027C1.88145 6.24665 1.69071 6.16781 1.55016 6.02772C1.40952 5.88671 1.33057 5.69652 1.33057 5.49706C1.33057 5.29853 1.40952 5.10835 1.55016 4.96734C1.69071 4.82632 1.88145 4.74747 2.08027 4.74747H2.11395C2.23808 4.74468 2.3584 4.70478 2.45934 4.63242C2.56028 4.56006 2.63719 4.45894 2.67996 4.34298C2.72987 4.2298 2.7448 4.10456 2.72272 3.98302C2.70064 3.86149 2.64266 3.74924 2.55629 3.66111L2.53384 3.63792C2.46407 3.56834 2.40878 3.48577 2.37111 3.39485C2.33335 3.30393 2.31397 3.20653 2.31397 3.10819C2.31397 3.00893 2.33335 2.91152 2.37111 2.8206C2.40878 2.72969 2.46407 2.64711 2.53384 2.57753C2.60342 2.50796 2.68608 2.4523 2.77709 2.41426C2.8681 2.37715 2.9657 2.35767 3.06422 2.35767C3.16275 2.35767 3.26025 2.37715 3.35126 2.41426C3.44228 2.4523 3.52494 2.50796 3.59461 2.57753L3.61706 2.5998C3.70547 2.68608 3.81764 2.74453 3.93926 2.7668C4.0608 2.78814 4.18623 2.77328 4.29932 2.72318H4.32928C4.44015 2.67587 4.53468 2.59703 4.60129 2.49683C4.66791 2.39571 4.70362 2.27788 4.70418 2.15728V2.0942C4.70418 1.89474 4.78313 1.70455 4.92368 1.56354C5.06433 1.42345 5.25498 1.3446 5.45379 1.3446C5.6526 1.3446 5.84334 1.42345 5.9839 1.56354C6.12454 1.70455 6.20349 1.89474 6.20349 2.0942V2.12759C6.20395 2.24819 6.23977 2.36602 6.30628 2.46621C6.37289 2.56733 6.46752 2.64619 6.57839 2.6935C6.69139 2.7436 6.81682 2.75844 6.93844 2.73618C7.05998 2.71391 7.17223 2.65639 7.26055 2.57012L7.283 2.54785C7.35268 2.47734 7.43534 2.42261 7.52635 2.38458C7.61736 2.34654 7.71496 2.32798 7.81348 2.32798C7.91201 2.32798 8.00951 2.34654 8.10052 2.38458C8.19153 2.42261 8.27419 2.47734 8.34387 2.54785C8.41354 2.61743 8.46883 2.69999 8.50659 2.79091C8.54435 2.88182 8.56374 2.97924 8.56374 3.07758C8.56374 3.17591 8.54435 3.27425 8.50659 3.36516C8.46883 3.45608 8.41354 3.53866 8.34387 3.60823L8.32132 3.6305C8.23495 3.71863 8.17697 3.83089 8.15489 3.95242C8.1329 4.07488 8.14774 4.20011 8.19766 4.31329V4.34298C8.24516 4.45338 8.32411 4.548 8.42467 4.6148C8.52524 4.68159 8.64306 4.71685 8.76367 4.71778H8.8274C9.02622 4.71778 9.21696 4.79664 9.35751 4.93765C9.49806 5.07774 9.5771 5.26884 9.5771 5.46738C9.5771 5.66591 9.49806 5.85702 9.35751 5.9971C9.21696 6.13811 9.02622 6.21697 8.8274 6.21697H8.79363C8.67303 6.2179 8.5552 6.25314 8.45464 6.31994C8.35407 6.38673 8.27512 6.48136 8.22762 6.59176Z" stroke="#E7E7E7" stroke-width="0.888889" stroke-linecap="round" stroke-linejoin="round"/>
</g>
</svg>
