<svg width="9" height="9" viewBox="0 0 9 9" fill="none" xmlns="http://www.w3.org/2000/svg">
<path d="M4.35166 0.661328C4.10433 0.665038 3.9558 0.678953 3.83565 0.740183C3.6977 0.810689 3.58563 0.922944 3.51531 1.06025C3.45417 1.18085 3.43979 1.32928 3.43645 1.57606M7.65031 0.661328C7.89774 0.665038 8.04627 0.678953 8.16632 0.740183C8.30427 0.810689 8.41644 0.922944 8.48666 1.06025C8.5479 1.18085 8.56218 1.32928 8.56562 1.57606M8.56562 4.87502C8.56218 5.12272 8.5479 5.27115 8.48666 5.39083C8.41644 5.52906 8.30427 5.64131 8.16632 5.71182C8.04627 5.77305 7.89774 5.78696 7.65031 5.79067M8.56664 2.85909V3.59199M5.63453 0.6604H6.36753M2.40917 7.99029H5.19469C5.60522 7.99029 5.81052 7.99029 5.96731 7.91051C6.10517 7.84 6.21733 7.72775 6.28766 7.59044C6.36753 7.43366 6.36753 7.22771 6.36753 6.81766V4.03172C6.36753 3.62167 6.36753 3.41665 6.28766 3.25986C6.21733 3.12163 6.10517 3.00938 5.96731 2.93887C5.81052 2.85909 5.60522 2.85909 5.19469 2.85909H2.40917C1.99865 2.85909 1.79343 2.85909 1.63655 2.93887C1.49869 3.00938 1.38653 3.12163 1.31621 3.25986C1.23633 3.41665 1.23633 3.62167 1.23633 4.03172V6.81766C1.23633 7.22771 1.23633 7.43366 1.31621 7.59044C1.38653 7.72775 1.49869 7.84 1.63655 7.91051C1.79343 7.99029 1.99865 7.99029 2.40917 7.99029Z" stroke="#E7E7E7" stroke-width="0.790123" stroke-linecap="round" stroke-linejoin="round"/>
</svg>
