<svg width="11" height="10" viewBox="0 0 11 10" fill="none" xmlns="http://www.w3.org/2000/svg">
<mask id="mask0_1_826" style="mask-type:luminance" maskUnits="userSpaceOnUse" x="0" y="0" width="11" height="10">
<path d="M10.8378 0.0704346H0.941895V9.96611H10.8378V0.0704346Z" fill="white"/>
</mask>
<g mask="url(#mask0_1_826)">
<path d="M2.18115 3.78131H9.60303M2.18115 6.25516H9.60303M4.16001 1.30737H7.62327C8.31629 1.30737 8.66234 1.30737 8.92767 1.44217C9.16053 1.56073 9.34976 1.74999 9.46758 1.98275C9.60303 2.24733 9.60303 2.59374 9.60303 3.28647V6.75001C9.60303 7.44273 9.60303 7.78914 9.46758 8.05373C9.34976 8.28649 9.16053 8.47565 8.92767 8.59431C8.66234 8.7291 8.31629 8.7291 7.62327 8.7291H4.16001C3.46699 8.7291 3.12097 8.7291 2.85657 8.59431C2.62371 8.47565 2.43444 8.28649 2.31569 8.05373C2.18117 7.78914 2.18115 7.44273 2.18115 6.75001V3.28647C2.18115 2.59374 2.18117 2.24733 2.31569 1.98275C2.43444 1.74999 2.62371 1.56073 2.85657 1.44217C3.12097 1.30737 3.46699 1.30737 4.16001 1.30737Z" stroke="#E7E7E7" stroke-width="0.888889" stroke-linecap="round" stroke-linejoin="round"/>
</g>
</svg>
