<svg width="11" height="10" viewBox="0 0 11 10" fill="none" xmlns="http://www.w3.org/2000/svg">
<mask id="mask0_1_832" style="mask-type:luminance" maskUnits="userSpaceOnUse" x="0" y="0" width="11" height="10">
<path d="M10.6161 0.0704346H0.720215V9.96611H10.6161V0.0704346Z" fill="white"/>
</mask>
<g mask="url(#mask0_1_832)">
<path d="M9.79348 3.78131H1.54688M1.54688 3.28647V6.75001C1.54688 7.44273 1.54689 7.78914 1.68141 8.05373C1.80016 8.28649 1.98943 8.47565 2.22229 8.59431C2.4867 8.7291 2.83364 8.7291 3.52573 8.7291H7.81463C8.50672 8.7291 8.85372 8.7291 9.11813 8.59431C9.35099 8.47565 9.54025 8.28649 9.659 8.05373C9.79352 7.78914 9.79348 7.44273 9.79348 6.75001V3.28647C9.79348 2.59374 9.79352 2.24733 9.659 1.98275C9.54025 1.74999 9.35099 1.56073 9.11813 1.44217C8.85372 1.30737 8.50672 1.30737 7.81463 1.30737H3.52573C2.83364 1.30737 2.4867 1.30737 2.22229 1.44217C1.98943 1.56073 1.80016 1.74999 1.68141 1.98275C1.54689 2.24733 1.54688 2.59374 1.54688 3.28647Z" stroke="#B0B0B0" stroke-width="0.888889" stroke-linecap="round" stroke-linejoin="round"/>
</g>
</svg>
