<svg width="9" height="10" viewBox="0 0 9 10" fill="none" xmlns="http://www.w3.org/2000/svg">
<path d="M0.79834 3.28647C0.79834 2.59374 0.798336 2.24734 0.933785 1.98275C1.05161 1.74999 1.24084 1.56073 1.4737 1.44217C1.7381 1.30737 2.08508 1.30737 2.7781 1.30737H6.24136C6.93438 1.30737 7.28039 1.30737 7.5448 1.44217C7.77766 1.56073 7.96693 1.74999 8.08568 1.98275C8.2202 2.24734 8.22021 2.59374 8.22021 3.28647V5.51299C8.22021 6.20581 8.2202 6.55213 8.08568 6.81671C7.96693 7.04947 7.77766 7.23873 7.5448 7.35729C7.28039 7.49218 6.93438 7.49218 6.24136 7.49218H3.55465C3.29674 7.49218 3.1687 7.49218 3.04531 7.51742C2.93584 7.53977 2.83006 7.57688 2.73172 7.62753C2.61947 7.68468 2.51929 7.76511 2.31797 7.92579L1.33457 8.71268C1.16294 8.84989 1.07668 8.91854 1.00525 8.91864C0.94216 8.91873 0.882774 8.89016 0.843809 8.84108C0.79835 8.78468 0.79834 8.67483 0.79834 8.45515V3.28647Z" stroke="#B0B0B0" stroke-width="0.888889" stroke-linecap="round" stroke-linejoin="round"/>
</svg>
